<?xml version="1.0" standalone="no"?>
<!DOCTYPE svg PUBLIC "-//W3C//DTD SVG 20010904//EN"
 "http://www.w3.org/TR/2001/REC-SVG-20010904/DTD/svg10.dtd">
<svg version="1.0" xmlns="http://www.w3.org/2000/svg"
 width="1280.000000pt" height="324.000000pt" viewBox="0 0 1280.000000 324.000000"
 preserveAspectRatio="xMidYMid meet">
<metadata>
Created by potrace 1.15, written by Peter Selinger 2001-2017
</metadata>
<g transform="translate(0.000000,324.000000) scale(0.100000,-0.100000)"
fill="#000000" stroke="none">
<path d="M0 2521 c0 -469 3 -722 10 -726 7 -4 10 235 10 709 l0 716 41 0 c24
0 38 4 34 10 -3 6 -26 10 -51 10 l-44 0 0 -719z M125 3230 c8 -14 475 -14 475
0 0 6 -87 10 -241 10 -157 0 -238 -3 -234 -10z M610 3230 c0 -7 135 -10 397
-10 218 0 393 3 389 7 -12 12 -786 15 -786 3z M2645 3230 c-17 -4 63 -8 183
-9 135 -1 212 3 212 9 0 12 -349 12 -395 0z M3060 3230 c0 -5 16 -10 35 -10
19 0 35 5 35 10 0 6 -16 10 -35 10 -19 0 -35 -4 -35 -10z M3150 3230 c0 -6 27
-10 60 -10 33 0 60 4 60 10 0 6 -27 10 -60 10 -33 0 -60 -4 -60 -10z M3280
3230 c0 -5 7 -10 15 -10 8 0 15 5 15 10 0 6 -7 10 -15 10 -8 0 -15 -4 -15 -10z
M3320 3230 c0 -6 46 -10 110 -10 63 0 110 4 110 10 0 5 -47 9 -110 9 -64 0
-110 -4 -110 -9z M3580 3230 c0 -6 38 -10 95 -10 57 0 95 4 95 10 0 6 -38 10
-95 10 -57 0 -95 -4 -95 -10z M3800 3229 c0 -5 41 -9 90 -9 55 0 90 4 90 10 0
7 -34 10 -90 9 -49 -1 -90 -5 -90 -10z M3990 3230 c0 -5 21 -9 48 -9 42 1 44
2 17 9 -44 11 -65 11 -65 0z M4100 3230 c-10 -7 20 -10 98 -8 62 1 115 6 118
10 7 12 -198 10 -216 -2z M4340 3230 c0 -6 42 -10 105 -10 63 0 105 4 105 10
0 6 -42 10 -105 10 -63 0 -105 -4 -105 -10z M4590 3230 c0 -5 14 -10 30 -10
17 0 30 5 30 10 0 6 -13 10 -30 10 -16 0 -30 -4 -30 -10z M4770 3230 c0 -6 28
-10 65 -10 37 0 65 4 65 10 0 6 -28 10 -65 10 -37 0 -65 -4 -65 -10z M4950
3230 c0 -5 14 -10 30 -10 17 0 30 5 30 10 0 6 -13 10 -30 10 -16 0 -30 -4 -30
-10z M5210 3230 c0 -5 20 -10 45 -10 36 0 45 -3 45 -17 0 -35 40 -579 48 -651
7 -68 6 -75 -13 -89 -15 -12 -16 -14 -2 -10 10 4 17 1 17 -6 0 -7 5 -41 10
-77 5 -36 12 -121 15 -190 4 -69 9 -127 10 -130 2 -3 6 -57 9 -120 10 -181 17
-250 28 -250 5 0 7 3 5 8 -3 4 -8 68 -11 144 -4 75 -9 147 -11 160 -3 21 -9
106 -20 273 -3 39 -7 102 -10 140 -2 39 -9 149 -15 245 -6 96 -17 261 -25 365
-8 105 -15 193 -15 198 0 4 7 7 15 7 10 0 15 -10 15 -32 0 -18 7 -130 15 -248
8 -118 20 -294 26 -390 12 -165 17 -190 44 -190 6 0 4 4 -4 9 -9 6 -17 63 -27
212 -7 112 -15 233 -18 269 -3 36 -8 115 -12 175 -3 61 -8 119 -9 130 -2 11
-4 35 -4 53 l-1 32 -75 0 c-43 0 -75 -4 -75 -10z M5380 3230 c0 -5 11 -10 25
-10 14 0 25 5 25 10 0 6 -11 10 -25 10 -14 0 -25 -4 -25 -10z M5720 3230 c0
-5 9 -10 20 -10 11 0 20 5 20 10 0 6 -9 10 -20 10 -11 0 -20 -4 -20 -10z
M5930 3230 c0 -5 7 -10 15 -10 8 0 15 5 15 10 0 6 -7 10 -15 10 -8 0 -15 -4
-15 -10z M6045 3230 c3 -5 15 -10 26 -10 10 0 19 5 19 10 0 6 -12 10 -26 10
-14 0 -23 -4 -19 -10z M6205 3230 c3 -5 17 -10 31 -10 13 0 24 5 24 10 0 6
-14 10 -31 10 -17 0 -28 -4 -24 -10z M6455 3230 c-4 -6 25 -10 80 -10 55 0 84
4 80 10 -3 6 -39 10 -80 10 -41 0 -77 -4 -80 -10z M6640 3230 c0 -5 9 -10 20
-10 11 0 20 5 20 10 0 6 -9 10 -20 10 -11 0 -20 -4 -20 -10z M6690 3231 c0 -5
43 -9 95 -10 61 -1 95 2 95 9 0 6 -35 10 -95 10 -52 0 -95 -4 -95 -9z M6890
3232 c0 -5 23 -10 50 -11 28 -1 50 3 50 9 0 5 -22 10 -50 10 -27 0 -50 -4 -50
-8z M7095 3230 c3 -5 13 -10 21 -10 8 0 14 5 14 10 0 6 -9 10 -21 10 -11 0
-17 -4 -14 -10z M7190 3230 c-11 -7 -6 -10 22 -10 20 0 40 5 43 10 8 13 -45
13 -65 0z M7325 3230 c-4 -6 20 -10 64 -10 38 0 73 5 76 10 4 6 -20 10 -64 10
-38 0 -73 -4 -76 -10z M7520 3230 c0 -5 23 -10 50 -10 28 0 50 5 50 10 0 6
-22 10 -50 10 -27 0 -50 -4 -50 -10z M7770 3229 c0 -5 14 -7 30 -5 44 5 48 14
6 14 -20 0 -36 -4 -36 -9z M9230 3230 c0 -5 20 -10 45 -10 25 0 45 5 45 10 0
6 -20 10 -45 10 -25 0 -45 -4 -45 -10z M9490 3230 c0 -5 11 -10 25 -10 14 0
25 5 25 10 0 6 -11 10 -25 10 -14 0 -25 -4 -25 -10z M9710 3230 c0 -6 42 -10
105 -10 63 0 105 4 105 10 0 6 -42 10 -105 10 -63 0 -105 -4 -105 -10z M9950
3230 c0 -5 9 -10 20 -10 11 0 20 5 20 10 0 6 -9 10 -20 10 -11 0 -20 -4 -20
-10z M10040 3230 c0 -5 23 -10 50 -10 28 0 50 5 50 10 0 6 -22 10 -50 10 -27
0 -50 -4 -50 -10z M10210 3229 c0 -6 84 -9 230 -9 127 1 230 5 230 10 0 5
-103 9 -230 9 -146 0 -230 -3 -230 -10z M10770 3230 c0 -5 21 -10 46 -10 27 0
43 4 39 10 -3 6 -24 10 -46 10 -21 0 -39 -4 -39 -10z M10910 3230 c0 -6 29
-10 68 -10 47 0 63 3 52 10 -20 13 -120 13 -120 0z M11075 3230 c-4 -6 27 -10
87 -9 62 1 85 4 68 9 -36 12 -148 12 -155 0z M11280 3230 c0 -5 11 -10 25 -10
14 0 25 5 25 10 0 6 -11 10 -25 10 -14 0 -25 -4 -25 -10z M11404 3231 c8 -13
236 -14 236 -1 0 6 -44 10 -121 10 -68 0 -118 -4 -115 -9z M11770 3230 c0 -7
131 -10 380 -10 232 0 380 4 380 9 0 6 -149 10 -380 11 -249 0 -380 -3 -380
-10z M12644 3214 c7 -37 13 -40 35 -16 21 25 100 32 102 10 1 -7 5 -76 8 -153
l8 -140 1 163 2 162 -80 0 -80 0 4 -26z M5282 2538 c-7 -7 -12 -21 -12 -32 0
-19 2 -18 13 4 10 18 20 24 38 22 19 -2 21 0 9 8 -20 13 -34 12 -48 -2z M5306
2435 c19 -15 19 -15 -1 -9 -20 6 -20 5 -1 -10 32 -26 49 -19 24 9 -12 14 -26
25 -32 25 -5 0 -1 -7 10 -15z M5055 2430 c-15 -6 -8 -9 29 -9 27 -1 46 2 42 6
-11 11 -49 13 -71 3z M4983 2290 c0 -25 2 -35 4 -22 2 12 2 32 0 45 -2 12 -4
2 -4 -23z M3670 2228 c-279 -12 -265 -10 -263 -44 2 -16 9 -110 18 -209 8 -99
21 -270 30 -380 13 -183 28 -344 41 -452 3 -24 9 -43 13 -43 4 0 4 26 0 58 -5
31 -15 149 -24 262 -9 113 -27 332 -41 488 -15 156 -24 285 -22 287 4 4 471
25 474 21 1 0 4 -55 7 -121 4 -66 14 -194 22 -285 9 -91 17 -211 18 -266 1
-56 5 -97 9 -90 5 7 8 5 8 -6 0 -9 6 -21 14 -25 8 -4 16 -21 19 -38 4 -27 4
-26 7 10 2 39 3 39 10 10 l8 -30 1 32 c1 25 -3 32 -21 35 -16 2 -23 11 -25 33
-1 17 -10 111 -18 210 -8 99 -19 225 -24 280 -5 55 -11 134 -12 175 -1 41 -4
80 -6 87 -3 6 -21 11 -41 10 -20 0 -111 -5 -202 -9z M4992 2150 c0 -19 2 -27
5 -17 2 9 2 25 0 35 -3 9 -5 1 -5 -18z M5005 1985 c3 -49 13 -171 20 -270 8
-99 21 -261 29 -360 8 -99 16 -203 18 -231 l3 -51 -297 -59 c-164 -32 -298
-62 -298 -66 0 -15 46 -8 317 47 150 30 280 55 290 55 29 -1 -3 -15 -64 -29
-36 -9 -53 -18 -56 -32 -5 -17 -41 -26 -79 -20 -5 0 -8 -4 -8 -10 0 -5 -4 -7
-10 -4 -5 3 -10 2 -10 -3 0 -13 -50 -35 -92 -39 -21 -2 -57 -7 -80 -11 -39 -7
-43 -10 -43 -37 0 -30 1 -30 53 -29 51 2 62 -6 44 -32 -4 -6 -35 -16 -69 -24
-35 -7 -60 -17 -57 -21 3 -5 -13 -9 -35 -9 l-40 0 -4 48 -3 47 -2 -49 c-2 -39
-5 -47 -17 -42 -9 3 -58 9 -110 12 -92 7 -94 7 -97 33 -4 37 -38 42 -35 5 l2
-28 -140 4 c-77 2 -159 4 -183 4 -24 1 -41 -3 -39 -9 2 -6 67 -12 153 -15 82
-3 136 -8 119 -11 -21 -5 -14 -6 24 -5 44 1 57 5 72 25 21 26 25 21 8 -10 -9
-18 -7 -19 18 -14 15 3 90 0 165 -6 99 -8 141 -9 151 -1 7 6 35 16 62 22 91
19 96 21 91 29 -3 5 0 14 8 20 12 10 13 4 9 -34 l-4 -45 49 0 c36 0 52 4 56
16 9 24 7 54 -4 54 -5 0 -10 -11 -10 -25 0 -22 -4 -24 -32 -22 -24 2 -33 7
-32 20 3 69 5 72 32 84 44 18 96 22 289 23 101 1 185 6 188 11 5 7 -22 14 -47
10 -3 0 -102 -3 -218 -6 -149 -3 -217 -9 -229 -17 -14 -11 -14 -11 -4 3 7 9 9
20 5 24 -4 5 -1 5 6 1 6 -4 12 -3 12 2 0 13 63 42 90 42 13 0 31 9 41 21 10
11 34 25 55 29 31 7 37 6 41 -11 8 -30 20 -22 15 11 -3 18 0 30 7 30 6 0 11 9
11 20 0 11 -4 20 -9 20 -12 0 -17 46 -41 355 -42 537 -51 640 -57 645 -3 3 -2
-35 2 -85z m-237 -1111 c-2 -8 -7 -15 -13 -16 -5 0 -18 -4 -27 -9 -11 -6 -19
-5 -24 2 -3 6 -15 9 -25 6 -12 -3 -19 0 -19 10 0 8 3 12 8 10 4 -3 16 -1 27 4
36 14 77 11 73 -7z M12632 1869 c-85 -4 -156 -10 -159 -13 -8 -8 188 -8 266 0
33 4 61 11 61 15 0 5 -3 8 -7 7 -5 0 -77 -4 -161 -9z M12415 1860 l-40 -7 43
-2 c23 0 42 4 42 9 0 6 -1 9 -2 9 -2 -1 -21 -5 -43 -9z M12115 1849 c-17 -4
24 -7 93 -8 79 -1 122 3 122 10 0 11 -163 10 -215 -2z M11587 1844 c-1 -1
-146 -5 -322 -8 -176 -4 -358 -9 -405 -11 -47 -3 -188 -7 -315 -10 -428 -10
-620 -17 -625 -22 -7 -6 952 10 1240 22 63 3 248 7 410 11 386 8 481 11 488
19 6 5 -465 5 -471 -1z M7290 1805 c0 -29 6 -31 26 -10 17 16 11 35 -12 35 -8
0 -14 -10 -14 -25z M7433 1816 c2 -6 17 -11 34 -11 39 0 34 11 -7 17 -19 3
-29 1 -27 -6z M12325 1817 c-44 -11 -25 -12 158 -11 168 0 207 -2 203 -13 -3
-7 -1 -13 3 -13 13 0 22 28 11 35 -5 3 -21 5 -37 4 -15 -1 -86 1 -158 5 -88 4
-146 2 -180 -7z M11945 1809 c-39 -3 -8 -6 89 -7 82 -1 146 2 142 6 -9 8 -145
9 -231 1z M11632 1805 c3 -3 61 -7 129 -8 68 -2 113 0 99 4 -29 8 -236 12
-228 4z M9578 1790 c-69 -3 -130 -9 -135 -14 -5 -5 0 -6 10 -3 10 4 90 7 178
7 87 0 159 3 159 8 0 8 -40 9 -212 2z M11180 1791 c0 -10 26 -9 36 2 4 4 -2 7
-14 7 -12 0 -22 -4 -22 -9z M11280 1796 c0 -8 60 -12 72 -4 8 4 -4 8 -29 8
-24 0 -43 -2 -43 -4z M9338 1785 c-2 -3 -83 -5 -179 -6 -96 -1 -226 -5 -289
-9 -78 -6 -20 -7 179 -4 162 2 296 6 299 9 3 3 3 7 0 10 -2 3 -7 3 -10 0z
M10405 1770 c-28 -7 -27 -8 13 -9 27 -1 41 3 37 9 -7 11 -7 11 -50 0z M10303
1763 c9 -2 25 -2 35 0 9 3 1 5 -18 5 -19 0 -27 -2 -17 -5z M12385 1750 c-3 -5
0 -10 7 -10 10 0 10 -2 -1 -9 -10 -6 -10 -10 -1 -13 7 -2 -25 -4 -71 -3 -135
0 -1033 -16 -1039 -20 -3 -1 -212 -6 -465 -10 -252 -4 -468 -9 -479 -11 -11
-2 -109 -4 -218 -4 -123 -1 -198 -5 -198 -11 0 -6 30 -8 78 -5 42 3 275 8 517
11 242 3 501 8 575 10 159 6 1140 24 1450 26 118 1 226 6 240 10 14 4 -61 8
-166 8 -160 1 -191 3 -191 16 0 8 4 12 8 9 4 -2 10 0 14 6 4 6 -6 10 -24 10
-16 0 -33 -4 -36 -10z M8118 1743 c23 -2 59 -2 80 0 20 2 1 4 -43 4 -44 0 -61
-2 -37 -4z M8258 1743 c12 -2 32 -2 45 0 12 2 2 4 -23 4 -25 0 -35 -2 -22 -4z
M7545 1730 c-28 -7 -28 -8 12 -9 23 0 45 4 48 9 7 11 -16 11 -60 0z M0 1655
c0 -41 4 -75 9 -75 4 0 9 34 10 75 1 46 -2 75 -9 75 -6 0 -10 -30 -10 -75z
M7132 1703 l3 -28 160 0 c160 0 283 11 270 23 -8 9 -154 9 -149 1 2 -3 -53 -7
-121 -8 -86 -1 -125 2 -125 9 0 6 -4 8 -10 5 -5 -3 -10 1 -10 9 0 9 -5 16 -11
16 -6 0 -9 -12 -7 -27z M5965 1689 c-33 -5 -29 -6 28 -8 37 0 67 1 67 3 0 8
-56 11 -95 5z M6095 1690 l-20 -9 20 0 c11 0 27 4 35 9 13 9 13 10 0 9 -8 0
-24 -4 -35 -9z M6187 1693 c18 -2 50 -2 70 0 21 2 7 4 -32 4 -38 0 -55 -2 -38
-4z M5745 1650 c-29 -5 -11 -8 65 -8 58 -1 112 3 120 8 18 11 -121 11 -185 0z
M9470 1650 c-10 -7 6 -8 50 -4 36 4 67 8 69 10 10 9 -105 3 -119 -6z M9673
1653 c42 -2 112 -2 155 0 42 1 7 3 -78 3 -85 0 -120 -2 -77 -3z M5653 1643 c9
-2 25 -2 35 0 9 3 1 5 -18 5 -19 0 -27 -2 -17 -5z M8926 1641 c-3 -5 -57 -10
-118 -11 -159 -3 -158 -3 -158 -12 0 -7 15 -12 33 -9 4 0 7 -5 7 -11 0 -10 2
-10 8 -1 10 15 132 27 132 13 0 -6 5 -10 11 -10 5 0 7 5 4 10 -3 6 -2 10 4 10
5 0 13 -4 16 -10 3 -5 13 -10 21 -10 8 0 13 4 10 9 -10 16 33 20 289 27 138 3
252 8 254 10 2 2 -111 4 -252 4 -141 0 -258 -4 -261 -9z M8153 1623 c54 -2
139 -2 190 0 51 1 7 3 -98 3 -104 0 -146 -2 -92 -3z M8496 1619 c3 -5 21 -9
41 -9 45 0 40 6 -9 13 -21 3 -35 1 -32 -4z M7623 1613 c15 -2 39 -2 55 0 15 2
2 4 -28 4 -30 0 -43 -2 -27 -4z M7798 1613 c17 -2 47 -2 65 0 17 2 3 4 -33 4
-36 0 -50 -2 -32 -4z M7408 1603 c12 -2 30 -2 40 0 9 3 -1 5 -23 4 -22 0 -30
-2 -17 -4z M6862 1593 c37 -2 100 -2 140 0 40 1 10 3 -67 3 -77 0 -110 -1 -73
-3z M5895 1578 c-319 -12 -297 -16 60 -11 187 3 381 9 430 13 114 10 -202 9
-490 -2z M6573 1583 c9 -2 25 -2 35 0 9 3 1 5 -18 5 -19 0 -27 -2 -17 -5z
M3369 1509 c-10 -6 -7 -9 14 -9 29 0 35 5 14 13 -8 3 -20 1 -28 -4z M3798
1456 c-10 -7 -18 -16 -18 -20 0 -13 28 -5 45 14 21 24 1 28 -27 6z M3868 1438
c9 -9 15 -9 24 0 9 9 7 12 -12 12 -19 0 -21 -3 -12 -12z M8910 1429 c-295 -5
-391 -9 -450 -23 -92 -20 -96 -21 -195 -36 -75 -12 -130 -29 -96 -30 11 0 11
-3 1 -15 -10 -12 -10 -15 1 -15 11 0 11 -2 -1 -10 -11 -7 -4 -9 25 -9 22 1 32
3 22 6 -9 2 -15 9 -12 14 4 5 89 8 198 7 186 -2 187 -3 42 -5 -82 -2 -161 -5
-174 -8 -20 -5 -21 -8 -8 -18 21 -17 34 -152 15 -158 -7 -3 -119 -6 -248 -8
l-235 -3 -185 -50 c-232 -62 -217 -57 -201 -67 10 -7 10 -9 -2 -14 -18 -7 -16
-35 3 -47 7 -4 37 -6 66 -3 28 2 55 0 58 -6 8 -13 8 -99 0 -138 l-6 -33 -347
-1 c-633 -1 -782 -5 -825 -23 -54 -23 -42 -27 29 -10 48 11 171 14 599 14
l539 0 18 22 c11 11 19 29 19 40 0 17 15 27 64 42 16 5 16 9 5 23 -12 15 -12
16 4 10 10 -4 21 -7 23 -7 2 0 4 -7 4 -16 0 -11 5 -14 18 -9 9 4 40 10 67 14
l50 6 -50 6 c-47 5 -45 6 30 9 l80 4 -75 6 -75 6 65 3 c36 1 85 5 110 7 25 2
97 7 160 10 63 3 118 9 122 13 12 11 -505 1 -518 -10 -7 -5 -26 -14 -43 -19
-29 -8 -31 -7 -37 26 -4 23 -12 34 -24 34 -9 0 -39 2 -66 5 -35 4 -43 3 -29
-4 16 -8 16 -10 4 -10 -9 -1 -22 6 -29 14 -10 12 -10 15 3 15 8 0 17 4 19 10
2 5 84 32 183 59 l180 49 235 6 c129 3 396 8 594 10 197 3 361 7 364 10 3 3
-44 6 -104 6 -66 0 -114 4 -121 11 -8 8 -17 8 -31 0 -25 -13 -65 -15 -58 -2 4
5 -11 7 -33 4 -21 -3 -47 0 -57 6 -17 10 -17 10 6 10 99 -3 449 3 467 7 13 4
23 10 23 15 0 5 -10 7 -22 4 -26 -7 -52 -7 -193 -6 -155 2 -320 -7 -435 -23
-81 -12 -108 -12 -116 -3 -6 7 -14 40 -18 75 l-6 62 291 0 291 0 -6 -24 c-3
-14 -2 -28 4 -31 6 -4 11 8 11 27 1 23 3 26 6 11 2 -13 8 -23 13 -23 4 0 6 9
3 20 -5 19 0 20 89 20 126 0 249 11 242 21 -3 5 1 9 8 9 8 0 23 7 34 16 17 14
17 15 1 10 -10 -3 -104 -9 -209 -12 -141 -5 -189 -4 -184 5 4 6 2 11 -3 11 -6
0 -11 -5 -11 -11 0 -6 -20 -9 -49 -7 -27 2 -47 6 -44 10 2 5 -1 8 -6 8 -6 0
-11 -5 -11 -11 0 -11 -528 -11 -535 1 -2 4 40 14 93 24 53 10 144 26 202 37
95 17 158 19 642 19 305 0 539 -4 542 -9 3 -5 -20 -15 -52 -23 -32 -8 -57 -19
-57 -27 0 -7 -11 -18 -24 -26 -22 -11 -24 -18 -22 -74 2 -40 -1 -61 -9 -61 -7
0 -5 -6 4 -16 9 -8 16 -25 16 -36 0 -20 3 -20 178 -14 97 3 339 8 537 11 198
3 420 8 493 11 85 4 132 2 132 -4 0 -10 22 -10 70 1 28 7 403 14 1070 22 245
3 507 8 583 11 75 3 137 1 137 -3 0 -5 -27 -32 -60 -61 -36 -32 -60 -61 -60
-73 0 -13 -10 -24 -30 -30 l-30 -11 0 -84 c0 -60 4 -84 13 -84 6 0 4 -5 -5
-11 -10 -5 -18 -15 -18 -20 0 -6 4 -8 8 -5 5 3 15 -74 21 -172 7 -97 14 -178
14 -179 2 -2 122 -5 155 -4 12 1 22 6 22 12 0 5 -4 8 -9 4 -5 -3 -41 -2 -79 1
l-70 7 -6 51 c-3 28 -8 104 -12 169 -6 112 -6 117 13 117 23 0 55 25 71 57 18
33 -7 36 -40 5 -23 -21 -30 -23 -43 -12 -12 10 -13 24 -8 69 7 59 9 62 128
164 17 14 27 28 24 31 -3 4 -23 -10 -43 -29 -21 -19 -42 -35 -49 -35 -13 0 94
99 108 99 6 1 3 -3 -5 -9 -8 -5 -11 -12 -7 -17 12 -11 24 14 23 45 l-1 27
-145 0 c-168 0 -1303 -17 -1370 -21 -25 -1 -124 -3 -220 -3 -207 -2 -1052 -18
-1296 -26 l-171 -5 -7 46 c-11 83 -8 101 25 134 17 17 46 34 63 37 38 7 66 30
66 55 0 20 -45 21 -830 7z m158 -116 c-49 -2 -127 -2 -175 0 -49 1 -9 3 87 3
96 0 136 -2 88 -3z m-670 -190 c-10 -2 -28 -2 -40 0 -13 2 -5 4 17 4 22 1 32
-1 23 -4z M9565 1404 c-101 -20 -126 -27 -121 -32 5 -5 70 7 151 28 30 8 7 11
-30 4z M4181 1393 c0 -5 4 -17 9 -28 8 -18 9 -17 9 8 1 15 -3 27 -9 27 -5 0
-10 -3 -9 -7z M9345 1355 c-38 -17 -33 -17 35 0 40 10 47 13 25 14 -16 0 -43
-6 -60 -14z M3855 1340 l-30 -8 27 -1 c15 0 30 4 33 9 3 6 5 9 3 9 -2 -1 -16
-5 -33 -9z M3730 1320 c-10 -6 -2 -7 25 -3 49 7 58 13 19 13 -16 0 -36 -5 -44
-10z M3403 1260 c0 -25 2 -35 4 -22 2 12 2 32 0 45 -2 12 -4 2 -4 -23z M3778
1273 c39 -2 105 -2 145 0 39 1 7 3 -73 3 -80 0 -112 -2 -72 -3z M9260 1244 c0
-14 4 -23 9 -20 5 3 7 15 4 26 -7 28 -13 25 -13 -6z M3793 1253 c31 -2 83 -2
115 0 31 2 5 3 -58 3 -63 0 -89 -1 -57 -3z M9035 1240 c13 -6 15 -9 5 -9 -13
-1 -13 -2 0 -11 16 -10 60 -14 60 -4 0 15 -32 34 -57 33 -25 0 -26 -1 -8 -9z
M3740 1220 c-54 -7 -53 -7 25 -9 44 -1 103 -2 130 -2 79 0 82 -2 84 -63 1 -33
-3 -57 -11 -63 -19 -16 -95 -26 -102 -14 -4 6 2 8 14 6 14 -3 20 0 17 8 -3 9
-60 11 -230 8 -226 -3 -227 -3 -227 18 0 11 -5 21 -11 21 -6 0 -9 -9 -6 -20 5
-18 0 -20 -56 -19 l-62 1 52 10 c28 5 53 15 56 21 7 18 -4 77 -14 77 -5 0 -6
-16 -3 -35 4 -25 1 -35 -8 -36 -7 0 -62 -9 -123 -19 -81 -13 -99 -19 -70 -20
l40 -3 -40 -7 c-22 -4 88 -8 245 -10 213 -2 272 -5 235 -12 -43 -8 -338 -69
-402 -83 -15 -4 -23 -13 -23 -25 0 -18 -7 -20 -84 -20 -62 0 -87 4 -96 15 -10
12 -10 15 1 16 8 1 3 4 -9 8 -16 4 -28 19 -37 44 -7 21 -20 46 -29 56 -18 19
-57 25 -53 8 1 -7 -5 -10 -13 -8 -44 11 -101 17 -111 11 -6 -4 6 -11 28 -15
42 -7 90 -34 117 -64 10 -11 24 -17 32 -14 8 3 14 -1 14 -9 0 -7 8 -21 19 -30
10 -8 20 -21 22 -26 3 -7 42 -12 101 -13 75 -1 101 2 112 14 8 8 13 17 10 20
-3 2 24 12 60 21 71 17 98 20 80 8 -5 -4 -10 -17 -10 -30 0 -23 25 -36 62 -32
11 1 35 2 55 1 35 -1 37 -3 40 -39 l4 -37 -37 4 c-21 1 -38 6 -38 10 0 8 -156
5 -170 -4 -6 -3 -10 3 -10 17 0 18 -2 20 -10 8 -8 -13 -10 -12 -12 5 -1 11 -4
-9 -7 -45 l-6 -65 -35 2 c-19 1 -83 5 -142 8 -98 7 -108 6 -108 -10 0 -9 -6
-15 -12 -12 -9 2 -13 25 -13 65 0 33 -3 64 -7 68 -5 4 -8 20 -8 36 0 15 -4 28
-10 28 -5 0 -10 9 -10 19 0 21 -57 74 -70 66 -8 -5 4 -26 38 -60 6 -8 12 -21
12 -29 0 -9 5 -16 11 -16 8 0 10 -12 6 -36 -4 -20 -1 -44 6 -54 6 -11 9 -21 7
-23 -15 -14 -264 -23 -350 -13 -94 11 -95 11 -101 41 -10 48 -10 163 1 170 5
3 7 12 3 20 -6 17 -49 20 -86 6 -20 -8 -23 -14 -18 -43 5 -29 6 -30 9 -8 5 28
18 40 47 40 18 0 20 -5 17 -68 -2 -38 1 -91 5 -118 10 -53 7 -78 -8 -68 -5 3
-9 -2 -9 -11 0 -10 5 -13 12 -9 8 5 9 2 5 -9 -6 -16 13 -17 227 -17 l234 0 11
28 c10 26 10 26 8 2 -1 -19 3 -26 21 -28 14 -2 29 4 38 15 10 13 14 14 12 3
-3 -12 13 -16 85 -18 48 -1 110 1 137 6 27 5 47 5 44 1 -10 -16 67 -9 83 7 12
12 28 14 67 10 112 -13 486 -18 486 -7 0 7 -32 11 -92 12 -76 1 -87 3 -63 11
17 5 35 10 42 10 7 1 10 5 7 9 -2 4 3 12 12 17 15 8 14 10 -2 16 -11 4 -62 10
-114 13 -52 2 -101 6 -107 8 -7 3 -13 18 -13 36 l0 31 338 -5 c185 -3 338 -6
340 -6 1 -1 2 -11 3 -23 0 -13 3 -17 6 -10 2 6 9 10 14 6 5 -3 9 2 9 10 0 9 3
16 8 17 4 0 43 1 87 1 50 1 88 6 100 15 17 11 -1 13 -135 14 -1147 6 -1104 -1
-570 90 123 21 191 37 203 48 15 15 16 27 10 86 l-8 70 -100 0 c-55 1 -125 -2
-155 -5z m-35 -190 c-16 -4 -39 -8 -50 -8 -16 0 -15 2 5 8 14 4 36 8 50 8 22
0 22 -1 -5 -8z m-78 -212 c102 2 100 -14 -2 -22 -117 -9 -265 6 -265 26 0 8
28 9 98 3 53 -5 129 -8 169 -7z m-1068 -32 c-12 -10 -79 -16 -79 -6 0 5 19 10
42 10 23 0 39 -2 37 -4z m356 -17 c2 -9 -2 -16 -9 -16 -173 -12 -316 -14 -316
-5 0 6 -8 13 -17 16 -10 2 -1 2 20 -1 29 -4 36 -2 32 8 -4 12 21 14 141 14
126 0 147 -2 149 -16z m443 2 c-4 -18 -48 -28 -48 -11 0 6 -4 8 -10 5 -5 -3
-7 0 -4 8 7 20 66 18 62 -2z m362 4 c0 -9 -9 -15 -22 -14 -17 1 -19 2 -5 6 9
2 17 9 17 14 0 5 2 9 5 9 3 0 5 -7 5 -15z m-227 -2 c-13 -2 -33 -2 -45 0 -13
2 -3 4 22 4 25 0 35 -2 23 -4z m127 -7 c0 -9 -40 -13 -46 -5 -3 5 6 9 20 9 14
0 26 -2 26 -4z m-1041 -22 c2 -2 -19 -4 -47 -4 -30 0 -52 4 -52 11 0 9 87 3
99 -7z m591 6 c11 -7 -1 -9 -40 -9 -50 2 -52 2 -20 9 19 4 37 8 40 9 3 0 12
-4 20 -9z M9499 1204 c-9 -11 -9 -15 -2 -10 9 5 11 2 7 -8 -7 -18 -25 -22 -21
-5 1 6 -4 14 -10 16 -7 3 -13 0 -13 -6 0 -6 -10 -11 -22 -11 -40 0 -102 -21
-88 -30 10 -6 9 -9 -1 -13 -8 -3 28 -6 79 -6 83 -1 113 8 80 23 -7 3 -3 3 10
0 16 -4 22 -1 22 10 0 9 -5 16 -11 16 -5 0 -8 4 -5 8 2 4 1 14 -3 20 -6 10
-11 9 -22 -4z M9260 1182 c0 -18 -4 -31 -9 -28 -5 3 -11 -3 -14 -14 -4 -17 -1
-19 21 -14 21 4 24 3 12 -5 -13 -10 -13 -11 0 -11 8 1 23 12 34 26 18 26 18
26 -3 19 -16 -5 -21 -2 -21 12 0 10 -5 25 -10 33 -7 11 -10 7 -10 -18z M0
1175 c0 -15 4 -24 10 -20 5 3 10 12 10 20 0 8 -4 17 -10 20 -6 4 -10 -5 -10
-20z M8858 1143 c12 -2 30 -2 40 0 9 3 -1 5 -23 4 -22 0 -30 -2 -17 -4z
M11775 1139 c-82 -4 -265 -8 -405 -9 -260 -3 -288 -7 -319 -44 -7 -9 -17 -13
-22 -10 -5 3 -9 -2 -9 -11 0 -8 -7 -18 -15 -21 -8 -4 -12 -10 -9 -15 3 -5 0
-9 -6 -9 -6 0 -8 -4 -5 -10 3 -5 2 -10 -2 -10 -5 0 -7 -17 -6 -37 1 -21 4 -77
6 -125 3 -80 2 -86 -14 -77 -36 19 -49 11 -49 -31 l0 -40 44 0 c27 0 48 6 56
15 17 21 4 32 -20 17 -27 -17 -60 -15 -60 3 0 11 7 14 24 9 34 -8 39 13 38
141 -1 73 1 103 7 90 9 -19 10 -19 10 4 1 13 18 40 41 63 44 44 49 54 24 44
-14 -5 -15 -4 -5 8 18 22 59 25 486 36 372 10 494 16 505 27 3 3 -29 3 -70 1
-41 -1 -142 -6 -225 -9z M11665 1070 l-30 -8 33 -1 c17 0 32 4 32 9 0 6 -1 9
-2 9 -2 -1 -16 -5 -33 -9z M12260 1075 c0 -3 9 -32 20 -64 15 -47 21 -98 26
-247 3 -104 7 -201 8 -216 2 -16 3 -44 4 -63 l2 -35 85 0 c50 0 85 4 85 10 0
6 -33 10 -80 10 l-80 0 -1 83 c-1 45 -2 102 -3 127 l-1 45 75 6 c50 4 77 2 82
-5 4 -6 8 -33 8 -61 0 -85 12 -185 22 -185 9 0 1 269 -9 279 -2 3 -43 4 -92 2
l-88 -2 -6 113 c-4 83 -12 126 -27 161 -19 42 -30 58 -30 42z M11152 1060
c-38 -4 -59 -12 -77 -31 -23 -23 -24 -25 -6 -25 11 0 18 2 16 5 -7 7 39 28 76
34 19 4 111 7 204 8 94 0 188 4 210 8 45 9 -340 9 -423 1z M10717 1053 c-6 -5
3 -43 10 -43 6 0 33 27 33 33 0 7 -38 16 -43 10z M12014 1025 c-17 -19 -28
-35 -25 -35 10 0 61 50 61 60 0 15 -2 13 -36 -25z M12172 1053 c-10 -4 -8 -11
9 -29 24 -25 37 -86 38 -170 1 -28 7 -59 16 -70 13 -17 14 -12 9 56 -12 160
-35 227 -72 213z M9419 1029 c-8 -5 -9 -9 -4 -9 6 0 10 -15 9 -32 -1 -37 4
-58 16 -58 5 0 6 10 3 23 -4 18 -3 19 6 7 10 -13 15 -8 12 13 0 4 6 7 15 7 8
0 13 4 10 9 -4 5 0 12 6 14 7 3 -3 6 -22 6 -23 1 -30 4 -22 10 11 7 11 9 -1
14 -7 3 -20 1 -28 -4z M10754 1001 c-2 -2 -4 -28 -4 -56 0 -31 -5 -57 -13 -63
-8 -7 -13 -29 -11 -54 1 -24 2 -64 3 -90 l1 -48 61 0 c83 0 93 11 87 101 -5
66 6 98 15 42 3 -23 4 -21 6 9 0 20 -4 40 -10 43 -6 5 -8 26 -4 60 l7 53 -67
4 c-37 1 -69 1 -71 -1z m110 -35 c-2 -6 -6 -61 -8 -122 -2 -61 -7 -117 -11
-123 -8 -15 -77 -11 -87 4 -14 19 -9 85 6 85 14 0 66 54 66 69 0 16 -38 8 -43
-10 -5 -20 -27 -27 -27 -8 0 5 -6 7 -12 3 -7 -4 -5 2 5 13 10 12 17 36 17 62
l0 42 49 -2 c30 -2 47 -7 45 -13z M10179 987 c6 -8 8 -17 4 -20 -3 -4 -3 -7 1
-7 7 0 36 25 36 32 0 2 -12 5 -26 6 -21 2 -24 -1 -15 -11z M6320 979 c-14 -6
-68 -19 -120 -29 -281 -54 -326 -63 -334 -71 -19 -17 40 -9 275 39 168 34 235
44 232 35 -3 -7 -11 -14 -19 -14 -33 -3 -61 -18 -68 -35 -4 -10 -2 -13 7 -8 8
6 8 3 -1 -8 -8 -9 -25 -18 -40 -20 -25 -3 -26 -6 -23 -50 2 -39 -3 -54 -25
-85 -43 -58 -43 -58 -57 -39 -13 18 -17 18 -95 1 -78 -17 -82 -19 -82 -45 0
-19 -6 -29 -20 -33 -16 -4 -20 0 -20 19 0 19 -5 24 -24 24 -13 0 -29 -7 -36
-15 -7 -8 -20 -15 -29 -16 -11 0 -12 -2 -3 -6 7 -3 24 2 37 11 35 23 47 20 43
-11 -3 -24 0 -28 20 -25 28 2 52 24 52 46 0 14 17 21 103 40 20 5 29 2 33 -9
9 -22 47 -18 64 6 8 11 25 35 38 52 15 21 22 45 22 74 0 35 3 43 18 43 21 0
52 29 52 48 0 7 10 12 23 12 62 0 93 73 32 77 -16 1 -41 -2 -55 -8z M9320 981
c-8 -6 -17 -8 -21 -5 -4 2 -13 -4 -20 -13 -12 -14 -12 -15 0 -9 8 6 7 -1 -5
-18 -25 -39 -26 -166 -1 -190 12 -13 17 -32 15 -69 l-1 -52 -6 50 -7 50 -4
-58 c-5 -64 3 -80 25 -51 10 13 13 36 10 74 -14 159 -14 184 2 218 9 18 27 38
40 43 14 5 31 16 39 24 14 13 12 15 -18 15 -18 0 -40 -4 -48 -9z M5330 969 c0
-4 -39 -7 -87 -8 -124 -3 -116 -11 13 -13 l109 -2 -100 -6 -100 -6 85 -1 c47
-1 137 2 200 6 127 9 129 9 209 -57 23 -19 41 -29 41 -23 0 6 20 11 48 11 34
0 43 3 32 10 -8 5 -33 10 -56 10 -31 0 -46 6 -65 26 -44 47 -71 55 -204 57
-69 1 -125 -1 -125 -4z M8488 963 c17 -2 47 -2 65 0 17 2 3 4 -33 4 -36 0 -50
-2 -32 -4z M2400 942 c0 -16 -6 -17 -57 -11 -32 4 -71 7 -88 7 l-30 0 30 -8
c17 -4 54 -8 83 -9 l52 -1 1 -42 c0 -24 4 -61 8 -83 l9 -40 3 45 c2 45 2 45 8
-13 3 -31 11 -56 16 -55 6 2 8 7 6 13 -2 6 -5 42 -7 80 -2 39 -6 85 -10 103
-7 34 -24 44 -24 14z m19 -75 c1 -5 -3 -5 -9 -2 -5 3 -10 16 -9 28 0 21 1 21
9 2 5 -11 9 -24 9 -28z M5023 953 c9 -2 25 -2 35 0 9 3 1 5 -18 5 -19 0 -27
-2 -17 -5z M7575 950 c-5 -9 284 -3 294 6 2 2 -61 4 -142 4 -84 0 -148 -4
-152 -10z M8850 935 c-1 -5 -4 -32 -6 -60 -6 -78 -12 -94 -44 -110 -34 -18
-44 -19 -35 -5 3 6 3 10 -2 10 -23 -1 -31 -22 -35 -88 -3 -64 -1 -72 15 -72
14 0 16 6 12 28 -3 15 -2 20 2 12 14 -32 32 -40 85 -38 l53 1 -50 6 -50 6 -3
55 -3 55 43 13 c29 9 44 10 46 3 2 -6 8 -11 13 -11 12 0 12 40 -1 41 -5 1 -16
2 -22 3 -7 0 -14 15 -15 31 l-2 30 9 -30 8 -30 0 35 c1 38 -14 132 -18 115z
m-73 -247 c-2 -13 -4 -5 -4 17 -1 22 1 32 4 23 2 -10 2 -28 0 -40z M9126 915
c-7 -29 -32 -33 -39 -7 -3 10 -5 6 -6 -11 0 -15 -8 -30 -16 -33 -12 -5 -12 -8
0 -20 7 -8 19 -14 26 -14 27 0 38 -36 39 -118 0 -87 16 -108 19 -25 2 65 6 84
16 81 4 -2 7 -28 6 -58 -1 -30 3 -62 9 -70 8 -11 10 -1 8 39 -2 48 1 56 21 65
17 7 25 6 32 -5 7 -11 9 -8 9 10 0 20 -4 23 -27 18 -35 -6 -52 15 -54 68 -1
22 -5 54 -10 70 -6 22 -7 10 -6 -42 2 -40 0 -73 -4 -73 -10 0 -19 86 -13 120
8 36 -1 40 -10 5z M5357 903 c-14 -14 -6 -20 19 -15 19 3 22 7 12 13 -16 11
-23 11 -31 2z M5454 899 c-3 -5 6 -9 20 -9 14 0 27 4 30 9 3 5 -6 9 -19 9 -14
0 -28 -4 -31 -9z M11010 857 c0 -31 5 -59 11 -63 7 -4 9 11 4 52 -10 77 -15
81 -15 11z M8348 894 c-3 -3 -3 -14 -1 -25 5 -19 7 -19 24 -3 11 9 19 21 19
26 0 9 -33 11 -42 2z M1895 880 c-28 -7 -28 -8 -5 -9 14 0 32 4 40 9 17 11 8
11 -35 0z M5582 883 c-8 -3 -3 -12 14 -25 33 -26 41 -49 53 -148 11 -84 30
-140 31 -89 0 14 3 29 7 33 4 4 6 41 4 82 -2 48 1 74 8 74 6 0 11 8 11 18 0
14 -2 14 -9 3 -8 -12 -14 -10 -33 11 -26 28 -67 47 -86 41z M10357 803 c5
-100 9 -117 23 -108 6 4 8 11 4 16 -3 5 0 8 8 7 14 -3 14 0 2 97 l-8 60 -7
-45 -6 -45 -2 40 c-1 22 -5 46 -9 53 -5 7 -7 -27 -5 -75z M1825 870 l-30 -8
33 -1 c17 0 32 4 32 9 0 6 -1 9 -2 9 -2 -1 -16 -5 -33 -9z M4513 815 c0 -27 2
-38 4 -22 2 15 2 37 0 50 -2 12 -4 0 -4 -28z M4892 835 c-6 -14 -8 -25 -3 -25
4 0 13 11 19 25 6 14 8 25 3 25 -4 0 -13 -11 -19 -25z M2683 843 c9 -2 25 -2
35 0 9 3 1 5 -18 5 -19 0 -27 -2 -17 -5z M2670 814 c0 -15 18 -18 44 -8 25 10
19 19 -14 20 -19 1 -30 -4 -30 -12z M8486 820 c14 -19 23 -68 25 -143 3 -62
11 -76 33 -55 9 9 12 31 9 68 -5 66 -17 117 -25 110 -3 -3 -16 4 -29 15 -13
11 -19 13 -13 5z M11525 819 c-215 -5 -186 -5 167 -5 235 1 419 4 410 8 -18 7
-150 7 -577 -3z M7640 805 c-6 -8 -10 -20 -7 -27 3 -9 7 -6 13 7 4 11 12 23
18 27 8 5 8 8 0 8 -6 0 -17 -7 -24 -15z M8948 809 c-13 -8 -12 -112 2 -169 6
-27 8 -14 9 58 l1 93 75 -2 c71 -2 105 5 74 15 -25 8 -149 12 -161 5z M11112
795 c-16 -13 -32 -22 -35 -19 -11 11 -23 -32 -17 -61 l5 -30 40 53 c22 30 54
60 70 67 l30 13 -32 1 c-20 1 -42 -8 -61 -24z M10572 790 c-7 -12 -17 -18 -22
-15 -6 3 -10 1 -10 -4 0 -7 -23 -11 -54 -11 -57 0 -66 -7 -58 -47 4 -22 9 -23
89 -23 100 0 113 8 113 74 0 41 -2 46 -23 46 -12 0 -28 -9 -35 -20z m36 -42
c-3 -32 -4 -33 -53 -35 -60 -2 -105 5 -105 18 0 5 20 8 45 7 33 -1 53 5 73 20
37 29 44 27 40 -10z M12190 769 c0 -5 5 -7 10 -4 6 3 10 0 10 -8 0 -21 26 -41
35 -27 4 6 1 9 -6 8 -7 -2 -14 3 -15 10 -1 6 -2 17 -3 22 -1 13 -31 13 -31 -1z
M5716 762 c-3 -5 -1 -30 3 -58 l9 -49 1 58 c1 55 -2 66 -13 49z M8573 723 c4
-21 7 -55 7 -75 l0 -38 45 0 c25 0 45 5 45 10 0 6 -16 10 -35 10 -27 0 -35 4
-35 18 0 9 -3 34 -6 55 l-7 37 42 0 41 0 0 -49 c0 -28 5 -53 11 -56 7 -5 9 14
7 57 l-3 63 -59 3 -59 3 6 -38z M11137 754 c-16 -16 -5 -23 26 -17 46 8 53 19
14 21 -18 1 -36 -1 -40 -4z M11373 753 c9 -2 25 -2 35 0 9 3 1 5 -18 5 -19 0
-27 -2 -17 -5z M4971 741 c-7 -5 -22 -6 -33 -3 -11 3 -23 1 -27 -5 -3 -5 -143
-44 -311 -86 -351 -89 -419 -96 -461 -51 -53 57 -83 64 -265 64 -92 0 -165 -2
-162 -5 3 -3 71 -8 152 -10 161 -6 194 -14 243 -63 30 -30 35 -31 119 -33 49
-1 96 1 104 5 8 3 141 38 295 76 267 68 371 88 359 69 -3 -5 -14 -9 -25 -9
-10 0 -19 -5 -19 -11 0 -7 -10 -9 -26 -5 -18 5 -24 3 -19 -5 5 -7 1 -9 -11 -7
-11 3 -33 -4 -51 -14 -20 -12 -34 -15 -38 -9 -4 7 -12 6 -25 -1 -14 -9 -16
-14 -7 -20 9 -6 8 -8 -3 -8 -10 0 -9 -4 5 -14 20 -14 42 -17 38 -5 -1 3 10 5
25 3 14 -1 33 2 40 8 7 7 32 13 55 15 l42 3 -30 -14 c-16 -7 -35 -11 -41 -9
-15 5 -22 -35 -13 -67 4 -14 7 -40 8 -57 1 -26 5 -33 20 -33 11 0 22 6 25 13
3 6 5 -9 4 -35 -1 -26 1 -50 5 -54 4 -4 6 -23 6 -43 l-1 -36 -8 30 -8 30 -1
-32 c0 -17 -5 -34 -10 -37 -10 -7 -3 -44 12 -63 10 -14 31 -7 22 8 -4 5 6 4
21 -1 14 -6 43 -8 63 -5 l36 5 -35 -11 c-19 -6 -40 -16 -45 -24 -14 -17 -59
-8 -81 16 -9 10 -23 19 -29 19 -15 0 -28 -27 -16 -34 7 -5 21 -102 24 -168 1
-10 8 -18 15 -18 11 0 13 9 8 32 -3 18 -8 56 -12 84 -6 51 -6 52 19 47 24 -5
26 -10 32 -84 5 -51 11 -79 19 -79 9 0 10 19 4 77 -5 42 -6 78 -3 81 12 13 20
-15 23 -84 3 -53 8 -74 17 -74 10 0 12 10 10 33 -2 17 -6 58 -9 89 -4 55 -3
58 20 64 13 3 66 0 117 -7 l92 -14 9 -82 c11 -114 30 -109 21 5 -4 48 -9 90
-12 95 -2 4 -28 8 -56 9 l-52 1 55 6 55 6 -105 19 c-58 10 -117 18 -131 17
-16 -1 -26 4 -26 13 0 8 6 12 14 9 8 -3 23 3 33 12 11 10 23 15 27 12 3 -4 0
-7 -8 -8 -8 0 -5 -4 7 -9 22 -9 274 28 274 41 0 12 -190 -17 -225 -34 -18 -9
-19 -9 -5 8 14 17 13 17 -10 11 -14 -3 -7 3 15 13 22 11 47 20 55 21 12 0 10
4 -5 16 -23 17 -34 104 -13 104 25 0 188 55 188 63 0 5 -8 6 -17 3 -10 -4 -51
-16 -93 -27 -41 -11 -83 -22 -92 -25 -14 -4 -16 3 -16 51 1 30 -1 57 -3 60 -3
2 -49 5 -104 6 -95 2 -108 15 -20 20 l40 2 -40 7 c-31 6 -19 7 51 9 126 2 305
13 300 19 -3 2 -108 4 -233 4 -154 0 -216 3 -190 9 47 11 67 30 67 63 0 29
-10 38 -29 27z m-15 -214 c-1 -18 3 -35 8 -39 7 -5 4 -8 -6 -8 -10 0 -18 6
-18 14 0 7 -3 28 -6 45 -5 25 -4 30 8 26 10 -4 15 -18 14 -38z m155 26 c0 -5
2 -24 4 -43 4 -43 -6 -50 -72 -50 l-53 0 0 34 c0 19 -3 41 -6 50 -5 14 4 16
60 16 36 0 66 -3 67 -7z m-141 -108 c0 -14 5 -25 10 -25 6 0 10 5 10 10 0 6
23 10 51 10 34 0 48 -4 43 -11 -4 -7 0 -9 14 -5 22 7 34 -16 37 -70 1 -27 -2
-30 -22 -26 -13 2 -30 -1 -38 -8 -10 -9 -15 -9 -15 -1 0 6 -7 11 -16 11 -14 0
-14 -3 -4 -15 7 -9 10 -18 6 -22 -3 -3 -6 -1 -6 7 0 10 -3 10 -15 0 -8 -7 -15
-9 -15 -5 0 5 -9 0 -20 -10 -16 -14 -20 -15 -21 -4 -1 8 -3 30 -4 50 -1 19 -5
59 -9 87 -4 32 -2 52 4 52 5 0 10 -11 10 -25z M4974 388 c3 -13 5 -33 5 -45 1
-13 5 -23 10 -23 5 0 8 11 5 25 -4 21 0 25 18 25 19 0 20 2 8 10 -13 9 -13 10
0 11 10 0 8 3 -5 9 -34 15 -45 11 -41 -12z M5058 393 c12 -2 30 -2 40 0 9 3
-1 5 -23 4 -22 0 -30 -2 -17 -4z M5063 373 c15 -2 37 -2 50 0 12 2 0 4 -28 4
-27 0 -38 -2 -22 -4z M12155 730 c6 -18 2 -20 -42 -21 -80 -2 -80 -2 -67 -42
7 -23 -25 -62 -39 -48 -7 7 -2 17 14 30 13 11 19 20 12 21 -6 0 -25 -14 -42
-31 -32 -31 -43 -51 -16 -29 8 6 19 9 24 5 6 -3 -20 -32 -58 -64 -89 -77 -89
-90 3 -93 140 -5 236 -3 236 5 0 9 -14 10 -224 15 l-68 2 38 35 c22 19 58 50
81 68 24 17 48 46 55 64 12 32 37 43 99 43 32 0 39 21 15 46 -20 20 -28 17
-21 -6z M2115 719 c-102 -22 -125 -29 -109 -36 7 -2 49 6 95 18 46 12 131 25
189 29 l105 7 -95 0 c-57 1 -131 -7 -185 -18z M3440 729 c-21 -6 -22 -7 -5 -9
l20 -1 -20 -9 c-18 -8 -18 -9 5 -9 22 0 60 19 60 30 0 7 -33 6 -60 -2z M9382
688 c-1 -16 -6 -28 -12 -28 -5 0 -19 -9 -30 -20 -11 -11 -15 -20 -9 -20 5 0 7
-5 3 -12 -5 -8 -2 -9 10 -5 10 4 31 7 47 7 29 0 40 15 17 23 -7 2 -3 2 10 0
12 -2 22 1 22 7 0 5 -11 10 -24 10 -20 0 -25 6 -29 33 -3 29 -4 29 -5 5z M970
674 c-69 -13 -135 -22 -147 -20 -12 2 -20 -1 -17 -5 3 -5 -2 -9 -10 -9 -9 0
-16 -4 -16 -10 0 -5 1 -10 3 -10 1 0 87 16 190 35 l189 34 341 -6 c188 -3 340
-3 337 0 -3 3 -171 7 -375 10 -361 5 -373 5 -495 -19z M1855 680 c-4 -6 21
-10 66 -10 40 0 70 2 68 4 -11 9 -129 15 -134 6z M5235 681 c17 -3 95 -4 175
0 l145 5 -175 1 c-96 1 -161 -2 -145 -6z M7990 664 c-80 -32 -88 -38 -83 -69
l5 -24 52 20 c56 22 62 26 54 34 -3 3 -24 -2 -47 -10 -61 -21 -48 3 14 26 27
10 56 25 64 34 19 19 20 19 -59 -11z M9465 662 c-6 -4 -11 -18 -13 -32 l-3
-25 128 3 c70 1 129 5 132 7 2 3 -19 5 -47 5 -48 0 -68 12 -39 23 6 3 -20 6
-58 6 -39 1 -75 5 -81 11 -5 5 -14 6 -19 2z m113 -29 c-10 -2 -28 -2 -40 0
-13 2 -5 4 17 4 22 1 32 -1 23 -4z M3460 636 c0 -10 9 -17 23 -17 12 -1 4 -5
-18 -9 l-40 -7 50 -2 c28 0 75 -4 105 -7 39 -4 51 -3 40 5 -11 7 0 11 40 14
40 2 28 4 -45 7 l-100 4 100 6 100 6 -112 2 c-61 1 -118 5 -127 8 -11 4 -16 1
-16 -10z M5495 640 c3 -5 13 -10 21 -10 8 0 12 5 9 10 -3 6 -13 10 -21 10 -8
0 -12 -4 -9 -10z M5575 629 c-4 -6 1 -16 10 -23 11 -7 19 -31 22 -57 3 -24 6
-55 8 -69 2 -14 7 -58 11 -98 4 -41 13 -79 20 -86 7 -7 15 -24 18 -37 2 -13 3
22 0 79 -3 63 -1 102 5 102 16 0 21 -30 20 -122 -1 -93 -16 -127 -39 -91 -9
15 -10 14 -4 -7 3 -14 15 -34 25 -45 19 -19 19 -19 19 5 0 19 3 22 9 11 7 -11
11 -6 14 20 2 19 5 -22 5 -90 1 -68 5 -121 9 -118 6 6 4 189 -2 277 -2 19 -4
60 -6 90 l-2 55 -7 -50 c-6 -40 -7 -34 -5 29 2 44 0 74 -5 66 -6 -10 -9 -8
-13 6 -4 16 -5 16 -6 -3 0 -13 -5 -23 -10 -23 -11 0 -21 50 -21 107 0 35 -3
44 -14 40 -11 -4 -13 -1 -9 10 4 10 2 14 -4 10 -6 -4 -13 0 -17 8 -6 17 -22
20 -31 4z m62 -126 c-3 -10 -5 -2 -5 17 0 19 2 27 5 18 2 -10 2 -26 0 -35z
m10 -115 c-2 -13 -4 -5 -4 17 -1 22 1 32 4 23 2 -10 2 -28 0 -40z M5760 621
c0 -4 11 -6 25 -3 14 2 25 6 25 8 0 2 -11 4 -25 4 -14 0 -25 -4 -25 -9z M9008
613 c12 -2 32 -2 45 0 12 2 2 4 -23 4 -25 0 -35 -2 -22 -4z M9203 613 c9 -2
25 -2 35 0 9 3 1 5 -18 5 -19 0 -27 -2 -17 -5z M2892 593 c-7 -3 -52 -13 -100
-23 -58 -12 -86 -22 -84 -31 3 -13 -15 -29 -33 -29 -5 0 -3 5 5 10 20 13 4 13
-21 0 -13 -7 -19 -7 -19 0 0 6 -24 10 -55 10 -30 0 -55 -4 -55 -10 0 -5 -15
-10 -34 -10 -33 0 -56 -23 -36 -35 6 -4 10 0 10 8 0 11 23 14 122 13 99 -1
123 2 123 13 0 19 19 27 90 40 33 6 70 14 81 17 16 4 23 0 27 -17 6 -21 9 -22
81 -15 42 4 76 3 76 -1 0 -4 28 -9 61 -10 34 -1 65 -5 70 -10 4 -4 12 -45 17
-90 6 -51 16 -88 26 -98 9 -9 15 -26 15 -38 -1 -20 -2 -20 -6 -3 -7 25 -23 42
-51 50 -14 5 -25 18 -29 36 -4 23 -10 28 -33 28 -15 -1 -32 2 -39 6 -6 4 -11
3 -11 -3 0 -6 -13 -9 -30 -7 -26 3 -29 0 -28 -20 1 -13 8 -24 14 -24 19 0 64
26 57 33 -3 4 1 7 10 7 20 0 23 -40 7 -71 -8 -14 -7 -19 1 -19 8 0 8 -4 -1
-15 -9 -10 -9 -15 -1 -15 7 0 11 -25 11 -69 0 -38 3 -84 8 -102 6 -27 8 -16
13 56 l6 90 0 -118 c0 -64 3 -120 7 -124 5 -5 12 246 7 283 -1 8 10 9 31 5 33
-7 33 -7 44 -89 10 -78 23 -116 25 -76 1 10 7 -15 14 -56 7 -44 13 -61 14 -42
1 40 28 44 34 5 2 -16 2 15 -2 67 -3 52 -6 115 -6 140 l0 45 39 3 c35 3 38 2
26 -13 -7 -8 -10 -19 -6 -23 4 -4 16 4 27 16 18 24 20 24 121 13 57 -6 187
-11 290 -11 103 0 195 -3 205 -6 25 -9 83 -72 83 -91 0 -8 -6 -13 -13 -10 -7
3 -32 2 -55 -3 -37 -6 -42 -5 -42 11 0 15 8 19 39 19 22 0 42 4 45 9 7 11 -62
18 -110 13 -33 -4 -34 -5 -34 -52 0 -27 -4 -59 -9 -72 -10 -27 -3 -88 11 -88
5 0 9 12 8 28 -1 15 -2 58 -1 95 1 69 13 83 25 27 5 -27 8 -30 25 -20 11 5 36
10 55 10 31 0 36 -3 36 -24 0 -17 -7 -26 -25 -30 -14 -4 -31 -4 -37 0 -7 5 -8
2 -3 -6 6 -10 3 -12 -12 -8 -22 6 -53 -7 -53 -23 0 -6 5 -7 10 -4 6 4 10 -5
10 -19 0 -19 5 -26 19 -26 11 0 22 6 24 13 4 10 6 10 6 0 1 -18 21 -16 21 2 0
8 8 15 18 16 10 0 12 3 5 6 -18 7 -16 23 2 23 9 0 18 7 21 15 9 22 27 18 21
-5 -3 -11 -1 -23 4 -26 5 -3 9 -14 9 -25 0 -21 16 -26 23 -6 4 10 6 10 6 0 1
-7 13 -13 27 -13 25 0 26 2 20 43 -3 23 -8 65 -11 92 -12 117 -17 153 -26 210
-5 33 -9 76 -9 96 0 39 -34 94 -52 83 -7 -4 -8 -2 -4 5 12 19 -11 38 -43 36
-21 -1 -28 2 -24 12 3 7 1 13 -4 13 -19 0 -9 -32 12 -42 13 -6 33 -28 45 -51
23 -41 29 -65 34 -149 1 -27 5 -51 9 -54 4 -4 4 -18 1 -31 -4 -13 -1 -29 5
-37 7 -8 11 -29 10 -47 -1 -19 1 -59 6 -89 4 -30 5 -53 2 -50 -7 7 -15 48 -23
125 -7 63 -28 110 -45 100 -5 -4 -8 -1 -7 5 4 16 -19 17 -307 20 -245 3 -455
17 -455 31 0 4 8 14 18 21 17 12 18 21 10 92 -6 62 -5 85 6 107 8 16 11 29 6
29 -19 0 -28 -31 -29 -115 -2 -87 -13 -121 -34 -108 -5 3 -7 1 -4 -4 4 -6 0
-13 -8 -17 -12 -4 -15 4 -16 42 -1 26 -3 61 -4 77 -1 17 -2 42 -3 58 -2 35
-22 36 -22 0 0 -33 -5 -28 -13 15 -5 27 -3 32 12 32 10 0 24 7 31 15 9 11 34
15 93 15 44 0 78 2 76 5 -3 2 -37 7 -77 11 -71 6 -132 -6 -132 -27 0 -5 -66
-9 -146 -9 -126 0 -145 2 -140 15 3 8 2 15 -2 16 -4 0 -14 2 -22 3 -8 2 -21 1
-28 -1z m410 -337 c2 -19 0 -32 -4 -30 -8 5 -12 64 -4 64 2 0 6 -15 8 -34z
m-35 -73 c-3 -10 -5 -2 -5 17 0 19 2 27 5 18 2 -10 2 -26 0 -35z m20 -15 c-2
-13 -4 -5 -4 17 -1 22 1 32 4 23 2 -10 2 -28 0 -40z m22 -5 c-1 -27 2 -56 6
-66 4 -10 5 -21 1 -24 -3 -4 -6 -1 -6 6 0 7 -5 9 -12 5 -8 -5 -9 2 -5 26 4 18
7 48 7 66 0 19 3 34 6 34 3 0 5 -21 3 -47z m868 -70 c-3 -10 -5 -2 -5 17 0 19
2 27 5 18 2 -10 2 -26 0 -35z M9983 566 c-23 -13 -45 -21 -49 -18 -4 4 -4 1 0
-5 4 -8 1 -13 -8 -13 -17 0 -48 -42 -52 -69 -12 -76 -14 -149 -7 -222 10 -100
5 -109 -59 -109 -31 0 -39 3 -28 10 12 8 10 10 -10 11 -14 1 -31 2 -37 2 -7
-1 -13 4 -13 11 0 8 -2 8 -8 0 -12 -19 -2 -166 11 -161 6 2 10 25 8 58 l-2 55
65 -4 c99 -6 100 -5 93 158 -3 74 -3 129 0 121 3 -8 12 4 20 29 16 47 22 54
71 89 36 25 37 40 2 21 -12 -6 -24 -10 -26 -7 -2 2 16 15 41 28 25 13 45 27
45 31 0 13 -13 9 -57 -16z M10070 581 c-11 -8 48 -11 205 -11 121 -1 243 -3
270 -5 28 -2 97 0 155 4 89 7 68 8 -145 10 -137 0 -299 4 -360 7 -70 3 -115 1
-125 -5z M3858 573 c12 -2 32 -2 45 0 12 2 2 4 -23 4 -25 0 -35 -2 -22 -4z
M4825 510 c11 -132 44 -278 38 -167 l-2 42 9 -44 c13 -61 21 -74 15 -26 -2 22
-7 69 -10 105 -3 36 -9 83 -13 105 l-6 40 -7 -50 -6 -50 -2 45 c-1 25 -6 52
-12 60 -8 11 -9 -6 -4 -60z M5300 570 c0 -5 11 -10 23 -10 15 0 28 -9 35 -22
10 -22 11 -22 11 7 1 28 -2 31 -34 33 -19 2 -35 -2 -35 -8z M5402 553 c3 -32
8 -32 88 -9 l55 16 -49 -6 c-27 -3 -55 -8 -62 -11 -8 -3 -14 1 -14 10 0 10 12
17 33 20 27 3 26 4 -11 5 -42 2 -43 1 -40 -25z M5786 572 c-6 -9 1 -60 10 -74
11 -17 30 -7 41 21 9 25 8 32 -6 45 -14 13 -20 13 -31 3 -10 -9 -11 -9 -6 1 8
13 0 17 -8 4z M10828 573 c12 -2 30 -2 40 0 9 3 -1 5 -23 4 -22 0 -30 -2 -17
-4z M10923 573 c15 -2 37 -2 50 0 12 2 0 4 -28 4 -27 0 -38 -2 -22 -4z M334
545 c-10 -24 0 -32 18 -14 14 15 14 18 2 23 -8 3 -17 -1 -20 -9z M1496 552
c-3 -6 -1 -14 6 -18 12 -8 30 -10 120 -17 21 -2 41 -6 44 -10 11 -11 26 -8 19
3 -7 11 8 14 18 3 4 -4 29 -7 55 -8 68 -3 72 -4 72 -16 0 -5 -4 -8 -9 -4 -18
11 -31 -23 -38 -102 -4 -40 -1 -57 11 -69 10 -9 16 -32 16 -58 0 -24 3 -57 6
-73 6 -28 4 -30 -31 -31 -63 -2 -75 10 -75 78 0 53 2 60 20 60 14 0 20 -7 21
-22 0 -18 3 -15 13 12 13 34 12 35 -13 40 -14 3 -31 16 -38 30 -10 19 -13 21
-13 7 0 -10 -4 -15 -10 -12 -5 3 -10 2 -10 -4 0 -5 -15 -12 -32 -16 -79 -15
-127 -29 -123 -36 3 -4 22 -1 42 7 21 7 52 13 70 14 17 0 35 5 38 10 15 25 25
-7 25 -79 l0 -78 -97 -7 c-54 -4 -107 -8 -118 -8 -11 -1 -22 -5 -25 -8 -11
-14 -240 -55 -305 -55 -89 0 -284 13 -295 20 -4 3 -32 7 -62 10 -29 3 -61 8
-72 11 -13 4 -16 3 -11 -6 6 -9 4 -11 -5 -5 -7 4 -16 2 -20 -5 -6 -9 -13 -9
-28 -1 -16 9 -25 7 -44 -10 -12 -11 -17 -18 -10 -14 14 7 17 -11 2 -20 -5 -3
-10 -19 -10 -36 l0 -29 73 1 72 2 -62 10 c-35 5 -63 14 -63 18 0 12 9 11 120
-7 114 -19 540 -29 540 -13 0 6 9 8 21 4 14 -5 19 -3 15 3 -3 6 -2 13 4 17 5
3 10 1 10 -5 0 -6 5 -8 10 -5 6 3 12 0 15 -7 3 -8 20 -15 37 -16 26 -2 29 0
19 12 -19 22 -94 56 -125 56 -22 0 -25 -2 -14 -14 7 -7 19 -11 25 -9 7 3 13 0
13 -7 0 -8 -7 -10 -22 -5 -13 4 -39 9 -60 12 -30 4 -37 2 -43 -16 -3 -12 -11
-21 -16 -21 -6 0 -8 4 -4 9 7 12 -38 17 -90 11 -40 -5 -40 -5 15 -11 37 -5 24
-6 -43 -4 -99 3 -123 9 -98 24 9 6 4 8 -14 9 -16 0 -22 -4 -15 -8 29 -18 -27
-17 -205 4 -22 3 -50 5 -63 5 -30 1 -18 21 12 21 12 0 27 5 33 11 14 14 78 13
183 -1 41 -6 110 -10 153 -9 44 0 84 -4 92 -11 7 -6 24 -9 36 -6 13 2 116 23
229 46 218 45 260 47 545 25 39 -2 239 -12 445 -21 206 -9 413 -19 460 -22
l85 -7 -155 -35 c-109 -25 -145 -36 -121 -38 53 -5 321 58 331 79 9 16 -6 18
-190 24 -151 6 -200 11 -204 21 -5 12 -35 12 -55 -1 -5 -3 -87 -2 -182 1 -95
4 -164 11 -154 14 17 7 15 8 -10 12 -18 3 -6 6 29 7 64 1 73 11 13 13 -20 1
-34 5 -31 9 2 4 -12 3 -32 -3 -20 -5 -47 -7 -60 -4 -13 4 -24 2 -24 -3 0 -5
17 -11 38 -13 31 -2 33 -4 12 -8 -14 -3 -47 0 -75 7 -32 8 -38 11 -17 10 17
-2 32 0 32 5 0 4 -32 8 -71 8 -41 0 -68 4 -64 9 3 5 1 12 -5 16 -6 4 -7 11 -4
17 5 7 -2 9 -22 4 -16 -4 -31 -12 -32 -17 -2 -5 -8 -7 -13 -3 -5 3 -9 2 -8 -3
1 -4 -2 -19 -8 -33 -9 -23 -10 -21 -16 20 -9 69 -12 204 -4 216 4 7 36 15 72
19 36 3 65 11 65 16 0 5 68 10 153 11 l152 2 -185 6 c-127 4 -160 7 -105 10
44 2 103 5 130 6 28 1 115 3 194 3 79 1 142 3 139 6 -2 3 -121 5 -264 6 -211
0 -263 3 -279 15 -18 13 7 15 220 14 362 -1 409 0 403 5 -2 3 -229 8 -504 11
-299 4 -501 11 -505 17 -4 6 -9 5 -13 -1z m394 -82 c0 -5 -12 -10 -27 -9 l-28
1 25 8 c14 4 26 8 28 9 1 1 2 -3 2 -9z m118 -327 c-16 -2 -40 -2 -55 0 -16 2
-3 4 27 4 30 0 43 -2 28 -4z M6080 550 c12 -8 9 -10 -13 -10 -15 0 -39 -7 -52
-16 -14 -9 -25 -13 -25 -9 0 5 -9 0 -20 -10 -14 -13 -20 -14 -20 -5 0 7 -3 10
-6 7 -4 -4 -1 -14 7 -24 9 -11 10 -14 2 -9 -8 4 -13 2 -14 -6 0 -7 -4 -4 -9 7
-11 25 -10 -166 1 -207 4 -16 4 -28 0 -28 -7 0 -8 -45 -3 -177 2 -60 3 -63 27
-63 14 0 25 6 25 13 0 7 3 8 8 2 13 -19 32 -15 37 8 3 12 6 51 8 87 3 57 3 54
5 -22 3 -111 22 -119 22 -9 0 64 4 83 20 102 14 17 19 20 20 9 0 -12 2 -13 9
-1 7 11 61 26 61 16 0 -1 -7 -16 -15 -31 -8 -16 -15 -41 -15 -55 0 -22 -5 -26
-25 -26 -33 0 -33 0 -27 -51 5 -51 22 -56 22 -7 0 19 3 34 8 34 28 -5 38 4 40
33 2 18 9 45 17 61 8 16 12 33 9 38 -6 11 63 11 159 2 l68 -6 -5 -29 c-2 -17
0 -26 5 -22 6 4 9 -11 6 -38 l-4 -43 -69 3 c-41 2 -64 -1 -56 -6 7 -5 36 -10
64 -11 29 -1 55 -4 60 -7 4 -3 8 0 8 5 0 6 7 11 16 11 10 0 13 6 9 19 -5 15
-1 18 23 15 21 -2 36 4 52 21 13 14 18 25 11 25 -8 0 -11 10 -9 27 2 14 -2 28
-8 30 -8 3 -10 -10 -7 -42 5 -37 3 -45 -11 -45 -9 0 -16 7 -16 15 0 8 5 15 11
15 6 0 8 9 3 23 -10 32 -14 34 -30 13 -14 -19 -14 -19 -14 2 0 12 -6 23 -12
23 -7 1 1 5 17 9 18 5 -30 8 -122 9 -84 0 -153 5 -153 10 0 13 -58 19 -70 7
-18 -18 -11 16 8 37 16 19 16 19 -4 13 -19 -6 -23 -2 -28 27 -3 18 -3 49 0 68
5 26 4 31 -5 23 -8 -7 -11 -34 -9 -70 3 -51 0 -62 -21 -81 -13 -13 -20 -23
-15 -23 5 0 2 -5 -6 -10 -17 -11 -17 -12 -19 -93 -1 -66 -16 -70 -19 -5 -2 24
-7 81 -12 128 -15 129 -13 148 15 175 22 22 32 25 104 25 44 0 83 5 86 10 7
11 -2 12 -103 12 -53 0 -79 -5 -91 -16 -10 -9 -21 -16 -26 -16 -4 0 4 9 19 21
14 11 24 24 21 29 -5 7 24 21 75 36 13 3 30 13 38 20 11 12 8 14 -20 14 -25 0
-29 -3 -18 -10z m-133 -217 c-2 -16 -4 -5 -4 22 0 28 2 40 4 28 2 -13 2 -35 0
-50z M11874 538 l-19 -21 28 18 c28 18 33 25 19 25 -5 0 -17 -10 -28 -22z
M1406 530 c-27 -5 -53 -15 -58 -23 -6 -12 -27 -14 -95 -11 -79 3 -82 2 -30 -5
83 -12 84 -24 3 -19 -42 2 -71 9 -74 16 -2 7 -18 12 -36 12 -18 0 -37 5 -43
11 -15 15 -172 26 -158 11 6 -6 35 -12 65 -13 30 -1 65 -9 78 -17 12 -8 33
-12 47 -10 14 3 23 1 22 -6 -1 -7 35 -12 110 -14 102 -2 112 -1 117 16 7 20
49 32 114 32 22 0 32 4 30 13 -6 15 -30 17 -92 7z M6720 530 c0 -4 -77 -8
-172 -9 -94 0 -173 -3 -176 -6 -3 -3 101 -5 231 -5 150 0 238 4 242 10 4 7 -8
9 -32 7 -21 -2 -50 0 -65 4 -16 4 -28 4 -28 -1z M471 511 c-9 -6 -7 -10 8 -14
11 -3 25 0 30 7 12 14 -18 19 -38 7z M10045 502 c-36 -3 -54 -15 -55 -34 0 -4
12 0 28 8 16 8 56 14 96 14 38 0 67 2 65 4 -8 6 -94 12 -134 8z M10329 499
c-15 -5 -1 -7 39 -8 34 -1 62 1 62 3 0 8 -78 11 -101 5z M4356 466 c-9 -19
-16 -47 -15 -63 1 -27 1 -27 11 7 5 19 16 47 23 63 8 15 10 27 6 27 -5 0 -16
-15 -25 -34z M7010 493 c5 -2 7 -9 4 -14 -3 -6 2 -18 13 -27 31 -29 44 -50 69
-109 19 -46 24 -52 24 -30 0 15 -4 35 -9 45 -5 9 -15 31 -22 47 -15 32 -39 62
-39 48 0 -4 -6 3 -13 16 -6 14 -18 26 -25 27 -7 1 -8 0 -2 -3z M9447 494 c-10
-11 -9 -62 2 -69 5 -3 12 -1 16 5 4 6 11 7 17 4 8 -5 9 -1 5 10 -5 14 -3 17 8
12 8 -3 15 -2 15 3 0 14 -28 33 -39 27 -5 -3 -11 -1 -13 5 -2 5 -7 7 -11 3z
M6048 483 c18 -2 45 -2 60 0 15 2 0 4 -33 4 -33 0 -45 -2 -27 -4z M518 474
c-12 -12 -9 -79 4 -92 30 -30 76 -4 80 45 l2 29 105 -3 c59 -1 126 -5 151 -8
31 -4 39 -2 25 4 -11 5 -23 7 -27 4 -5 -2 -8 0 -8 5 0 5 -35 9 -77 9 -43 0
-116 3 -163 8 -47 4 -88 4 -92 -1z m62 -49 c0 -31 -3 -35 -25 -35 -21 0 -25 5
-25 28 0 33 7 42 32 42 14 0 18 -8 18 -35z M0 250 l0 -220 23 0 c12 0 33 -7
45 -16 17 -12 22 -12 22 -2 0 10 2 10 9 0 4 -8 19 -12 32 -10 l24 3 -22 22
c-17 17 -35 23 -68 23 l-45 0 0 210 c0 133 -4 210 -10 210 -6 0 -10 -80 -10
-220z M6255 459 c-59 -6 -58 -6 30 -9 50 -2 209 -5 355 -5 224 -2 270 -4 297
-18 61 -32 88 -86 96 -190 3 -43 0 -57 -10 -57 -7 0 -12 5 -11 11 2 6 -4 14
-12 16 -13 4 -13 3 0 -6 8 -6 11 -11 6 -11 -4 0 -1 -11 7 -24 9 -13 19 -47 23
-76 5 -35 10 -47 16 -38 7 10 8 8 7 -7 -3 -37 1 -45 19 -45 27 0 30 6 22 53
-4 23 -11 80 -15 127 -3 47 -8 104 -10 126 -5 46 -33 105 -54 112 -10 3 -11 0
-5 -9 4 -8 -6 -2 -24 13 -19 16 -50 29 -75 33 -58 8 -588 11 -662 4z M11307
431 c3 -12 9 -19 13 -16 11 7 28 -79 36 -185 4 -47 13 -101 21 -120 l13 -35
-4 40 c-3 22 -10 90 -17 150 -11 109 -24 150 -53 174 -12 10 -14 9 -9 -8z
M1067 399 l25 -38 107 -3 106 -3 -145 -32 c-80 -18 -219 -48 -310 -67 -270
-56 -443 -95 -478 -107 -23 -7 -82 -8 -184 -4 l-150 8 13 -21 c8 -12 20 -24
27 -27 8 -3 10 0 6 8 -6 9 -4 9 8 -1 8 -6 35 -12 59 -13 24 0 55 -4 69 -9 14
-5 47 -11 73 -13 45 -4 52 -2 85 30 40 39 19 33 407 112 105 22 276 58 380 82
105 23 198 42 208 41 9 0 17 4 17 9 0 6 5 7 10 4 6 -3 10 -2 10 4 0 18 -14 20
-156 23 -136 2 -139 3 -161 29 -36 42 -56 33 -26 -12z m-889 -266 c-10 -2 -28
-2 -40 0 -13 2 -5 4 17 4 22 1 32 -1 23 -4z m155 -10 c-13 -2 -35 -2 -50 0
-16 2 -5 4 22 4 28 0 40 -2 28 -4z M4009 438 c-7 -24 -5 -38 6 -38 8 0 11 7 8
20 -5 17 -11 26 -14 18z M7492 427 c-12 -15 -9 -54 6 -69 9 -9 15 -7 26 7 11
15 11 22 3 27 -8 5 -6 8 6 8 9 0 17 5 17 11 0 5 4 8 9 4 5 -3 12 -1 15 4 4 5
-7 9 -22 9 -16 -1 -34 2 -39 5 -6 4 -15 1 -21 -6z M7821 414 c-24 -13 -49 -28
-56 -34 -6 -5 -16 -6 -20 -2 -5 4 -5 2 -1 -5 4 -7 -2 -17 -14 -23 -11 -6 -18
-15 -15 -21 4 -5 1 -9 -4 -9 -6 0 -11 6 -11 14 0 7 -10 13 -22 12 -22 -1 -23
-4 -19 -78 2 -52 -1 -78 -8 -78 -7 0 -11 26 -11 70 0 72 -5 79 -41 60 -16 -9
-19 -21 -19 -78 1 -63 2 -66 15 -42 l14 25 1 -32 c0 -34 16 -43 38 -21 9 9 12
8 12 -5 0 -10 -8 -17 -20 -17 -18 0 -20 -7 -20 -75 0 -43 4 -75 10 -75 6 0 10
20 10 45 0 25 4 45 9 45 5 0 14 17 20 38 10 37 10 37 7 -15 -2 -29 1 -53 6
-53 5 0 7 -14 3 -31 -6 -26 -4 -30 12 -27 14 2 19 15 24 53 l6 50 1 -52 c1
-30 7 -53 13 -53 12 0 10 168 -2 185 -9 13 -16 104 -8 99 3 -2 12 7 19 21 7
13 25 29 41 35 35 15 47 40 16 33 -13 -2 -8 3 13 14 30 16 47 18 115 12 81 -8
762 -12 754 -5 -2 2 -186 6 -408 9 -222 4 -406 9 -410 12 -3 3 1 10 9 15 34
21 -16 8 -59 -16z m-139 -119 c3 -14 1 -25 -3 -25 -5 0 -9 11 -9 25 0 14 2 25
4 25 2 0 6 -11 8 -25z m35 -107 c-2 -13 -4 -3 -4 22 0 25 2 35 4 23 2 -13 2
-33 0 -45z m-20 -10 c-2 -13 -4 -5 -4 17 -1 22 1 32 4 23 2 -10 2 -28 0 -40z
M10475 429 c-2 -3 -1 -36 1 -75 3 -38 6 -75 6 -81 1 -9 23 -13 77 -11 l76 2
-70 5 -70 6 -3 73 c-2 50 1 72 8 67 5 -3 10 -26 10 -51 0 -49 -8 -45 101 -46
41 0 46 -3 45 -22 -1 -11 -5 -24 -9 -27 -5 -3 -2 -9 7 -12 9 -4 15 -3 13 1 -1
4 6 18 17 32 10 14 16 19 14 11 -8 -28 30 -52 74 -49 23 2 43 8 45 13 4 12
-47 12 -66 1 -15 -10 -24 -2 -28 23 -2 15 3 19 22 16 16 -1 25 3 25 11 0 11
-22 14 -101 14 -93 0 -100 1 -88 16 8 9 12 27 11 39 -3 21 0 22 89 23 65 2 95
-2 101 -10 6 -10 8 -9 8 2 0 8 -4 20 -8 25 -7 10 -301 15 -307 4z M2543 419
c9 -6 15 -14 12 -19 -3 -5 -1 -11 4 -14 5 -4 12 -2 16 4 7 12 25 4 25 -11 0
-6 -4 -8 -10 -4 -6 4 -6 -5 0 -22 5 -15 11 -37 14 -48 3 -11 4 -1 2 23 -3 24
-2 41 1 38 7 -6 33 -163 32 -191 l0 -20 -9 20 c-5 11 -9 37 -9 57 -1 20 -6 40
-12 44 -8 4 -9 -3 -6 -22 3 -16 9 -53 12 -81 4 -29 10 -53 15 -53 19 0 22 131
5 213 -7 34 -53 90 -66 81 -4 -2 -10 0 -14 6 -3 5 -12 10 -18 10 -7 0 -4 -5 6
-11z M4728 414 c-37 -20 -26 -44 19 -44 28 0 34 3 29 16 -3 8 -2 12 4 9 6 -3
10 -1 10 4 0 6 -7 11 -16 11 -8 0 -12 5 -9 10 8 13 -4 11 -37 -6z M4900 396
c0 -14 5 -26 10 -26 6 0 10 9 10 19 0 11 -4 23 -10 26 -6 4 -10 -5 -10 -19z
M9640 400 c0 -8 5 -22 10 -30 8 -12 10 -10 11 10 0 23 1 23 9 5 8 -18 9 -17 9
7 1 21 -3 26 -19 25 -11 -1 -20 -8 -20 -17z M714 399 c-6 -10 344 -41 355 -32
10 8 -9 12 -89 17 -47 3 -125 9 -173 13 -49 5 -91 5 -93 2z M10650 392 c0 -6
-6 -9 -14 -6 -9 3 -13 -1 -13 -13 2 -19 26 -34 41 -25 5 3 1 9 -10 14 -14 6
-12 7 9 3 21 -4 27 -2 27 11 0 10 -3 14 -7 11 -3 -4 -12 -2 -20 4 -9 8 -13 8
-13 1z M10713 391 c-5 -3 -9 -12 -8 -20 0 -17 52 -34 61 -20 3 5 -10 10 -28
10 -33 2 -33 2 6 8 l38 6 -30 11 c-16 6 -34 9 -39 5z M2980 369 c-10 -6 -11
-9 -2 -9 6 0 11 -3 10 -7 -1 -5 5 -19 14 -33 10 -16 18 -60 22 -125 11 -170
16 -195 37 -195 17 0 19 10 20 118 1 123 2 141 13 182 6 23 4 26 -21 25 -23 0
-29 -5 -34 -30 -6 -29 -6 -28 -8 8 0 23 -5 36 -11 32 -17 -10 -32 5 -20 20 14
17 -1 27 -20 14z m82 -130 c-2 -8 -3 -63 -3 -124 1 -60 0 -107 -2 -105 -2 3
-7 60 -10 128 -5 94 -3 122 6 119 7 -3 10 -11 9 -18z M6002 342 c2 -20 6 -35
10 -32 4 3 14 -4 23 -15 l17 -20 -8 20 c-4 11 -9 32 -11 47 -3 15 -12 29 -20
32 -11 5 -14 -2 -11 -32z M10833 325 c0 -27 2 -38 4 -22 2 15 2 37 0 50 -2 12
-4 0 -4 -28z M11443 358 c6 -16 15 -127 21 -238 l2 -55 40 3 c51 5 114 44 114
72 0 15 25 7 26 -8 1 -7 2 -39 3 -72 0 -33 6 -60 11 -60 11 0 13 41 4 117 -6
43 -10 53 -26 53 -10 0 -23 -11 -29 -23 -14 -31 -59 -57 -98 -57 -35 0 -37 7
-45 164 -3 59 -9 103 -17 110 -9 8 -11 7 -6 -6z M7831 353 c-1 -7 -7 -13 -14
-13 -15 0 -67 -51 -67 -66 0 -5 6 -2 13 6 34 41 55 44 277 44 179 -1 196 0
105 6 -60 4 -153 8 -207 9 -67 1 -98 5 -101 14 -4 10 -6 10 -6 0z M5206 338
c7 -10 154 -6 154 5 0 4 -36 7 -80 6 -43 -2 -77 -6 -74 -11z M5414 326 c-6
-27 2 -50 16 -41 5 3 6 13 3 22 -4 10 -2 14 4 10 7 -4 10 0 9 10 -4 27 -25 27
-32 -1z M4015 330 c3 -5 16 -10 28 -9 21 0 21 1 2 9 -28 12 -37 12 -30 0z
M8970 330 c0 -7 10 -22 23 -34 27 -25 53 -90 66 -166 10 -55 10 -55 5 15 -4
48 -14 85 -31 117 -29 52 -63 90 -63 68z M4796 305 c9 -39 14 -44 15 -14 1 15
5 9 9 -16 l7 -40 1 35 c1 19 -3 42 -8 50 -9 13 -10 13 -10 0 0 -13 -1 -13 -10
0 -8 11 -9 7 -4 -15z M5360 297 c0 -12 10 -31 22 -41 19 -17 20 -17 14 -1 -3
9 -9 28 -12 41 -8 30 -24 31 -24 1z M8902 267 c42 -36 57 -68 63 -136 10 -97
17 -131 25 -131 5 0 11 8 13 18 4 16 5 16 6 0 0 -10 4 -18 9 -18 10 0 3 109
-8 140 -1 3 -6 -8 -11 -25 -6 -22 -7 -13 -4 30 3 41 2 54 -4 40 -9 -19 -10
-19 -10 3 -2 52 -53 112 -96 112 -17 0 -14 -6 17 -33z M9630 271 c0 -15 -3
-49 -6 -75 -4 -25 -3 -46 2 -46 5 0 10 34 12 75 2 41 1 75 -2 75 -3 0 -6 -13
-6 -29z M4233 283 c-20 -4 -23 -11 -23 -48 0 -24 4 -46 8 -49 12 -7 92 15 92
26 0 5 5 6 10 3 6 -4 10 8 10 29 0 28 -4 36 -17 36 -10 0 -27 2 -38 4 -11 2
-30 2 -42 -1z m75 -40 c-4 -21 -59 -37 -70 -20 -17 27 -8 37 33 37 32 0 40 -3
37 -17z M9653 250 c0 -25 2 -35 4 -22 2 12 2 32 0 45 -2 12 -4 2 -4 -23z
M9907 283 c-14 -13 0 -286 14 -278 4 3 5 29 2 58 -3 28 -6 91 -7 139 0 49 -1
88 -2 88 0 0 -4 -3 -7 -7z M1422 268 c-9 -9 -43 -13 -100 -12 -84 1 -88 0
-110 -28 -27 -32 -15 -39 13 -8 15 17 31 20 94 20 55 1 85 6 111 20 19 11 28
19 20 20 -9 0 -22 -6 -28 -12z M4379 261 c-2 -27 2 -45 12 -56 7 -7 8 -4 4 6
-4 12 1 18 20 21 16 4 24 1 22 -6 -2 -6 9 -19 24 -28 38 -23 69 -88 72 -148 2
-38 6 -50 18 -50 30 0 -9 179 -44 202 -17 11 -16 38 1 38 14 0 15 2 1 15 -8 9
-39 17 -72 19 -48 3 -57 1 -58 -13z M4606 258 c-10 -39 -7 -258 4 -258 6 0 11
19 12 43 2 50 -3 231 -7 235 -1 1 -5 -8 -9 -20z M4643 194 c4 -49 7 -113 7
-141 0 -31 4 -53 11 -53 16 0 5 273 -11 278 -10 4 -11 -16 -7 -84z M6394 273
c4 -4 112 -10 239 -14 128 -3 243 -9 257 -14 17 -5 22 -4 15 2 -26 26 -87 33
-298 33 -121 0 -217 -3 -213 -7z M7469 264 c-13 -7 -28 -10 -33 -7 -5 4 -6 1
-2 -5 3 -6 -3 -16 -15 -23 -31 -16 -277 -8 -288 10 -16 25 -18 -13 -8 -126 7
-70 15 -113 22 -113 7 0 9 21 4 73 -4 39 -8 84 -8 100 l-1 27 137 0 c132 0
138 1 175 26 21 15 41 24 45 20 4 -4 9 -51 10 -104 4 -110 9 -142 23 -142 9 0
4 206 -5 256 -5 24 -23 26 -56 8z M12262 238 c-2 -49 -14 -65 -46 -59 -11 1
-16 -2 -12 -8 11 -17 31 -13 50 8 12 14 16 31 13 62 l-4 44 -1 -47z M3351 203
c9 -65 19 -80 20 -32 l1 34 7 -30 7 -30 8 38 7 38 62 -3 c56 -3 62 -5 65 -26
2 -16 -3 -25 -20 -32 -21 -8 -19 -9 11 -7 50 3 50 -20 -1 -32 l-43 -10 43 2
c32 2 42 -1 43 -13 0 -10 3 -9 9 5 6 14 9 2 9 -42 1 -88 21 -79 22 10 1 48 3
62 8 42 4 -20 9 -26 14 -17 5 6 5 17 2 22 -3 6 1 13 9 16 16 6 23 25 9 23 -26
-4 -53 4 -73 21 -20 17 -20 20 -6 26 35 13 12 21 -77 27 -52 3 -105 10 -119
16 l-24 9 7 -55z M3600 257 c3 -3 62 -9 130 -13 69 -3 122 -4 119 0 -3 3 -61
9 -130 12 -68 4 -122 4 -119 1z M8205 251 c-10 -17 -2 -155 10 -163 10 -8 292
-12 284 -4 -2 2 -62 6 -133 10 -71 3 -132 9 -135 12 -9 9 -17 125 -9 130 4 3
8 -3 8 -14 0 -26 11 -34 24 -17 9 13 11 10 10 -13 0 -16 -4 -34 -8 -40 -11
-18 39 -15 54 3 16 20 27 19 33 -2 3 -10 5 2 4 27 l-2 45 -45 6 c-40 6 -38 6
12 4 32 -2 61 1 64 6 3 5 -25 9 -65 9 -38 0 -76 3 -84 6 -8 3 -18 1 -22 -5z
M3898 243 c12 -2 30 -2 40 0 9 3 -1 5 -23 4 -22 0 -30 -2 -17 -4z M8390 240
c0 -5 9 -10 19 -10 11 0 23 5 26 10 4 6 -5 10 -19 10 -14 0 -26 -4 -26 -10z
M8460 240 c0 -6 9 -10 19 -10 14 0 21 -9 24 -27 4 -22 5 -20 3 6 -1 27 -6 35
-23 37 -13 2 -23 -1 -23 -6z M4790 238 c0 -2 -3 -56 -7 -120 l-6 -118 25 0
c30 0 39 30 36 114 l-1 51 -7 -55 -8 -55 0 60 c-1 83 -3 96 -13 55 -7 -32 -8
-31 -5 13 2 26 0 50 -5 53 -5 3 -9 4 -9 2z m17 -160 c-2 -13 -4 -5 -4 17 -1
22 1 32 4 23 2 -10 2 -28 0 -40z M5820 212 c-36 -15 -64 -31 -62 -35 1 -4 2
-45 2 -92 0 -55 4 -85 11 -85 7 0 10 29 7 87 l-3 87 62 26 c35 15 66 29 70 33
13 14 -24 5 -87 -21z M12035 212 c-44 -8 -74 -17 -66 -20 15 -5 155 16 185 28
35 14 -28 10 -119 -8z M3640 210 c-8 -5 -10 -10 -4 -10 6 0 15 -10 21 -22 l10
-23 7 23 c4 12 13 22 20 22 13 0 36 -81 36 -126 0 -13 3 -24 8 -24 9 0 6 93
-4 128 -6 21 -3 22 42 22 83 0 98 -10 108 -70 1 -3 8 -15 17 -28 l16 -23 7 32
c3 17 6 46 6 64 l0 33 -87 1 c-49 1 -111 4 -138 6 -28 2 -57 0 -65 -5z m279
-57 c0 -34 -1 -36 -11 -16 -6 12 -8 29 -5 37 11 27 17 18 16 -21z M6734 210
c-79 -5 -81 -5 -77 -30 2 -14 7 -46 10 -72 5 -47 4 -48 -22 -48 -23 0 -26 -3
-21 -22 3 -13 6 -26 6 -30 0 -18 30 -6 30 11 0 11 5 23 10 26 6 4 10 3 9 -2
-1 -4 -1 -16 0 -25 1 -22 21 -24 21 -3 0 13 22 15 136 15 127 0 138 1 155 22
l19 21 0 -36 c0 -21 5 -37 11 -37 8 0 10 17 6 56 -6 63 -50 139 -74 129 -8 -2
-23 0 -34 5 -32 18 -101 25 -185 20z m155 -32 c40 -23 77 -69 83 -103 3 -19
-3 -20 -135 -22 -100 -2 -139 1 -142 10 -2 7 -5 38 -8 69 l-4 57 31 3 c106 10
137 8 175 -14z M5493 196 l-73 -9 0 -78 c0 -77 6 -109 19 -109 4 0 5 38 3 84
l-4 83 31 6 c17 4 60 9 96 13 36 4 68 11 71 16 6 10 -31 8 -143 -6z M5286 152
c8 -105 16 -152 25 -152 5 0 6 34 3 85 l-7 85 31 0 c27 0 32 -4 38 -34 3 -19
3 -39 0 -45 -9 -13 4 -91 15 -91 7 0 7 139 0 182 -1 4 -16 4 -35 1 -18 -3 -42
0 -53 6 -20 10 -20 8 -17 -37z M7838 119 c-3 -77 -5 -84 -25 -87 -12 -2 -24
-10 -27 -18 -4 -11 4 -14 34 -14 37 0 45 7 41 32 0 4 14 12 32 17 l32 9 -32 1
c-36 1 -40 11 -41 84 -1 82 -11 64 -14 -24z M10028 186 c-9 -6 -25 -17 -37
-25 -11 -8 -18 -18 -16 -22 3 -4 -1 -9 -9 -12 -9 -4 -12 -14 -9 -26 3 -12 0
-28 -7 -36 -8 -9 -8 -15 -2 -15 6 0 13 -12 15 -27 3 -20 5 -16 7 17 l3 45 7
-45 7 -45 1 51 c2 50 22 84 50 84 7 0 12 7 12 16 0 9 -5 12 -12 8 -7 -4 -5 1
4 11 14 15 40 20 120 25 l103 7 -110 1 c-68 0 -117 -4 -127 -12z M10305 190
c34 -10 418 -18 407 -9 -4 4 -104 9 -222 12 -130 3 -203 2 -185 -3z M4310 173
c0 -16 -10 -23 -44 -32 -34 -8 -43 -15 -41 -28 2 -10 7 -39 10 -66 4 -32 11
-47 21 -47 8 0 13 4 10 9 -9 14 49 18 63 4 26 -28 34 -14 29 51 -7 77 -17 100
-30 65 -6 -15 -5 -25 1 -27 6 -2 11 -16 11 -30 0 -26 -2 -27 -46 -24 -44 4
-45 5 -42 35 2 25 9 32 35 39 34 9 53 42 34 61 -8 8 -11 5 -11 -10z M4380 140
c0 -26 3 -68 6 -94 l7 -46 42 0 c60 0 79 24 70 87 -9 65 -26 85 -80 93 l-45 7
0 -47z m75 0 c10 -11 21 -39 25 -63 5 -38 4 -43 -13 -44 -10 -1 -30 2 -43 7
-21 9 -24 16 -24 65 0 47 3 55 18 55 11 0 27 -9 37 -20z m3 -127 c-10 -2 -26
-2 -35 0 -10 3 -2 5 17 5 19 0 27 -2 18 -5z M9502 171 c-26 -19 -15 -48 14
-37 16 6 16 8 4 16 -13 8 -12 10 3 10 9 0 17 -4 17 -10 0 -5 4 -10 9 -10 13 0
1 38 -13 43 -7 3 -22 -2 -34 -12z M11775 179 c-13 -6 9 -8 68 -5 48 1 90 6 94
9 10 11 -139 7 -162 -4z M8373 165 c0 -8 7 -15 14 -15 8 0 12 4 8 9 -3 5 5 12
17 14 18 3 16 5 -8 6 -21 1 -31 -4 -31 -14z M3777 130 c13 -12 22 -14 31 -8 9
8 12 2 12 -25 0 -20 5 -39 10 -42 7 -4 10 7 8 30 -2 27 3 41 17 51 18 13 14
14 -38 13 -54 -2 -56 -3 -40 -19z M10041 115 c-19 -10 -21 -13 -7 -18 8 -3 18
-2 21 3 4 6 47 10 97 10 50 0 89 2 87 4 -13 11 -178 12 -198 1z M9480 83 c0
-47 9 -83 21 -83 5 0 7 21 5 48 -2 26 0 53 6 60 8 9 5 12 -11 12 -18 0 -21 -6
-21 -37z M9535 60 c0 -41 4 -60 13 -60 13 0 17 75 6 104 -12 31 -19 15 -19
-44z M9379 106 c-2 -2 -2 -27 -1 -55 4 -47 6 -51 29 -51 19 0 24 4 19 16 -3 9
-6 33 -6 55 0 31 -4 39 -18 39 -10 0 -21 -2 -23 -4z M10348 103 c12 -2 32 -2
45 0 12 2 2 4 -23 4 -25 0 -35 -2 -22 -4z M9320 70 c-8 -16 -21 -20 -56 -20
-38 0 -45 -3 -40 -16 3 -9 6 -20 6 -25 0 -5 5 -9 10 -9 6 0 10 7 10 15 0 10
11 15 35 15 24 0 35 -5 35 -15 0 -8 4 -15 10 -15 5 0 9 20 8 45 -1 51 -3 53
-18 25z M3801 43 c-1 -24 4 -43 9 -43 12 0 12 24 0 60 -7 21 -8 19 -9 -17z
M6200 40 c0 -29 4 -40 15 -40 11 0 13 8 8 31 -5 25 -3 31 8 27 8 -2 15 -17 17
-31 4 -30 32 -38 32 -9 -1 47 -12 62 -46 62 -33 0 -34 -1 -34 -40z M9061 58
c1 -7 5 -24 9 -38 8 -24 8 -24 9 -2 1 16 7 22 25 22 18 0 26 -7 29 -22 3 -17
5 -15 6 8 1 25 -4 33 -21 38 -36 9 -58 7 -57 -6z M11271 60 c0 -8 6 -26 14
-40 13 -23 14 -23 15 -4 0 11 -7 29 -15 40 -11 14 -14 15 -14 4z M9161 30 c0
-27 2 -31 8 -15 l8 20 5 -20 c4 -15 6 -13 7 8 0 16 -3 26 -8 23 -5 -4 -12 0
-14 6 -3 7 -5 -3 -6 -22z M10034 44 c3 -9 6 -22 6 -30 0 -8 5 -14 10 -14 6 0
10 10 10 21 0 17 4 20 23 15 12 -3 30 -6 40 -6 9 0 17 -7 17 -15 0 -8 5 -15
10 -15 6 0 10 11 10 24 0 19 -6 24 -37 30 -68 11 -96 8 -89 -10z M8105 40 c39
-3 162 -7 275 -7 l205 0 -150 7 c-82 4 -206 7 -275 7 -106 0 -114 -1 -55 -7z
M10210 24 c0 -25 14 -32 26 -13 7 12 163 6 198 -7 10 -4 16 -1 16 9 0 12 -17
17 -77 21 -43 4 -97 8 -120 10 -40 3 -43 2 -43 -20z M8603 33 c9 -2 25 -2 35
0 9 3 1 5 -18 5 -19 0 -27 -2 -17 -5z M10475 18 c6 -15 165 -23 165 -9 0 10
-59 21 -122 21 -34 0 -46 -4 -43 -12z M2940 10 c-21 -7 -21 -8 -5 -9 11 0 27
4 35 9 18 11 5 11 -30 0z M10770 10 c0 -6 26 -10 58 -10 40 0 53 3 42 10 -20
13 -100 13 -100 0z M10905 10 c-4 -6 24 -10 77 -9 56 0 76 3 63 9 -28 12 -133
12 -140 0z M11074 9 c-3 -5 34 -9 83 -8 65 0 82 3 65 10 -29 11 -140 10 -148
-2z"/>
</g>
</svg>
