<?xml version="1.0" standalone="no"?>
<!DOCTYPE svg PUBLIC "-//W3C//DTD SVG 20010904//EN"
 "http://www.w3.org/TR/2001/REC-SVG-20010904/DTD/svg10.dtd">
<svg version="1.0" xmlns="http://www.w3.org/2000/svg"
 width="1280.000000pt" height="324.000000pt" viewBox="0 0 1280.000000 324.000000"
 preserveAspectRatio="xMidYMid meet">
<metadata>
Created by potrace 1.15, written by Peter Selinger 2001-2017
</metadata>
<g transform="translate(0.000000,324.000000) scale(0.100000,-0.100000)"
fill="#000000" stroke="none">
<path d="M0 2082 c0 -912 3 -1161 13 -1165 9 -4 9 -6 0 -6 -10 -1 -13 -99 -13
-456 l0 -455 120 0 c66 0 120 3 120 6 0 3 -5 14 -10 25 -10 18 -7 19 72 17 46
-1 93 1 105 5 18 7 22 4 25 -19 4 -35 24 -42 31 -12 10 39 -2 68 -29 68 -36 0
-29 26 9 33 17 3 75 15 127 27 241 54 333 70 373 65 28 -4 35 -2 22 3 -18 8
-17 9 7 15 119 30 263 56 286 52 15 -3 20 -2 12 1 -15 7 58 34 94 34 27 0 11
-13 -22 -18 -15 -2 -29 -6 -32 -9 -3 -3 7 -3 23 -1 15 3 30 1 33 -3 3 -5 13
-9 22 -8 10 0 12 3 5 5 -13 6 -6 34 11 47 7 5 3 6 -8 3 -16 -6 -17 -4 -6 9 7
9 19 14 26 11 7 -3 15 2 18 10 4 10 1 13 -7 9 -6 -4 -4 0 6 8 14 11 15 17 6
23 -7 4 -15 2 -17 -4 -2 -7 -9 -9 -14 -6 -6 4 -8 3 -5 -2 7 -11 -89 -17 -106
-7 -6 4 -30 6 -53 4 -38 -2 -74 16 -74 37 0 4 52 6 114 5 85 -1 114 1 111 10
-8 21 11 38 51 43 22 3 34 2 27 -3 -18 -13 -21 -65 -4 -71 10 -3 12 0 7 13 -6
16 17 44 34 42 3 0 16 5 29 12 21 12 23 11 18 -4 -4 -9 -7 -19 -7 -21 0 -2 -6
-4 -14 -4 -8 0 -23 -11 -34 -25 -11 -14 -24 -25 -29 -25 -5 0 -9 -9 -9 -19 0
-11 4 -17 8 -15 4 3 8 0 8 -5 0 -6 5 -11 10 -11 6 0 10 9 10 20 0 10 18 36 40
56 22 20 37 41 34 45 -3 5 5 9 18 10 13 0 35 3 49 5 24 4 26 2 23 -23 -4 -24
-3 -25 5 -8 13 27 14 3 1 -30 -8 -21 -8 -26 3 -22 9 3 12 -4 9 -29 -3 -27 -10
-35 -31 -40 -14 -3 -34 -8 -43 -11 -10 -2 -30 -6 -45 -9 -15 -3 -30 -7 -35
-10 -9 -6 -3 -117 7 -134 4 -6 -4 -10 -19 -10 -24 0 -24 2 -23 63 2 54 0 62
-15 59 -10 -2 -18 1 -18 6 0 5 -11 7 -25 5 -13 -3 -23 -10 -22 -16 2 -12 -6
-13 -120 -15 -57 -2 -73 -5 -73 -17 0 -8 -9 -19 -20 -25 -21 -11 -28 -40 -9
-40 5 0 7 -4 4 -10 -3 -5 3 -10 14 -10 11 0 25 9 31 20 6 11 18 20 28 21 9 0
12 3 5 5 -7 3 -21 0 -32 -6 -12 -6 -21 -7 -21 -1 0 15 29 21 112 21 58 0 84 4
95 15 18 19 38 15 38 -8 0 -8 4 -19 9 -24 4 -4 -9 -14 -31 -20 -36 -12 -36
-12 -8 -12 47 2 49 0 31 -20 -10 -11 -24 -17 -32 -14 -8 3 -20 0 -28 -6 -7 -6
-41 -13 -75 -15 -34 -1 -67 -8 -73 -14 -15 -15 -32 -16 -23 -2 3 6 0 10 -7 10
-8 1 -5 7 7 16 11 8 28 13 38 10 9 -2 15 0 11 5 -3 5 0 9 6 9 6 0 8 5 5 10 -4
7 -14 6 -28 -2 -12 -6 -31 -12 -42 -12 -14 -1 -20 -8 -21 -24 -2 -38 -2 -38
-129 -28 -27 3 -79 5 -115 6 -42 1 -60 4 -50 10 8 5 11 12 7 17 -4 4 -17 2
-28 -5 -14 -9 -25 -9 -39 -2 -10 5 -37 10 -59 10 -23 0 -41 5 -41 10 0 11 -30
13 -55 4 -13 -6 -14 -9 -3 -16 8 -6 2 -7 -19 -3 -24 5 -37 1 -52 -14 -11 -11
-22 -15 -25 -10 -2 5 -3 4 -2 -3 2 -7 11 -12 20 -12 16 2 16 1 0 -17 -18 -20
-29 -26 -19 -10 3 5 1 13 -5 16 -8 5 -40 -50 -40 -70 0 -2 144 -5 321 -5 290
0 320 2 315 16 -5 13 -2 15 16 10 13 -3 28 -6 33 -6 6 0 3 -4 -5 -10 -9 -6 26
-9 99 -9 99 0 111 2 100 15 -7 9 -28 23 -48 33 -42 22 -44 21 114 51 103 20
123 20 315 10 355 -18 781 -40 894 -45 60 -3 112 -7 114 -10 5 -5 -31 -9 -55
-6 -6 1 -14 -3 -18 -8 -3 -6 -12 -8 -19 -5 -8 3 -17 1 -20 -4 -3 -6 -15 -8
-26 -5 -12 3 -20 0 -20 -7 0 -7 -8 -9 -20 -5 -12 4 -20 2 -20 -5 0 -8 35 -10
115 -9 63 1 115 5 115 9 0 3 30 12 66 19 47 10 64 17 60 27 -3 7 -1 16 4 19 6
4 10 -5 10 -19 0 -29 -10 -37 -50 -38 -45 -1 -36 -18 10 -18 23 0 40 5 40 11
0 6 6 9 14 6 8 -3 17 -1 20 6 2 7 5 4 5 -5 1 -14 10 -18 36 -18 l34 0 4 58 3
57 2 -57 c2 -50 5 -58 21 -58 12 0 21 8 24 23 l4 22 2 -22 c0 -13 8 -23 16
-23 12 0 15 14 15 66 0 36 3 63 8 60 4 -2 6 27 5 65 -1 38 3 69 8 69 5 0 9
-10 10 -22 0 -22 1 -22 9 -3 7 16 9 13 9 -16 1 -19 6 -62 11 -95 6 -32 13 -74
16 -91 4 -27 9 -32 29 -31 13 1 21 6 18 11 -9 14 7 78 18 71 5 -3 9 -13 8 -22
-4 -41 2 -62 17 -62 13 0 15 9 11 51 -6 67 0 88 24 82 16 -5 19 -15 19 -69 0
-64 0 -64 28 -64 39 0 47 11 21 31 -35 26 -19 49 35 49 45 0 45 0 48 -37 l3
-38 53 -3 52 -3 0 82 c0 127 11 91 19 -63 1 -24 48 -24 54 0 4 16 5 16 6 0 1
-15 11 -18 70 -18 l69 0 -1 75 -1 75 -53 0 c-29 0 -53 5 -53 10 0 6 25 10 55
10 50 0 55 -2 61 -24 3 -14 3 -29 0 -34 -2 -4 6 -20 20 -35 13 -14 24 -37 24
-51 l0 -26 95 1 c90 0 96 2 90 20 -4 11 -2 19 4 19 6 0 11 -9 11 -20 0 -19 7
-20 103 -20 69 0 108 4 116 13 11 9 13 9 7 0 -6 -10 31 -13 168 -13 l176 0 0
99 c0 118 11 134 69 102 23 -13 24 -16 18 -107 l-6 -94 26 0 c25 0 26 1 20 55
-3 30 -1 57 4 61 5 3 7 9 5 13 -3 4 -1 13 4 21 5 8 7 -16 4 -56 -3 -67 7 -107
23 -90 4 4 7 40 7 79 -1 66 -1 69 7 27 5 -25 10 -54 13 -65 2 -11 5 -26 5 -32
1 -7 12 -13 25 -13 19 0 26 6 29 28 l4 27 2 -27 c1 -27 4 -28 50 -28 l49 0 -1
82 -2 83 35 -3 c140 -13 154 -16 161 -42 4 -14 7 -46 8 -72 l1 -48 46 0 47 0
-7 70 c-5 62 -4 69 11 63 12 -5 14 -3 8 7 -5 9 -4 11 3 6 7 -4 12 -35 12 -77
l0 -69 55 0 c39 0 53 4 50 12 -2 7 -6 41 -9 76 -6 59 -5 62 17 63 12 0 48 4
80 8 32 4 60 4 63 -1 6 -10 24 -11 23 0 -4 22 3 24 17 4 17 -25 38 -19 31 8
-5 21 19 35 29 18 4 -7 3 -8 -4 -4 -9 5 -12 -19 -12 -88 l0 -96 48 0 48 0 -4
84 c-4 81 -4 83 19 88 13 3 40 13 60 21 33 15 35 15 35 -1 0 -9 1 -56 2 -104
l2 -88 105 1 c97 0 105 2 105 20 0 12 7 19 19 19 30 0 51 -11 51 -26 0 -10 15
-14 55 -14 46 0 53 2 48 16 -5 15 3 16 78 10 58 -4 77 -3 62 4 -13 5 -23 13
-23 18 0 13 78 13 86 1 3 -6 29 -9 57 -8 32 2 52 -1 55 -9 2 -8 -6 -10 -30 -6
-26 5 -31 4 -21 -6 13 -14 82 -17 291 -12 116 2 122 3 122 23 0 11 5 17 10 14
6 -3 10 -15 10 -26 0 -17 8 -19 90 -19 l90 0 -5 28 c-2 15 -6 55 -9 89 l-6 63
131 0 c125 0 132 1 161 25 37 31 48 31 48 3 -1 -13 1 -57 4 -98 3 -41 5 -83 6
-92 0 -13 8 -18 26 -18 l26 0 -6 126 c-4 93 -9 132 -21 148 -9 11 -13 15 -10
9 4 -9 -2 -12 -17 -12 -13 1 -32 -1 -43 -5 -17 -6 -17 -6 -4 3 13 8 15 19 10
43 -4 18 -6 50 -3 72 3 26 0 41 -9 47 -8 5 -9 9 -3 9 6 0 10 11 9 24 -3 21 4
27 45 40 60 20 71 20 46 1 -11 -8 -30 -15 -43 -15 -13 0 -23 -6 -24 -12 -5
-70 -10 -105 -13 -115 -6 -14 12 -30 39 -35 11 -1 23 -10 27 -18 6 -13 7 -12
7 1 1 9 7 19 14 22 9 3 12 -14 13 -67 1 -103 15 -231 24 -217 5 9 9 8 14 -4 3
-10 2 -23 -4 -30 -9 -11 20 -13 147 -14 109 0 152 3 138 10 -13 6 21 8 105 4
69 -3 312 -7 540 -10 414 -5 415 -5 375 14 -33 16 -71 20 -225 24 -102 3 -186
6 -187 6 -2 1 -3 9 -3 19 0 9 10 22 21 27 26 12 35 72 19 121 l-11 31 -160 9
c-119 7 -163 6 -170 -3 -13 -15 -7 -176 6 -185 6 -4 39 -8 74 -8 35 0 62 -3
58 -6 -3 -4 -107 -1 -231 6 l-226 13 0 73 c0 142 15 155 170 148 63 -2 266 -6
450 -8 194 -3 346 -8 360 -14 33 -14 79 -58 90 -88 5 -13 13 -60 16 -104 l7
-80 68 0 c44 0 69 4 72 13 4 10 6 10 6 0 1 -7 14 -13 30 -13 23 0 31 5 34 22
4 23 5 23 12 2 6 -20 14 -21 132 -22 l125 -1 -6 31 c-3 17 -6 41 -6 54 0 28
-26 33 -33 7 -4 -17 -5 -17 -6 0 0 9 -7 17 -13 17 -9 0 -12 17 -11 57 3 111
-21 137 -32 35 -10 -83 -24 -133 -38 -131 -7 1 -19 0 -27 -4 -38 -14 -58 -15
-53 -1 4 10 0 12 -13 7 -13 -5 -15 -3 -9 8 5 8 0 6 -12 -4 -12 -10 -24 -14
-27 -9 -3 5 -18 7 -34 4 l-29 -4 -8 69 c-4 37 -15 87 -25 111 l-19 42 22 1
c12 1 40 1 62 0 142 -7 235 -5 235 4 0 6 4 4 9 -4 13 -20 41 3 41 34 0 18 7
24 33 29 19 3 43 15 54 26 12 10 24 16 27 13 3 -4 6 0 6 7 0 11 3 11 12 2 9
-9 16 -8 30 5 23 21 25 -2 2 -25 -11 -10 -13 -17 -5 -20 6 -2 11 -11 11 -19 0
-9 -6 -13 -15 -9 -20 7 -45 -3 -45 -19 0 -7 7 -15 14 -18 10 -4 13 -1 10 7 -3
8 -1 17 5 21 7 3 11 -2 11 -14 0 -12 4 -21 9 -21 4 0 7 -14 5 -30 -3 -28 -2
-30 23 -24 22 6 25 4 20 -10 -4 -10 -7 -38 -7 -62 0 -33 -3 -43 -13 -38 -9 6
-9 4 1 -7 14 -15 17 -79 3 -79 -5 0 -11 6 -14 13 -2 6 -4 -3 -5 -21 0 -25 3
-32 18 -32 14 0 18 5 13 17 -4 10 -2 14 5 10 10 -7 14 13 25 133 2 19 5 -9 5
-62 2 -79 5 -98 17 -98 12 0 13 12 9 69 -3 38 -2 71 3 74 4 3 10 -11 11 -31 2
-21 5 -46 7 -57 1 -11 3 -28 4 -37 1 -12 9 -18 27 -18 26 0 27 1 20 46 l-6 45
53 -1 c76 -2 77 -2 78 23 1 43 18 -14 18 -65 1 -44 3 -48 25 -48 15 0 26 7 29
18 4 14 5 15 6 1 1 -14 17 -17 116 -18 107 0 115 1 115 19 0 10 -12 28 -27 40
l-28 22 275 -6 c151 -4 396 -9 544 -11 265 -4 270 -4 293 -27 l23 -23 -250 3
c-167 2 -250 -1 -250 -8 0 -7 92 -10 274 -10 l275 0 4 23 4 22 2 -22 c2 -34
48 -32 57 1 4 17 11 23 21 19 17 -7 17 -3 -2 102 -5 28 -4 28 8 -5 21 -53 25
-13 12 115 -11 115 -19 140 -39 132 -7 -3 -17 7 -24 22 -15 34 -95 85 -136 87
-17 1 -167 2 -334 4 -258 3 -304 5 -311 18 -7 13 -13 13 -39 3 -29 -12 -60
-12 -249 1 -7 1 -13 5 -13 10 0 12 886 16 936 4 36 -9 29 10 -8 24 -43 17 -73
18 -521 20 -316 1 -376 4 -367 15 9 11 6 13 -17 10 -15 -2 -28 -5 -28 -6 0 -7
-53 -5 -63 4 -9 7 -16 7 -24 -1 -7 -7 -23 -12 -37 -12 -20 0 -23 3 -11 9 8 6
19 7 25 4 7 -4 7 -2 0 5 -8 8 -22 8 -55 -2 -25 -7 -50 -11 -57 -9 -6 2 -30 -5
-53 -17 -22 -11 -45 -18 -49 -15 -10 6 -47 -46 -42 -60 1 -5 -1 -7 -4 -3 -11
10 -47 -11 -39 -23 3 -6 3 -20 0 -32 -5 -21 -9 -22 -101 -17 -53 3 -100 1
-104 -3 -5 -5 -18 -4 -29 2 -10 6 -22 7 -26 4 -3 -3 -6 1 -6 10 0 9 -5 17 -10
17 -6 0 -9 -5 -8 -12 2 -6 -5 -14 -14 -16 -10 -2 -18 1 -18 7 0 15 39 34 56
27 8 -3 14 -1 14 4 0 6 -18 10 -39 10 -22 0 -42 4 -46 10 -3 5 -13 6 -22 3
-11 -4 -14 -3 -9 5 5 8 2 10 -8 6 -9 -3 -16 -11 -16 -16 0 -7 -5 -6 -13 1 -20
16 -27 4 -27 -46 0 -37 -4 -45 -25 -53 -23 -9 -29 -19 -26 -45 2 -18 -69 -18
-75 0 -3 8 -10 15 -16 15 -5 0 -6 -4 -3 -10 4 -6 -14 -11 -47 -12 -107 -3
-131 0 -123 12 3 6 -1 10 -10 10 -9 0 -13 -4 -10 -10 6 -9 -8 -12 -50 -12 -35
0 -40 2 -26 11 8 5 19 7 26 5 6 -3 20 4 30 16 18 20 18 20 -71 22 -49 0 -97 0
-107 0 -10 -1 -16 2 -13 7 3 5 -6 12 -22 17 -32 9 -520 12 -577 3 -22 -3 77
-7 220 -8 143 -1 269 -6 279 -10 10 -4 -111 -5 -270 -3 -241 3 -292 7 -306 19
-14 13 -21 13 -33 3 -22 -18 -211 -8 -250 13 -39 22 -57 21 -88 -3 -22 -17
-26 -18 -31 -4 -3 8 -2 12 4 9 6 -3 10 -2 10 4 0 5 -4 13 -10 16 -20 12 -10
35 15 35 18 0 23 4 18 16 -3 9 -12 13 -22 8 -9 -4 -43 -16 -76 -27 -33 -11
-69 -23 -80 -27 -54 -21 -102 -31 -125 -26 -14 2 -31 5 -39 5 -11 1 -10 6 5
20 10 10 22 17 26 15 4 -3 18 7 32 21 14 14 22 25 18 25 -19 1 26 20 46 20 13
0 21 4 18 9 -5 8 82 41 109 41 7 0 15 4 17 10 2 5 17 10 35 12 17 1 30 5 28 9
-8 13 46 30 63 19 9 -5 12 -10 6 -10 -15 0 -26 -40 -11 -40 8 0 7 -4 -1 -12
-21 -21 -13 -26 38 -26 32 0 53 5 58 14 8 14 122 32 197 31 97 -1 127 3 123
16 -3 6 -18 13 -34 14 -16 1 -74 4 -128 7 -55 3 -101 8 -104 10 -2 3 8 16 23
30 17 16 25 33 23 48 -3 21 -9 23 -63 26 -42 1 -56 -1 -45 -8 23 -15 2 -12
-23 4 -25 16 -100 33 -78 18 12 -9 -19 -10 -146 -4 -22 1 -33 7 -33 17 0 17
-3 17 160 19 232 3 355 8 343 13 -7 2 -13 11 -13 19 0 8 -8 14 -17 14 -10 0
-90 3 -178 6 -88 3 -178 6 -200 6 -22 0 -31 3 -20 5 11 3 28 12 37 20 15 13
24 14 62 3 29 -8 68 -10 113 -5 66 7 91 13 62 17 -40 4 118 13 196 10 90 -3
91 -3 90 -29 0 -16 -7 -29 -20 -34 -17 -7 -17 -8 7 -8 15 -1 30 4 33 10 4 6
13 8 21 5 7 -3 16 0 20 6 4 6 3 8 -3 5 -6 -4 -18 -1 -27 6 -17 12 -17 14 -1
27 14 11 16 11 13 -1 -2 -9 4 -13 19 -11 27 4 71 -52 75 -95 1 -18 6 -29 10
-27 4 3 9 -22 10 -55 1 -34 2 -69 2 -78 1 -24 26 -39 36 -23 5 7 6 20 3 29 -4
11 0 10 11 -4 10 -11 14 -14 10 -6 -5 9 -3 12 4 7 7 -4 12 -14 12 -22 0 -10
12 -14 45 -14 38 0 45 3 45 20 0 15 -7 20 -25 20 -22 0 -25 4 -25 33 0 35 8
51 27 54 13 3 16 -6 29 -82 5 -33 8 -37 14 -20 5 11 9 14 9 7 1 -7 6 -10 11
-7 6 3 10 -1 10 -9 0 -9 9 -16 20 -16 13 0 20 7 20 20 0 11 5 20 10 20 6 0 10
-9 10 -20 0 -18 7 -20 60 -20 52 0 60 2 60 19 0 24 32 23 42 -1 6 -15 20 -18
77 -18 38 0 77 -3 86 -6 11 -5 18 0 22 14 7 29 40 35 47 8 4 -17 14 -21 57
-24 38 -2 57 2 71 15 21 19 48 26 48 13 0 -5 -8 -13 -17 -19 -13 -7 -3 -9 40
-8 31 1 57 6 57 11 0 4 7 3 14 -4 11 -8 54 -11 145 -8 120 3 132 5 151 25 11
13 25 23 30 23 6 0 33 11 62 25 28 14 69 25 90 25 42 0 51 14 16 24 -41 11
-66 6 -115 -20 -46 -24 -53 -25 -168 -20 -66 3 -141 8 -167 12 -44 6 -48 9
-48 35 0 15 -4 31 -10 34 -5 3 -10 11 -10 16 0 6 5 7 11 3 8 -5 8 -1 0 14 -14
26 -14 35 0 26 8 -4 9 3 5 23 -5 21 -1 34 13 50 19 20 30 22 183 23 235 2 278
4 278 12 0 9 -22 12 -67 9 -18 -2 -37 1 -44 4 -6 4 -65 9 -132 11 -67 2 -131
6 -142 8 -11 3 -23 5 -27 5 -13 1 -9 18 7 34 13 13 11 16 -11 21 -14 4 -29 4
-34 1 -5 -3 -39 -6 -75 -7 -36 -1 -65 -5 -65 -10 0 -11 -287 -10 -294 1 -4 5
0 12 6 15 10 5 10 7 0 12 -14 7 125 82 161 86 12 2 29 7 37 12 8 5 12 6 8 1
-12 -13 12 -34 30 -28 9 4 28 18 42 33 25 25 71 34 87 15 4 -4 0 -5 -10 -2
-25 9 -57 -21 -36 -34 8 -5 19 -9 24 -9 6 0 3 5 -5 10 -10 6 12 10 70 12 67 2
85 6 85 18 1 19 25 14 40 -7 10 -13 28 -16 96 -14 84 3 421 9 924 16 148 2
273 1 279 -2 16 -10 80 -7 110 6 16 6 57 11 90 9 l61 -3 -32 -18 c-18 -9 -36
-18 -40 -18 -5 -1 -7 -5 -5 -11 1 -5 -2 -6 -8 -3 -7 4 -14 -2 -17 -13 -3 -14
-11 -18 -26 -15 -18 4 -19 3 -7 -6 12 -8 10 -12 -10 -20 -14 -5 -18 -10 -11
-10 22 -1 -2 -22 -25 -22 -20 -1 -206 9 -214 10 -3 1 2 6 10 11 8 5 23 7 33 4
9 -3 17 -1 17 5 0 6 8 7 17 4 15 -6 16 -5 3 9 -8 9 -18 14 -21 12 -4 -2 -12 3
-19 11 -9 11 -16 12 -25 5 -7 -6 -23 -13 -36 -15 -12 -3 -26 -10 -31 -17 -6
-10 -8 -8 -8 5 0 9 -4 17 -8 17 -14 0 -32 -23 -32 -41 0 -23 -22 -25 -150 -17
-123 8 -179 15 -210 26 -12 4 -52 5 -89 0 -36 -4 -115 -10 -176 -12 -60 -2
-118 -5 -128 -5 -10 -1 -15 -5 -12 -11 3 -6 -1 -10 -9 -10 -8 0 -18 5 -21 10
-7 11 -110 7 -154 -6 -19 -6 -22 -4 -16 7 8 12 6 12 -8 0 -11 -9 -17 -10 -17
-2 0 6 -8 11 -17 11 -16 -1 -16 -2 2 -16 20 -16 115 -16 478 -1 37 2 67 0 67
-5 0 -4 9 -8 21 -8 13 0 18 4 13 12 -6 10 -5 10 7 1 10 -8 27 -9 54 -3 27 6
48 5 71 -5 37 -15 59 -41 25 -30 -12 4 -21 2 -21 -4 0 -6 4 -11 8 -11 15 0 44
-76 39 -101 -3 -19 -5 -18 -6 8 0 20 -12 45 -32 68 -41 46 -55 45 -24 -1 21
-31 25 -49 25 -109 0 -40 3 -87 6 -104 9 -42 34 -41 34 2 0 23 3 28 9 17 6 -8
7 -18 4 -24 -4 -5 -1 -6 6 -2 8 5 14 1 17 -10 4 -17 15 -19 82 -18 105 2 102
1 103 27 1 18 2 18 6 4 5 -18 5 -18 19 0 7 10 14 28 14 41 0 12 5 22 10 22 14
0 12 11 -5 34 -12 15 -17 17 -29 7 -13 -11 -16 -8 -22 14 -4 15 -4 51 -1 81 3
31 2 54 -4 54 -5 0 -10 -7 -10 -15 -1 -8 -3 -18 -4 -22 -2 -5 -6 -18 -10 -30
-4 -13 -12 -20 -19 -16 -8 5 -8 3 0 -8 7 -8 11 -27 10 -44 -2 -23 -7 -30 -24
-31 -13 -1 -26 -5 -30 -9 -4 -5 1 -5 11 -2 9 4 17 2 17 -3 0 -13 -27 -13 -35
1 -4 6 -13 8 -20 5 -13 -5 -25 33 -25 80 0 13 -4 24 -10 24 -5 0 -10 8 -10 18
0 10 -6 27 -14 38 -15 20 -13 21 70 20 47 -1 90 2 96 5 32 20 40 -17 23 -104
-6 -29 -4 -37 7 -37 11 0 17 19 22 77 3 43 11 79 16 81 6 2 10 8 10 13 0 6 -4
7 -10 4 -5 -3 -10 -2 -10 3 0 5 8 12 18 15 9 2 26 8 37 12 19 6 19 6 2 -5 -11
-7 -25 -27 -33 -46 -16 -38 -18 -56 -4 -34 8 12 10 12 10 1 0 -11 3 -11 15 -1
13 11 15 5 15 -44 0 -36 4 -55 10 -51 7 4 7 -2 0 -19 -10 -27 -8 -77 5 -111 5
-14 4 -16 -3 -6 -7 10 -11 10 -17 1 -12 -20 34 -43 84 -43 70 2 71 2 71 19 0
8 4 13 9 10 12 -8 43 29 34 40 -4 5 -1 3 7 -4 13 -11 13 -14 0 -22 -10 -7 -11
-10 -2 -10 6 0 12 -6 12 -14 0 -30 96 -25 105 5 7 22 30 21 30 -1 0 -22 23
-23 35 -1 12 23 49 29 46 9 0 -7 2 -14 7 -15 14 -5 82 -1 69 4 -6 2 -9 10 -5
16 4 6 0 8 -9 5 -8 -4 -21 -2 -29 3 -8 5 85 9 236 11 255 1 302 2 530 7 72 2
145 3 163 2 53 -2 36 -21 -18 -21 -41 0 -50 -3 -50 -18 0 -10 -23 -36 -52 -57
-29 -22 -61 -49 -73 -60 -43 -42 -123 -105 -134 -105 -6 0 -11 -7 -11 -15 0
-29 30 -14 119 60 50 41 88 69 85 61 -3 -7 -25 -28 -50 -47 -28 -21 -43 -38
-39 -47 3 -8 0 -21 -6 -28 -9 -11 -5 -14 22 -15 224 -9 274 -15 274 -29 0 -13
-27 -16 -165 -20 -91 -3 -142 -7 -115 -10 28 -2 59 -4 70 -5 11 -1 27 -4 35
-7 8 -4 22 -9 30 -12 8 -3 -19 -5 -60 -4 -41 0 -83 5 -92 10 -22 11 -62 -8
-55 -27 3 -7 0 -18 -6 -24 -6 -6 -8 -11 -4 -11 4 0 15 8 26 19 15 15 29 18 77
14 33 -3 84 -11 114 -19 30 -8 60 -14 66 -14 7 0 25 -5 41 -11 22 -8 24 -12
13 -19 -13 -8 -12 -10 2 -10 9 0 20 -4 23 -10 3 -6 -1 -7 -9 -4 -9 3 -16 2
-16 -3 0 -18 -261 -56 -312 -46 -16 3 -28 10 -28 16 0 6 3 7 6 4 9 -8 64 31
64 45 0 6 -8 4 -18 -5 -28 -26 -61 -21 -73 9 -5 15 -13 24 -17 20 -9 -10 -9
-86 0 -86 5 0 8 5 8 12 0 6 3 8 6 5 4 -4 2 -13 -5 -20 -12 -15 -17 -142 -6
-176 3 -12 15 -21 26 -21 19 0 19 5 13 75 l-7 75 107 -6 c59 -3 120 -2 134 2
l27 7 -25 7 c-23 7 -23 8 -3 9 12 1 24 -3 28 -9 3 -5 12 -7 20 -4 8 4 12 10 9
15 -3 5 14 12 36 15 25 4 44 13 47 23 3 9 12 23 19 31 15 18 4 127 -14 139 -6
4 -2 10 11 16 22 10 22 9 22 -73 0 -58 -4 -85 -13 -91 -8 -5 -12 -23 -10 -47
3 -36 5 -39 40 -45 31 -5 36 -3 33 13 -2 10 2 21 9 25 14 9 31 193 18 193 -13
0 -31 -59 -38 -125 -7 -53 -8 -57 -15 -31 -5 17 -4 50 2 75 6 25 10 93 9 151
-5 235 -3 269 15 282 6 5 5 8 -2 8 -7 0 -13 5 -13 11 0 8 4 8 14 0 10 -8 13
-23 9 -47 -4 -22 -2 -34 6 -34 6 0 12 6 13 13 2 22 16 -117 17 -180 l1 -63 95
0 c88 0 95 1 95 20 0 25 16 26 29 3 8 -13 10 4 11 66 0 145 8 85 15 -117 3
-106 10 -203 15 -215 5 -12 9 -17 10 -12 6 42 6 86 -1 190 -4 66 -9 152 -10
190 -1 39 -8 82 -15 97 -8 15 -14 40 -14 57 0 39 -10 62 -22 55 -6 -4 -14 0
-19 7 -6 11 -11 11 -21 1 -7 -7 -37 -12 -69 -12 -67 0 -69 3 -69 120 0 41 -4
91 -10 110 -5 19 -7 43 -4 52 6 20 30 24 36 6 2 -6 10 -8 16 -4 24 15 11 26
-30 26 -31 0 -55 9 -87 30 -24 17 -53 30 -65 30 -17 0 -18 -2 -6 -10 13 -8 13
-10 -2 -10 -9 0 -20 4 -23 10 -3 5 -23 11 -43 11 -22 1 -29 3 -17 6 11 3 26
10 34 17 12 8 13 8 7 -2 -4 -7 -1 -12 8 -12 9 0 16 4 16 10 0 6 108 9 287 9
l287 0 -25 -22 c-13 -12 -41 -36 -61 -54 -28 -24 -33 -33 -22 -37 9 -3 12 -10
9 -16 -4 -6 -11 -8 -16 -4 -19 11 -48 -28 -55 -75 -10 -64 -11 -201 -1 -201 4
0 7 -10 7 -22 0 -12 5 -36 12 -54 9 -26 9 -38 -1 -58 -9 -17 -11 -36 -5 -63
l8 -38 6 40 c6 35 7 33 9 -25 2 -113 0 -110 102 -110 88 0 89 0 89 25 0 24 -2
25 -64 25 -36 0 -67 4 -70 8 -2 4 -7 61 -11 127 -3 66 -8 131 -11 144 -4 18 6
33 46 71 27 27 50 56 50 64 0 21 -10 20 -26 -1 -12 -16 -13 -16 -14 -2 0 9 -7
20 -16 23 -8 3 -12 2 -9 -4 4 -6 0 -17 -9 -25 -20 -20 -25 -9 -23 50 2 44 7
55 45 92 23 23 58 54 77 69 32 24 35 31 35 78 l0 51 -173 -3 c-485 -9 -705
-13 -1052 -18 -479 -7 -590 -10 -604 -18 -6 -4 -11 -4 -11 1 0 8 -119 8 -475
-2 -110 -3 -351 -9 -536 -12 l-336 -6 -7 66 c-5 41 -3 73 3 86 10 18 65 41 99
41 6 0 12 9 12 20 0 11 6 20 14 20 20 0 36 23 27 38 -15 24 -1116 12 -1261
-14 -133 -23 -201 -35 -245 -40 -22 -3 -48 -7 -58 -8 -9 -1 -23 -8 -29 -14 -9
-9 -6 -12 13 -12 18 0 21 -2 9 -9 -8 -6 -18 -7 -22 -5 -4 3 -8 -2 -8 -10 0
-12 11 -16 38 -17 20 0 46 -4 57 -9 15 -7 10 -9 -25 -9 -71 1 -78 0 -59 -11 8
-5 34 -8 57 -7 38 2 42 0 47 -25 4 -15 5 -40 4 -55 -2 -16 0 -34 4 -41 6 -9
-17 -12 -105 -13 -157 -1 -344 -8 -398 -15 -25 -3 -47 -6 -50 -6 -3 0 -10 -4
-17 -10 -7 -5 -17 -7 -22 -4 -5 4 -13 1 -16 -5 -4 -5 -13 -8 -21 -5 -7 3 -16
1 -19 -3 -5 -9 -185 -57 -199 -53 -15 5 -35 -19 -29 -35 4 -11 2 -14 -5 -9
-16 9 -15 -7 0 -22 9 -9 8 -12 -7 -12 -17 0 -17 -1 0 -20 14 -15 31 -20 71
-20 73 0 84 -24 59 -122 l-7 -27 -542 -1 c-297 0 -550 -2 -561 -3 -15 -2 -21
6 -27 38 -14 77 -10 101 22 132 19 19 28 36 25 45 -8 20 -83 32 -118 19 -15
-6 -27 -8 -27 -5 0 4 -7 1 -15 -6 -8 -6 -24 -9 -37 -5 -16 4 -19 4 -9 -3 18
-13 -90 -36 -127 -28 -17 4 -22 3 -14 -2 22 -15 -113 -32 -248 -32 -155 -1
-156 -1 -177 22 -16 17 -12 18 95 18 110 0 134 8 92 30 -16 8 -261 12 -565 9
-11 0 -31 -3 -45 -7 -21 -5 -18 -7 20 -12 36 -6 26 -7 -45 -8 -61 -1 -85 1
-75 8 13 8 12 10 -2 10 -11 0 -18 8 -18 19 0 11 -6 22 -12 24 -8 3 -6 6 5 6
17 1 25 36 9 43 -4 2 -18 131 -31 288 -12 157 -26 332 -31 390 -5 58 -12 143
-15 190 -6 88 -23 284 -31 358 -5 37 -8 42 -32 43 -16 0 -21 3 -12 6 8 3 19
12 23 19 4 8 18 15 30 15 17 1 15 3 -8 9 l-30 8 35 1 c79 3 176 14 195 23 14
6 8 7 -22 4 -24 -2 -43 0 -43 5 0 5 22 9 49 9 28 0 53 5 56 10 3 6 15 10 26
10 10 0 19 6 19 13 0 22 16 38 33 31 42 -16 7 -49 -55 -53 l-23 -1 25 -20 c14
-11 23 -20 20 -20 -144 -10 -182 -14 -215 -20 l-40 -8 35 -2 c19 -1 39 -2 43
-1 4 1 45 4 91 7 77 6 86 5 108 -15 l23 -22 7 23 c4 17 6 13 7 -17 1 -46 38
-564 47 -672 4 -42 12 -73 18 -74 6 -1 56 -1 111 0 418 7 616 18 593 32 -7 4
-10 10 -8 13 3 3 138 7 300 11 162 3 304 8 315 12 14 3 17 2 10 -5 -5 -6 -21
-12 -35 -15 -16 -3 -9 -5 19 -6 35 -1 42 2 37 14 -7 20 4 19 20 -2 13 -17 13
-17 14 0 0 15 14 17 149 17 82 0 156 3 164 6 9 3 16 -3 20 -15 5 -20 12 -21
159 -21 190 0 385 20 374 39 -6 10 147 7 163 -3 10 -6 12 -6 7 2 -4 7 -1 12 8
12 9 0 16 -4 16 -10 0 -5 16 -10 35 -10 19 0 35 4 35 10 0 5 12 9 28 9 15 0
85 3 156 7 94 5 127 3 122 -5 -4 -6 -2 -11 3 -11 6 0 11 5 11 10 0 6 15 10 33
9 27 0 29 -2 12 -9 -33 -14 5 -11 58 5 26 8 50 15 54 15 3 1 10 -4 14 -12 8
-11 10 -11 18 1 7 11 9 11 14 0 5 -12 7 -12 15 0 6 8 11 9 13 3 5 -13 29 -15
162 -14 61 1 106 6 103 11 -11 17 25 21 162 20 75 0 131 -3 124 -6 -31 -12 3
-18 82 -13 46 4 193 6 324 6 132 -1 239 1 237 4 -4 7 19 7 395 9 157 1 350 6
430 11 80 5 312 12 515 16 204 3 396 7 428 8 32 2 57 -1 57 -7 0 -6 19 -7 53
-1 51 9 101 10 579 16 130 2 240 6 244 11 4 4 85 4 179 1 121 -5 181 -3 207 5
l35 12 0 77 c0 42 -2 65 -4 49 -6 -39 -36 -51 -133 -53 -47 -1 -186 -5 -310
-9 -308 -9 -509 -13 -680 -14 -230 -1 -344 -4 -617 -16 -155 -6 -174 -5 -179
9 -6 15 -8 15 -18 1 -13 -18 -102 -33 -91 -15 3 5 -1 10 -9 10 -9 0 -16 -5
-16 -10 0 -7 -48 -11 -137 -10 -76 0 -242 -2 -370 -5 l-232 -7 6 21 c5 19 3
21 -21 11 -14 -5 -33 -7 -41 -4 -8 4 -15 1 -15 -6 0 -7 -8 -9 -21 -5 -14 5
-19 3 -15 -3 9 -16 -35 -21 -179 -22 -71 0 -166 -2 -210 -4 -44 -2 -90 0 -102
5 -14 5 -34 4 -50 -2 -26 -10 -104 -13 -613 -24 -107 -2 -226 -7 -265 -9 -38
-3 -196 -8 -350 -11 -154 -3 -312 -8 -352 -10 -39 -3 -83 -1 -97 5 -14 5 -26
6 -26 1 0 -14 -74 -4 -79 10 -2 8 -17 27 -33 42 -28 28 -30 29 -157 31 -113 3
-133 1 -158 -15 -15 -10 -32 -19 -38 -19 -5 0 -3 4 5 10 22 14 5 23 -19 10
-12 -6 -21 -18 -21 -26 0 -9 -5 -12 -11 -8 -7 4 -9 0 -5 -12 12 -40 -3 -43
-189 -49 -387 -11 -490 -16 -493 -26 -2 -5 -10 -9 -18 -9 -9 0 -12 5 -8 11 5
8 -59 9 -237 5 -134 -4 -255 -10 -268 -13 -17 -4 -22 -2 -17 6 4 6 2 11 -3 11
-6 0 -11 -4 -11 -8 0 -5 -70 -10 -155 -11 -85 -1 -167 -6 -182 -10 -16 -4 -33
-6 -40 -4 -6 2 -14 -1 -18 -6 -3 -6 -13 -11 -21 -11 -8 0 -12 5 -9 10 3 6 2
10 -3 10 -10 0 -21 105 -23 200 0 25 -5 77 -9 115 -5 39 -12 120 -15 180 -4
61 -9 120 -12 133 -3 13 -1 22 7 22 24 0 125 -33 132 -43 4 -7 12 -7 22 2 15
13 31 12 106 -5 14 -3 49 -5 78 -5 29 1 52 -3 52 -9 0 -5 9 -10 21 -10 11 0
17 4 14 10 -3 6 1 7 9 4 9 -3 16 -10 16 -16 0 -5 5 -6 10 -3 6 4 8 11 5 16 -4
5 1 9 9 9 9 0 16 -5 16 -11 0 -7 18 -10 50 -7 28 1 50 0 50 -4 0 -5 19 -8 43
-8 25 0 54 -8 72 -20 34 -23 35 -23 54 -11 11 7 10 15 -8 45 -21 34 -46 44
-85 37 -6 -1 -39 5 -75 13 -36 8 -98 17 -137 20 -38 3 -101 10 -140 16 -38 7
-85 13 -104 15 -139 13 -163 16 -170 20 -4 2 -10 48 -13 102 -4 54 -13 186
-21 293 -31 418 -31 420 -7 420 14 0 21 6 21 20 0 20 -7 20 -550 20 -543 0
-550 0 -550 -20 0 -20 7 -20 309 -20 l310 0 5 -42 c7 -46 26 -308 26 -346 0
-14 4 -21 11 -16 7 4 8 19 5 37 -4 17 -11 97 -17 177 -5 80 -12 155 -14 168
-3 18 1 22 20 22 13 0 26 6 28 13 4 10 6 10 6 0 1 -10 35 -13 136 -13 132 0
135 -1 139 -22 3 -13 12 -126 21 -253 9 -126 20 -270 25 -319 5 -50 7 -92 5
-95 -3 -2 -5 5 -5 17 0 47 -72 17 -82 -33 -2 -15 -15 -22 -53 -28 -28 -4 -69
-12 -93 -17 -23 -6 -66 -10 -95 -11 -41 -1 -47 -3 -27 -9 l25 -8 -25 -1 c-34
-2 -54 -16 -47 -34 3 -9 1 -18 -6 -21 -9 -3 -9 -5 1 -5 16 -1 16 -43 -1 -60
-10 -11 -9 -13 5 -8 27 9 35 -12 42 -108 3 -49 20 -268 37 -485 46 -597 48
-625 46 -626 -1 -1 -130 -27 -287 -58 -268 -54 -293 -57 -415 -56 -166 3 -183
-2 -35 -10 65 -3 -47 -6 -258 -7 -206 -1 -383 -5 -394 -9 -31 -9 -152 6 -140
18 5 5 31 10 56 10 25 1 46 5 46 10 0 4 12 8 28 8 15 -1 70 8 122 18 52 11
119 23 148 27 42 6 52 11 52 26 0 13 7 19 21 19 21 0 21 3 14 72 -8 83 -10 88
-35 88 -10 0 -22 4 -25 10 -3 5 -37 8 -76 6 -44 -2 -67 0 -61 6 11 11 49 16
125 17 31 1 57 5 57 10 0 6 -26 10 -57 9 -32 0 -76 0 -98 2 -36 2 -37 3 -15
10 14 4 44 8 67 9 23 1 48 4 57 7 25 10 -6 34 -35 28 -19 -5 -21 -4 -9 5 13
10 13 12 0 21 -8 5 -32 10 -54 10 -57 0 -30 27 29 28 40 1 46 -2 51 -24 6 -22
38 -54 55 -54 3 0 5 10 3 23 -1 12 -3 22 -3 22 -1 0 -3 38 -5 85 -2 47 -12
166 -20 265 -32 352 -36 401 -36 459 l0 59 -177 -8 c-289 -12 -368 -19 -366
-31 1 -6 5 -58 8 -115 3 -57 10 -144 15 -194 6 -49 7 -129 4 -177 -7 -95 3
-168 17 -133 6 15 8 12 7 -15 0 -19 3 -62 9 -95 5 -33 6 -74 2 -92 -3 -18 -2
-34 3 -35 10 -4 32 -234 23 -248 -9 -14 -23 -12 -22 2 1 14 -12 175 -18 221
-2 16 -6 32 -10 35 -4 4 -4 -47 -2 -113 5 -115 4 -118 -9 -70 -7 28 -13 68
-12 90 0 22 -2 55 -6 73 -5 21 -4 32 3 32 6 0 11 7 11 16 0 8 -5 12 -11 8 -8
-5 -8 -1 0 13 5 11 8 33 5 48 -4 22 -2 26 12 21 12 -5 15 -2 10 10 -3 8 -6 19
-6 24 0 4 -7 11 -16 14 -8 3 -12 2 -9 -4 3 -6 1 -10 -4 -10 -6 0 -11 8 -11 17
0 15 -2 14 -14 -3 -10 -12 -11 -23 -5 -31 7 -7 6 -14 -1 -18 -7 -4 -5 -11 4
-20 11 -11 14 -44 13 -145 -1 -71 2 -130 6 -130 4 0 3 -8 -2 -19 -8 -13 -27
-20 -71 -25 -40 -5 -58 -11 -54 -18 5 -7 2 -8 -5 -3 -7 4 -38 4 -69 0 -69 -9
-51 -24 31 -28 30 -1 53 -6 50 -10 -3 -5 -18 -7 -34 -5 -16 3 -31 0 -33 -6 -3
-7 -5 -6 -5 2 -1 7 -14 12 -33 11 l-33 -1 30 -8 c24 -6 16 -8 -40 -11 -38 -2
54 -6 205 -9 259 -5 271 -6 210 -18 -259 -51 -285 -58 -295 -80 -9 -20 -17
-22 -71 -20 -38 1 -66 8 -74 17 -12 13 -12 14 4 8 12 -5 16 -3 14 5 -3 7 -17
14 -31 16 -20 3 -31 12 -42 39 -8 19 -12 40 -8 46 3 5 2 7 -3 4 -6 -3 -9 19
-8 56 1 42 0 47 -3 16 -4 -43 -6 -47 -33 -51 -17 -3 -30 -1 -30 4 0 4 -7 8
-15 8 -8 0 -15 -4 -15 -9 0 -5 -30 -7 -66 -4 -57 4 -66 2 -61 -11 4 -10 1 -13
-9 -9 -7 3 -14 0 -14 -6 0 -6 -11 -11 -25 -11 -14 0 -25 5 -25 10 0 6 -7 10
-15 10 -8 0 -15 -5 -15 -11 0 -8 -11 -9 -32 -5 -22 4 -28 3 -19 -3 11 -7 9
-10 -10 -14 -13 -2 15 -5 64 -6 50 0 87 -5 87 -11 0 -6 -28 -10 -65 -10 -39 0
-65 -4 -65 -11 0 -7 34 -9 99 -8 95 2 101 1 120 -22 11 -13 20 -32 21 -41 0
-10 6 -18 13 -18 8 0 12 -16 12 -50 l0 -50 -61 0 c-34 0 -81 -2 -105 -4 -24
-2 -34 -2 -21 1 12 2 22 7 22 11 -1 16 -17 32 -35 33 -43 4 -55 -1 -55 -24 0
-23 -1 -23 -76 -16 -42 4 -78 9 -80 11 -2 2 -6 41 -10 86 l-7 82 34 7 c33 7
33 7 9 14 l-25 7 23 7 c33 11 27 25 -11 25 -18 0 -39 6 -46 13 -11 10 -12 9
-6 -2 6 -11 1 -13 -26 -9 -55 9 -69 -5 -69 -67 l0 -54 -32 6 c-82 12 -79 13
-738 -97 -69 -11 -172 -29 -230 -39 -311 -57 -356 -64 -407 -65 -23 0 -37 -4
-31 -7 6 -4 -15 -10 -48 -14 -83 -11 -104 -20 -104 -48 0 -21 -7 -25 -57 -36
-32 -7 -75 -15 -95 -18 -21 -3 -38 -9 -38 -13 0 -4 -11 -5 -25 -2 -14 2 -31
-1 -39 -7 -7 -6 -24 -11 -37 -10 -34 1 -109 -9 -144 -19 -24 -7 -30 -14 -31
-38 -2 -50 2 -52 87 -50 47 0 78 -3 78 -9 -5 -41 3 -105 11 -100 6 3 10 1 10
-5 0 -11 159 -8 225 4 28 5 28 5 5 -4 -20 -8 -15 -9 27 -6 50 3 51 2 57 -27
13 -62 -1 -78 -79 -90 -16 -3 -68 -14 -115 -25 -210 -50 -253 -56 -422 -56
l-168 -1 0 1523 0 1522 36 0 c25 0 33 4 28 13 -6 10 -4 10 7 0 10 -10 155 -13
653 -13 638 0 639 0 621 20 -17 19 -29 20 -209 18 -112 -1 -148 -4 -88 -5 56
-2 102 -7 102 -11 0 -9 -253 -3 -260 7 -3 4 -213 9 -468 10 l-462 3 0 -1160z
m3892 59 c2 -29 -1 -49 -7 -48 -10 2 -10 -3 -6 -40 2 -16 3 -16 11 2 7 16 9
11 9 -20 0 -29 -3 -35 -8 -20 -7 17 -8 17 -13 -8 -3 -15 -2 -27 2 -27 3 0 5
-15 3 -32 -3 -24 -2 -29 6 -18 5 8 8 17 5 21 -2 4 0 10 4 13 11 6 26 -233 16
-257 -3 -9 -2 -17 4 -17 6 0 9 -21 8 -51 -2 -27 0 -45 4 -38 5 6 7 -23 5 -65
-2 -43 -6 -80 -11 -84 -4 -4 -4 -2 -1 5 7 11 -27 16 -85 13 -78 -3 -105 -3
-119 4 -13 6 -15 1 -11 -24 3 -22 0 -30 -11 -30 -9 0 -18 8 -20 18 -3 10 -5 6
-6 -10 0 -16 4 -28 10 -28 5 0 7 -4 4 -10 -3 -5 -1 -10 5 -10 6 0 8 -5 5 -11
-4 -6 -13 -8 -21 -5 -8 3 -11 0 -7 -10 6 -17 89 -20 95 -2 3 7 9 8 18 3 22
-14 -16 -24 -96 -24 -39 -1 -73 -4 -77 -7 -3 -4 3 -14 14 -23 20 -16 20 -16
-5 -17 -18 -1 -26 4 -29 20 -4 19 -4 19 -5 1 -2 -28 16 -54 26 -38 5 8 13 9
22 3 8 -6 25 -10 38 -10 15 0 21 -4 16 -12 -5 -8 -2 -9 10 -5 9 4 14 3 11 -2
-3 -5 5 -12 17 -14 13 -2 -25 -5 -84 -6 -127 -1 -117 -13 -121 150 -1 59 -5
105 -9 102 -5 -2 -8 13 -8 34 0 42 -24 347 -39 513 -13 138 -13 149 -1 130 8
-13 10 -13 10 2 0 25 45 31 292 36 l126 3 4 -50z m8806 -318 c-15 -2 -42 -2
-60 0 -18 2 -6 4 27 4 33 0 48 -2 33 -4z m-5413 -59 c-3 -40 -14 -52 -48 -48
-12 1 -25 3 -29 3 -12 1 -9 34 5 53 7 9 26 18 42 21 17 2 30 5 31 6 0 0 0 -15
-1 -35z m158 -24 c-10 -27 -9 -30 8 -30 14 0 19 7 19 30 0 36 9 38 34 9 18
-22 18 -22 -4 -16 -16 4 -20 2 -16 -8 6 -17 -26 -29 -55 -20 -12 4 -18 12 -15
21 6 16 -10 19 -19 3 -8 -12 -57 -8 -67 6 -19 26 -7 35 47 35 36 0 55 4 55 12
0 9 3 9 12 0 9 -9 10 -19 1 -42z m3403 31 c-18 -7 -66 -3 -66 5 0 2 19 4 43 3
30 0 36 -3 23 -8z m152 2 c-21 -2 -57 -2 -80 0 -24 2 -7 4 37 4 44 0 63 -2 43
-4z m-7561 -120 c-2 -16 -4 -5 -4 22 0 28 2 40 4 28 2 -13 2 -35 0 -50z m3853
41 c0 -2 -17 -4 -37 -4 -24 0 -33 3 -25 9 12 7 62 4 62 -5z m-3512 -297 c13
-3 11 -6 -9 -16 -18 -9 -32 -10 -44 -3 -16 9 -16 11 6 33 20 20 24 21 27 7 2
-9 11 -19 20 -21z m5687 -8 c-16 -5 -51 -10 -77 -12 -25 -1 -44 -5 -41 -9 2
-5 -31 -8 -74 -7 -53 0 -72 3 -58 9 15 6 7 9 -30 9 -28 1 -57 -5 -64 -11 -11
-11 -12 -10 -6 1 6 11 4 13 -11 6 -36 -15 -64 -17 -64 -6 0 6 -5 11 -11 11 -5
0 -7 -5 -4 -10 8 -13 -72 -11 -99 3 -13 6 -16 6 -12 -2 4 -6 6 -11 4 -12 -2 0
-118 -2 -258 -4 -244 -4 -252 -3 -190 11 50 12 163 16 499 20 239 2 437 6 439
9 3 3 24 5 46 4 41 -1 41 -1 11 -10z m135 -24 c-7 -8 -9 -15 -4 -15 5 0 1 -5
-9 -11 -9 -6 -25 -8 -35 -5 -13 4 -18 0 -19 -14 -1 -11 2 -18 8 -15 5 4 9 5
10 3 10 -64 10 -88 -3 -86 -7 2 -12 -3 -10 -11 3 -12 0 -12 -12 -2 -12 10 -16
9 -24 -5 -6 -10 -12 -13 -16 -6 -3 5 -15 8 -27 5 -16 -5 -18 -8 -7 -15 8 -6 0
-7 -25 -3 -26 4 -37 3 -32 -4 4 -7 0 -8 -10 -4 -10 3 -21 0 -25 -7 -5 -8 -17
-10 -34 -6 -22 5 -26 12 -26 45 0 48 8 71 25 71 11 0 10 -6 -2 -31 -12 -24
-13 -36 -4 -55 16 -36 39 -29 32 10 -1 4 7 22 17 40 37 63 36 69 -3 63 -19 -3
-35 -2 -35 4 0 5 6 9 13 10 6 0 19 2 27 4 89 17 143 29 185 40 28 8 52 14 54
14 2 1 -2 -6 -9 -14z m-806 -44 c3 -4 -29 -9 -72 -11 -87 -4 -324 -2 -332 2
-3 1 83 5 190 8 107 3 198 7 202 8 4 1 9 -2 12 -7z m240 -10 c-10 -10 -154
-10 -154 0 0 6 32 9 79 7 44 -2 77 -5 75 -7z m226 2 c0 -4 -35 -9 -77 -10 -43
-1 -70 1 -61 5 26 10 138 14 138 5z m-239 -57 c-13 -16 -7 -23 37 -37 l27 -8
-25 0 c-38 2 -47 -2 -28 -9 9 -4 -40 -7 -110 -7 -76 1 -130 -3 -134 -10 -5 -6
-11 -5 -18 5 -7 12 -13 13 -28 4 -10 -7 -36 -12 -57 -12 -71 -2 -179 -12 -228
-22 -51 -10 -95 -9 -115 4 -7 4 -12 27 -12 52 l0 44 269 0 c237 0 270 -2 275
-16 3 -9 4 -20 0 -25 -3 -5 0 -9 5 -9 6 0 11 12 11 28 0 20 3 23 9 13 8 -12
12 -12 25 -2 11 9 16 10 16 2 0 -8 6 -7 20 1 17 11 22 10 29 0 7 -11 9 -11 14
2 4 9 12 16 18 16 9 0 9 -4 0 -14z m217 -32 c-11 -10 -98 -14 -98 -4 0 5 23
10 52 10 28 0 49 -3 46 -6z m42 -26 c0 -15 -2 -28 -4 -28 -2 0 -8 13 -14 28
-8 23 -7 29 4 29 9 0 14 -11 14 -29z m-150 7 c10 -13 9 -15 -9 -15 -12 0 -21
6 -21 15 0 8 4 15 9 15 5 0 14 -7 21 -15z m-5580 -10 c0 -8 5 -15 11 -15 5 0
7 5 4 10 -8 14 21 13 48 -1 16 -9 22 -9 25 0 3 8 8 9 16 2 6 -5 81 -11 165
-12 l153 -2 -6 -28 c-3 -16 -1 -29 4 -29 19 0 10 -27 -13 -37 -19 -9 -26 -8
-35 8 -12 19 -30 20 -293 5 l-86 -5 -7 37 c-9 54 -7 82 4 82 6 0 10 -7 10 -15z
m5681 -14 c-8 -5 -20 -7 -28 -4 -21 8 -15 13 15 13 20 0 23 -3 13 -9z m-12
-41 c27 0 24 -8 -5 -15 -11 -2 -57 -16 -104 -31 -47 -14 -121 -36 -165 -47
-44 -12 -86 -28 -93 -37 -11 -13 -11 -13 -6 3 5 14 0 17 -35 17 -30 0 -41 -4
-41 -15 0 -28 -48 -35 -218 -34 -99 1 -157 4 -142 9 24 8 23 8 -7 9 -18 1 -33
-3 -33 -9 0 -5 -4 -10 -9 -10 -5 0 -7 9 -4 20 4 16 0 20 -17 20 -18 0 -21 -4
-17 -21 3 -13 1 -19 -6 -16 -7 2 -11 12 -11 21 1 10 -6 16 -18 16 -10 0 -17
-4 -13 -9 3 -5 -7 -9 -22 -9 -16 1 -39 -2 -52 -7 -14 -4 -26 -3 -30 4 -5 7
-16 6 -35 -4 -38 -20 -45 -19 -39 8 3 13 1 17 -4 10 -4 -6 -35 -11 -68 -12
-51 0 -81 -3 -140 -13 -5 0 -21 2 -34 6 -15 6 -21 5 -17 -2 10 -17 -3 -20
-128 -26 -92 -5 -121 -4 -128 6 -6 9 -10 10 -15 2 -5 -7 -24 -9 -53 -5 -25 3
-40 9 -35 13 6 3 83 26 172 51 l163 46 225 0 c124 0 228 2 232 4 7 4 392 10
477 7 16 0 36 -6 45 -13 11 -9 13 -9 8 0 -8 13 -6 13 161 15 50 1 92 5 92 10
0 4 -37 9 -82 10 l-83 2 85 3 c58 3 80 7 70 13 -13 8 -12 10 3 10 9 0 17 -7
17 -15 0 -13 4 -14 20 -5 11 6 17 16 14 22 -5 8 9 9 47 5 30 -4 65 -7 78 -7z
m2609 4 c-8 -7 -189 -6 -196 1 -3 3 41 5 98 5 57 0 101 -3 98 -6z m-2841 -11
c-20 -2 -52 -2 -70 0 -17 2 0 4 38 4 39 0 53 -2 32 -4z m2401 0 c-32 -2 -86
-2 -120 0 -35 2 -9 3 57 3 66 0 94 -1 63 -3z m180 0 c-21 -2 -57 -2 -80 0 -24
2 -7 4 37 4 44 0 63 -2 43 -4z m-2988 -20 c2 -2 -14 -2 -37 -1 -23 2 -39 6
-37 10 5 7 64 0 74 -9z m178 0 c-26 -2 -71 -2 -100 0 -29 2 -8 3 47 3 55 0 79
-1 53 -3z m3395 -8 c8 -8 17 -11 21 -8 3 4 15 -3 26 -15 12 -12 24 -22 29 -22
15 0 31 -51 30 -93 l-2 -42 -6 43 c-13 79 -61 120 -148 127 -62 4 -65 6 -23
15 54 11 58 11 73 -5z m-125 0 c-9 -9 -169 -12 -174 -3 -3 4 36 8 87 8 51 0
90 -2 87 -5z m-241 -11 c-8 -9 -267 -10 -267 -1 0 4 62 7 137 7 75 0 134 -3
130 -6z m-379 -9 c-8 -9 -249 -11 -254 -3 -3 5 54 8 127 8 73 0 130 -2 127 -5z
m520 -47 c7 -7 12 -22 12 -34 0 -23 24 -39 50 -35 15 3 27 13 74 58 19 19 27
21 57 13 60 -17 82 -60 94 -183 l6 -58 -33 17 c-28 14 -71 16 -357 15 -179 -1
-405 -3 -503 -6 -182 -5 -184 -4 -192 35 -1 3 -5 10 -9 17 -4 6 -2 14 3 16 6
3 5 4 -2 3 -7 -2 -12 -13 -10 -27 1 -13 -4 -33 -13 -44 -15 -19 -16 -14 -11
74 6 102 17 121 66 120 17 0 20 -3 10 -7 -38 -17 -60 -39 -60 -58 0 -36 12
-34 41 6 18 25 37 40 52 41 12 0 16 3 9 6 -39 16 23 22 226 24 188 1 451 11
473 17 3 1 10 -3 17 -10z m-6968 -53 c-8 -9 -21 -13 -36 -9 -14 4 -24 2 -24
-5 0 -6 -7 -8 -17 -4 -11 4 -14 3 -9 -5 5 -8 2 -10 -9 -6 -9 4 -23 -2 -33 -14
-13 -15 -39 -23 -97 -31 -44 -6 -83 -15 -88 -20 -5 -5 -7 -26 -5 -47 3 -39 3
-39 46 -38 23 1 42 -3 42 -8 0 -6 -7 -7 -16 -4 -9 4 -23 1 -30 -5 -8 -6 -14
-8 -14 -4 0 4 -7 2 -15 -5 -8 -7 -24 -10 -36 -7 -15 4 -18 3 -9 -7 8 -10 5
-13 -12 -11 -42 4 -43 6 -24 20 11 8 15 15 9 15 -6 0 -11 21 -11 47 -1 35 4
51 19 64 l20 17 -22 4 c-23 3 314 75 360 77 20 1 21 -1 11 -14z m4020 8 c0 -2
-10 -17 -22 -34 -19 -25 -34 -89 -22 -89 2 0 15 18 28 39 14 22 32 38 41 37
19 -3 40 -23 40 -38 0 -6 5 -13 12 -15 7 -3 10 3 6 15 -2 11 0 23 5 26 7 4 10
-6 10 -24 -1 -16 -4 -30 -7 -30 -3 0 -12 -9 -18 -19 -11 -17 -10 -19 7 -16 11
2 20 0 20 -5 0 -13 -33 -23 -81 -24 -37 -1 -46 2 -42 14 3 9 -1 8 -11 -4 -9
-11 -16 -29 -17 -40 0 -21 -1 -21 -9 -1 -5 11 -9 14 -9 8 -1 -7 -5 -13 -11
-13 -16 0 -12 47 5 54 8 3 15 1 15 -3 0 -5 -6 -12 -12 -14 -8 -3 -6 -6 5 -6
18 -1 21 7 11 34 -6 13 -9 14 -16 3 -5 -8 -7 10 -6 47 3 52 6 61 28 72 14 7
18 13 10 13 -12 0 -12 2 -2 8 13 9 42 12 42 5z m-3920 -23 c-20 -13 -40 -13
-40 0 0 6 12 10 28 10 21 0 24 -2 12 -10z m4360 -29 c0 -7 -6 -11 -13 -8 -24
9 -39 -73 -34 -177 4 -59 2 -94 -4 -91 -5 4 -9 21 -9 39 0 18 -3 61 -6 95 -6
50 -9 59 -20 50 -11 -9 -14 -5 -14 19 0 28 32 67 49 58 3 -1 14 5 24 16 16 17
16 18 0 18 -15 0 -16 2 -3 10 15 10 30 -4 30 -29z m1557 -73 c1 -81 -1 -99
-10 -83 -6 11 -12 34 -14 50 -1 17 -6 51 -11 77 -10 51 -8 58 18 58 14 0 16
-15 17 -102z m-130 82 c12 0 14 -6 8 -27 -8 -33 -23 -45 -47 -37 -12 3 -18 0
-18 -10 0 -8 -4 -17 -9 -20 -10 -7 -9 20 2 30 4 4 7 19 7 34 0 32 9 43 28 35
7 -3 21 -5 29 -5z m-7861 -15 c-3 -8 -1 -15 4 -15 6 0 10 6 11 13 0 8 2 8 5 1
3 -7 15 -10 27 -7 13 3 18 1 11 -4 -19 -15 -16 -81 5 -93 16 -8 18 -6 15 8 -9
36 10 44 109 45 l95 2 6 -48 c4 -26 2 -55 -3 -65 -6 -9 -11 -12 -11 -7 0 6
-18 10 -40 9 -21 0 -37 2 -35 6 2 4 -38 6 -89 6 -73 -1 -92 2 -88 12 2 7 11
11 18 8 8 -3 14 -2 14 3 0 5 -11 12 -25 15 -21 5 -25 12 -25 46 0 21 -4 41
-10 45 -9 5 -3 35 7 35 3 0 3 -7 -1 -15z m2399 8 c-57 -3 -75 -7 -65 -14 11
-7 -1 -9 -40 -8 -30 0 -82 0 -115 -1 -49 -2 -55 -4 -30 -10 19 -5 -22 -8 -107
-9 -125 -1 -172 8 -118 22 13 3 18 1 13 -6 -5 -9 -3 -9 8 -1 24 18 48 24 55
12 4 -6 3 -8 -4 -4 -6 3 -13 2 -17 -4 -3 -5 1 -10 9 -10 8 0 18 5 22 11 3 6
17 9 30 6 13 -2 32 1 41 8 13 9 70 13 208 12 104 0 154 -2 110 -4z m3452 -81
c-3 -41 -11 -80 -18 -86 -9 -8 -11 -7 -6 5 4 13 1 15 -14 12 -11 -3 -22 -9
-25 -14 -3 -5 -14 -9 -25 -9 -14 0 -18 4 -13 13 6 9 3 8 -8 -1 -17 -14 -102
-24 -125 -15 -7 3 -13 13 -13 22 0 23 -23 71 -34 71 -5 0 -24 11 -42 25 -18
14 -42 25 -54 25 -12 0 -20 5 -18 11 3 8 63 13 188 16 102 2 186 6 189 8 2 3
8 2 14 -2 6 -3 7 -36 4 -81z m29 -67 c-13 -13 -15 -13 -13 5 1 11 4 20 7 20 3
0 3 23 2 50 -2 28 0 58 4 68 6 11 10 -8 12 -56 2 -54 -1 -76 -12 -87z m-5536
139 c-12 -4 -14 -15 -12 -44 3 -25 0 -40 -7 -40 -6 0 -9 13 -7 31 3 25 -1 33
-18 37 -20 6 -20 6 4 13 14 4 32 7 40 7 13 0 13 -1 0 -4z m4808 -1 c-16 -2
-40 -2 -55 0 -16 2 -3 4 27 4 30 0 43 -2 28 -4z m256 -2 c11 -4 -20 -6 -70 -4
-121 6 -137 11 -34 11 47 0 94 -3 104 -7z m736 -6 c0 -8 -4 -15 -10 -15 -5 0
-10 -8 -11 -17 0 -15 -2 -15 -8 2 -5 11 -4 25 1 33 14 17 28 15 28 -3z m123
-65 c-3 -41 -9 -79 -13 -84 -14 -14 -43 2 -36 20 3 8 2 13 -3 9 -5 -3 -11 24
-13 60 -3 69 0 74 44 71 l26 -1 -5 -75z m-4701 -7 c-4 -86 -22 -109 -22 -29 0
31 -5 66 -10 77 -9 16 -7 19 12 19 22 0 23 -3 20 -67z m926 60 c-21 -2 -57 -2
-80 0 -24 2 -7 4 37 4 44 0 63 -2 43 -4z m808 -5 c4 -7 3 -8 -4 -4 -7 4 -12 1
-12 -9 0 -10 5 -13 12 -9 7 4 8 3 4 -4 -4 -7 -17 -12 -30 -12 -12 0 -31 -7
-42 -16 -10 -8 -13 -12 -6 -9 10 5 12 -5 10 -44 -2 -28 -6 -51 -9 -51 -4 0 -9
-9 -12 -21 -3 -12 -10 -18 -16 -14 -7 4 -9 -1 -5 -12 5 -16 4 -16 -10 1 -13
16 -18 17 -31 6 -10 -8 -15 -9 -15 -1 0 6 -7 11 -15 11 -8 0 -15 -4 -15 -8 0
-4 -8 -8 -17 -9 -64 -5 -120 -34 -107 -55 3 -4 0 -8 -5 -8 -6 0 -11 4 -11 9 0
5 -13 12 -29 16 -28 6 -28 8 -20 45 5 22 5 49 0 62 -8 21 -9 19 -16 -17 -10
-60 -27 -109 -39 -117 -17 -12 -38 -9 -31 3 4 6 -3 5 -14 -3 -18 -11 -23 -11
-31 2 -7 11 -5 16 8 18 9 2 22 8 27 14 7 6 4 7 -6 3 -10 -4 -22 3 -33 19 -20
31 -20 36 -1 36 20 0 19 17 -2 29 -17 10 -17 10 0 11 9 0 17 4 17 9 0 14 -28
21 -34 8 -2 -7 -5 -5 -5 5 -1 9 -4 23 -7 32 -4 11 -1 16 10 16 9 0 16 -6 16
-14 0 -8 8 -15 18 -15 9 -1 33 -3 53 -7 40 -6 58 8 40 30 -9 10 -5 13 16 13
16 -1 88 12 161 27 73 15 140 25 148 22 8 -3 12 -2 9 3 -3 6 12 12 32 14 21 2
39 4 40 5 1 1 5 -3 9 -10z m-2912 -6 c-6 -4 -13 -15 -17 -25 -4 -10 -11 -15
-17 -12 -16 10 -12 33 8 38 28 8 38 7 26 -1z m-1007 -15 c6 0 14 -23 18 -51 9
-68 34 -136 51 -136 8 0 14 6 14 14 0 9 18 15 53 20 28 3 63 9 76 13 16 4 22
2 18 -4 -4 -6 -36 -14 -72 -18 -98 -10 -79 -25 28 -21 50 2 156 5 234 5 139 1
142 1 146 24 4 20 4 20 6 -4 1 -22 5 -25 31 -21 17 2 30 9 30 16 0 6 5 4 10
-5 8 -13 28 -17 100 -18 49 -1 99 3 110 9 15 8 28 7 54 -5 27 -13 42 -14 71
-6 20 5 42 8 49 5 7 -3 31 -1 54 4 27 6 44 6 51 -1 7 -7 14 -7 23 1 15 12 876
15 1001 3 55 -5 83 -4 95 5 9 6 44 17 77 24 33 8 66 18 73 23 13 10 14 8 16
-36 2 -23 -2 -27 -16 -24 -10 3 -16 1 -12 -4 3 -5 2 -9 -3 -10 -12 -1 -34 -7
-70 -17 -17 -6 -34 -8 -37 -5 -2 3 -11 1 -18 -3 -7 -5 -17 -10 -23 -11 -172
-48 -322 -82 -363 -83 -49 0 -58 4 -97 38 -24 21 -61 43 -82 49 -38 11 -525 9
-543 -2 -5 -3 -45 -4 -89 -3 -60 2 -80 6 -76 16 2 6 0 12 -5 12 -6 0 -10 -4
-10 -9 0 -5 -12 -14 -27 -19 -24 -9 -16 -11 47 -13 41 -1 62 -4 47 -6 -25 -4
-27 -6 -15 -21 12 -16 11 -16 -6 -2 -15 11 -20 12 -23 3 -5 -14 -41 -17 -69
-6 -16 6 -16 7 2 14 18 7 18 8 -1 8 -11 0 -31 -8 -45 -19 -19 -14 -43 -20 -95
-22 l-70 -2 68 -3 c37 -2 67 -7 67 -11 0 -7 -78 -8 -205 -2 l-60 3 65 7 65 7
-55 3 c-30 2 -71 4 -90 5 -19 1 -71 -6 -115 -17 -76 -19 -106 -19 -635 -13
-305 4 -587 8 -627 9 -60 2 -72 0 -76 -14 -4 -17 -46 -30 -93 -30 -12 0 -29
-7 -38 -15 -16 -16 -36 -18 -87 -8 -28 5 -30 7 -14 14 11 4 -97 8 -239 8 -143
1 -257 -1 -255 -4 6 -5 100 -18 141 -19 19 -1 24 -4 17 -13 -8 -8 -2 -13 18
-16 15 -2 -26 -4 -92 -4 -102 1 -109 1 -45 6 l75 6 -68 6 c-74 7 -90 14 -67
30 11 7 4 9 -25 5 -22 -3 -62 -2 -90 3 -45 8 -47 9 -15 10 31 2 32 3 13 11
-13 6 -33 4 -52 -3 -24 -9 -34 -8 -43 1 -9 9 -8 12 5 12 9 0 17 4 17 9 0 5 9
7 20 4 11 -3 27 0 35 7 8 7 22 10 30 6 18 -7 90 3 330 46 187 33 183 33 710
22 294 -6 302 -5 420 19 96 20 207 34 298 37 4 0 7 9 7 20 0 18 -7 20 -72 20
-42 0 -124 -12 -193 -27 -94 -21 -150 -27 -257 -28 -116 -2 -136 0 -127 12 9
11 8 12 -5 7 -9 -3 -16 -9 -16 -13 0 -3 -21 -4 -46 -2 -34 2 -43 6 -33 13 10
7 8 8 -6 2 -25 -10 -266 -13 -410 -4 -60 4 -101 7 -90 8 12 1 25 6 30 11 6 5
41 12 79 15 38 4 72 8 76 11 4 2 45 9 91 15 46 5 100 12 119 15 87 14 465 78
560 95 73 13 128 17 180 13 41 -3 80 -6 87 -6z m1110 2 c33 2 45 -1 50 -15 6
-16 7 -16 20 2 12 17 13 17 13 -5 0 -20 -4 -22 -32 -18 -18 3 -42 8 -52 13
-11 4 -17 4 -14 -2 7 -10 -59 -10 -69 0 -4 3 -1 6 5 6 7 0 12 7 12 16 0 9 5
12 12 8 7 -4 32 -7 55 -5z m456 -8 c160 -1 207 -4 207 -13 0 -9 3 -8 10 2 8
12 13 13 30 3 24 -16 33 -17 25 -3 -4 6 6 10 23 10 30 0 48 -22 36 -41 -3 -6
0 -16 6 -24 10 -12 8 -15 -11 -15 -19 0 -21 -2 -9 -10 11 -7 5 -9 -22 -8 -21
1 -35 4 -33 7 4 7 -273 4 -292 -4 -7 -2 -13 0 -13 6 0 22 -91 50 -177 55 -52
3 -90 10 -95 17 -11 17 7 24 60 21 26 -2 140 -3 255 -3z m572 -90 c-4 -14 -9
-20 -13 -15 -7 11 -66 13 -76 4 -3 -3 -23 -4 -45 -2 -26 3 -38 8 -35 16 3 7
-2 19 -11 26 -14 12 -15 10 -11 -16 5 -27 4 -28 -9 -10 -8 10 -12 23 -9 27 3
5 -3 9 -12 9 -15 0 -15 3 5 24 20 21 31 24 114 25 50 1 94 4 97 7 8 9 12 -66
5 -95z m1834 58 c-13 -9 -27 -15 -32 -12 -5 3 -3 -4 5 -16 7 -12 16 -21 20
-21 3 0 5 -8 3 -17 -1 -10 1 -25 6 -34 7 -14 1 -19 -35 -28 -24 -6 -52 -14
-62 -18 -16 -6 -16 -3 4 29 12 19 22 48 22 64 0 22 10 36 38 56 40 28 70 26
31 -3z m2958 -31 c-2 -13 -4 -5 -4 17 -1 22 1 32 4 23 2 -10 2 -28 0 -40z
m-3727 28 c23 -8 58 -36 45 -36 -3 0 0 -10 7 -22 6 -13 11 -35 9 -50 -1 -16 2
-28 8 -28 6 0 11 -9 11 -21 0 -17 -4 -19 -22 -13 -13 4 -26 11 -29 16 -4 6
-121 9 -288 9 -164 0 -279 3 -276 9 3 5 0 12 -6 15 -5 4 -8 12 -6 19 3 8 -7
12 -32 11 -53 -2 -61 4 -61 40 l0 33 163 1 c192 1 280 6 301 18 19 11 143 10
176 -1z m5277 -50 c1 -58 -1 -65 -21 -70 -36 -10 -49 -7 -42 10 3 8 2 12 -4 9
-6 -3 -10 4 -10 16 0 13 17 39 38 61 20 21 37 38 38 38 0 0 1 -29 1 -64z m176
-37 c-4 -4 -6 13 -3 39 l5 47 3 -39 c2 -21 0 -42 -5 -47z m-8598 36 c2 -14 0
-27 -4 -29 -4 -3 -7 11 -8 30 -1 39 8 39 12 -1z m8695 10 c-13 -14 -26 -23
-28 -20 -4 4 38 44 47 45 3 0 -6 -11 -19 -25z m-3497 2 c4 15 5 14 6 -4 0 -13
-7 -27 -18 -33 -28 -14 -30 -13 -29 20 1 28 2 29 19 14 16 -14 18 -14 22 3z
m4677 -27 c0 -36 -16 -40 -22 -5 -4 20 0 28 20 34 1 1 2 -12 2 -29z m-3175
-74 l5 -77 -72 3 -73 3 -3 49 c-4 57 5 66 64 64 47 -1 64 6 64 29 0 9 2 14 5
11 3 -2 7 -39 10 -82z m2903 78 c-4 -3 -199 -7 -435 -8 -290 -2 -354 -1 -198
3 338 9 639 12 633 5z m102 -2 c0 -4 -16 -6 -35 -4 -19 2 -35 6 -35 8 0 2 16
4 35 4 19 0 35 -4 35 -8z m-8350 -16 c0 -2 -15 -9 -32 -15 -30 -10 -31 -9 -14
4 18 14 46 20 46 11z m5293 -3 c-18 -2 -48 -2 -65 0 -18 2 -4 4 32 4 36 0 50
-2 33 -4z m-6264 -7 c-7 -8 -179 -9 -186 -2 -3 3 38 6 92 6 54 0 96 -2 94 -4z
m4854 -39 c9 -3 76 -5 151 -3 107 2 132 0 118 -9 -9 -7 -30 -15 -47 -19 -42
-9 -51 -12 -160 -56 -88 -35 -176 -64 -241 -80 -45 -12 -50 -15 -46 -36 4 -23
2 -23 -67 -23 -39 1 -69 5 -66 9 3 5 11 7 18 4 8 -3 24 0 38 6 19 8 9 9 -48 7
-40 -1 -73 1 -73 5 0 4 10 8 22 8 12 0 19 2 17 5 -5 5 -180 19 -214 17 -11 -1
-147 -2 -303 -3 -155 -1 -285 -5 -288 -10 -3 -5 -11 -9 -17 -9 -8 0 -7 4 2 9
9 6 -29 9 -105 8 -100 0 -108 -1 -49 -6 52 -5 64 -8 45 -13 -51 -15 -209 9
-196 30 2 4 -43 6 -100 4 -65 -1 -104 2 -104 8 0 5 5 10 10 10 6 0 10 7 10 15
0 8 4 15 8 15 5 0 19 9 32 20 13 11 32 21 44 22 63 4 76 3 76 -9 0 -19 22 -16
53 9 17 14 45 23 75 25 26 2 70 10 99 18 40 12 115 15 355 14 166 0 308 0 313
1 6 1 12 2 15 1 6 -1 380 -3 443 -2 38 1 47 4 47 19 0 10 3 13 8 6 4 -6 24
-11 44 -12 30 -1 38 3 44 21 l7 22 8 -21 c4 -12 14 -24 22 -27z m1674 -4 c-3
-10 -5 -2 -5 17 0 19 2 27 5 18 2 -10 2 -26 0 -35z m1263 19 c0 -4 -9 -8 -21
-9 -17 -2 -18 1 -9 12 12 14 30 12 30 -3z m-1712 -22 c8 -16 12 -40 10 -52 -2
-19 -10 -24 -40 -26 l-38 -3 0 44 c0 36 4 46 23 55 31 15 31 15 45 -18z m3596
-67 c3 -42 6 -96 6 -120 0 -38 -3 -43 -22 -44 -37 -3 -100 -1 -103 3 -2 2 -6
54 -10 117 l-8 114 30 -6 c17 -3 43 -2 59 3 16 4 32 9 35 9 3 1 9 -33 13 -76z
m-3224 58 c0 -5 3 -23 6 -40 6 -28 4 -31 -19 -31 -26 0 -37 16 -37 56 0 19 5
24 25 24 14 0 25 -4 25 -9z m-8241 -15 c-10 -8 -79 -14 -79 -6 0 5 17 10 38
12 37 3 49 1 41 -6z m7011 -6 c-19 -10 -43 -16 -54 -13 -12 3 -16 1 -12 -6 5
-7 1 -8 -10 -4 -14 5 -12 8 10 20 15 8 31 11 36 8 6 -3 10 -1 10 4 0 6 12 11
28 11 27 -1 27 -1 -8 -20z m767 -32 c-2 -13 -4 -5 -4 17 -1 22 1 32 4 23 2
-10 2 -28 0 -40z m3372 -31 c3 -28 5 -68 5 -87 1 -19 7 -39 13 -43 19 -12 36
-47 23 -47 -5 0 -10 6 -10 14 0 22 -25 26 -151 27 -66 0 -119 3 -119 6 0 10
94 88 102 85 4 -1 8 2 8 7 0 15 68 83 77 78 5 -3 15 -2 23 4 23 14 25 12 29
-44z m-6616 36 c3 -5 -23 -7 -56 -5 -104 5 -116 9 -30 11 45 0 84 -2 86 -6z
m-795 -40 c1 -16 -2 -22 -11 -18 -6 4 -2 -2 11 -14 16 -14 19 -22 11 -27 -7
-4 -20 2 -30 15 -13 16 -20 18 -26 9 -11 -19 -14 -81 -3 -88 5 -3 10 -17 12
-32 2 -15 8 -31 13 -35 4 -4 5 -2 1 5 -4 6 -2 12 3 12 14 0 14 73 0 87 -8 8
-3 11 17 10 34 -2 46 -15 34 -37 -6 -10 -5 -21 1 -27 7 -7 -1 -18 -23 -35 -30
-22 -36 -24 -63 -12 -16 7 -37 13 -45 13 -8 0 0 -7 18 -15 17 -8 32 -17 32
-20 0 -3 -4 -2 -10 1 -5 3 -10 2 -10 -4 0 -12 37 -24 50 -16 5 3 10 4 10 0 0
-3 -12 -10 -27 -16 l-26 -10 34 -28 c19 -16 37 -27 41 -25 4 3 12 -4 18 -15
10 -19 8 -20 -52 -16 -35 2 -71 5 -80 5 -12 0 -18 8 -18 25 0 16 -6 25 -16 25
-12 0 -15 -7 -12 -25 3 -14 1 -25 -3 -25 -5 0 -9 9 -9 19 0 11 -4 23 -10 26
-14 9 -12 -38 3 -55 10 -12 9 -12 -4 -2 -9 7 -53 15 -98 19 -81 6 -82 7 -79
31 2 20 11 28 37 35 35 9 81 34 93 51 4 6 14 2 25 -11 17 -19 21 -20 48 -8 29
13 29 14 8 20 -21 7 -23 14 -23 66 0 33 -4 59 -10 59 -5 0 -10 -5 -10 -10 0
-6 -10 -9 -22 -7 -13 2 -17 2 -10 0 6 -3 12 -11 12 -19 0 -8 5 -12 10 -9 6 4
10 -10 10 -34 0 -23 -4 -41 -10 -41 -5 0 -10 5 -10 11 0 8 -5 8 -15 -1 -17
-14 -17 -15 -23 78 -1 12 -6 22 -11 22 -5 0 -7 -25 -4 -55 3 -36 1 -55 -6 -55
-6 0 -10 -5 -8 -11 2 -10 -24 -15 -95 -19 -18 -1 -22 -16 -18 -54 1 -11 -4
-37 -11 -58 -9 -30 -10 -41 -1 -50 7 -7 11 -30 11 -52 -2 -32 -3 -35 -6 -13
-4 27 -5 28 -19 10 -9 -11 -12 -13 -9 -3 6 17 13 81 20 184 5 73 38 156 62
156 8 0 11 -4 8 -10 -3 -6 1 -7 9 -4 23 9 19 24 -6 24 -20 0 -21 1 -3 20 21
23 8 27 -21 5 -22 -17 -34 -19 -34 -6 0 5 12 13 28 19 26 11 208 59 247 65 11
2 27 7 35 10 53 20 66 18 68 -10z m1007 -24 l50 -6 -45 -3 c-25 -2 -51 -3 -57
-3 -7 1 -13 -6 -13 -14 0 -8 4 -12 8 -9 5 3 10 -19 11 -49 1 -30 -3 -55 -7
-55 -11 0 -21 45 -24 99 -1 35 -1 35 -8 -9 l-7 -45 -1 42 c-1 23 3 45 8 48 6
4 7 11 4 17 -4 7 -2 8 4 4 8 -5 12 1 13 16 1 23 1 22 8 -2 6 -21 14 -26 56
-31z m3823 34 c-16 -2 -40 -2 -55 0 -16 2 -3 4 27 4 30 0 43 -2 28 -4z m2442
3 c0 -2 -12 -12 -27 -21 l-28 -18 19 21 c17 20 36 29 36 18z m-6134 -21 c-26
-19 -42 -19 -26 0 7 8 20 15 29 15 13 -1 13 -3 -3 -15z m-1929 -18 c4 -7 -7
-8 -33 -4 -21 4 -52 7 -69 8 -29 2 -29 2 5 8 43 8 88 2 97 -12z m1601 10 c8
-9 -8 -12 -71 -10 -65 1 -85 -2 -94 -15 -8 -9 -13 -11 -13 -4 0 7 -9 12 -19
12 -22 0 -37 16 -21 22 6 1 55 4 109 5 68 2 102 -2 109 -10z m-708 -49 c0 -16
-3 -19 -11 -11 -6 6 -8 16 -5 22 11 17 16 13 16 -11z m740 0 c-1 -13 2 -68 5
-123 5 -77 3 -96 -5 -82 -9 14 -15 15 -25 7 -8 -7 -15 -7 -19 -1 -4 6 -36 8
-76 6 l-70 -4 -1 27 -2 27 -4 -27 c-2 -16 -11 -28 -18 -28 -8 0 -12 6 -9 14 3
8 1 23 -5 33 -9 15 -10 13 -11 -14 l0 -31 -90 0 -90 0 0 38 0 39 73 21 c39 12
80 23 89 26 10 3 15 11 11 20 -6 16 23 19 45 5 8 -5 43 0 87 13 77 22 101 35
69 37 -15 1 -13 3 6 9 38 12 40 12 40 -12z m-3737 5 c-40 -2 -106 -2 -145 0
-40 1 -8 3 72 3 80 0 112 -2 73 -3z m147 -2 c0 -4 -13 -8 -29 -7 -16 1 -27 4
-24 9 6 10 53 9 53 -2z m394 1 c165 -1 297 -4 294 -7 -9 -9 -661 -6 -670 3 -4
4 11 7 35 6 23 0 177 -2 341 -2z m3636 -14 c0 -5 -4 -7 -9 -4 -12 8 -42 -4
-36 -14 2 -4 -28 -8 -68 -9 -51 -1 -68 2 -57 9 8 5 29 10 45 10 21 0 26 3 16
9 -9 6 8 9 48 8 33 0 61 -4 61 -9z m4201 3 c15 -1 26 -7 26 -16 0 -8 -3 -12
-7 -10 -4 2 -38 5 -76 5 -38 1 -87 4 -109 7 -63 9 -14 22 70 18 39 -2 82 -3
96 -4z m-5881 -10 c-22 -12 -95 -22 -84 -11 8 8 41 15 84 18 13 1 13 0 0 -7z
m745 -31 c0 -34 0 -35 -45 -37 -40 -2 -46 1 -47 20 -1 12 3 25 10 29 9 6 9 8
0 8 -7 0 -13 5 -13 11 0 6 19 9 47 7 46 -3 47 -3 48 -38z m245 32 c0 -12 -86
-33 -107 -26 -13 4 -15 3 -5 -4 10 -7 7 -11 -15 -15 -15 -3 -35 -8 -44 -12
-13 -5 -18 1 -21 24 -4 24 0 31 16 34 39 8 176 7 176 -1z m1880 -29 c0 -12 -7
-14 -31 -9 -17 3 -40 6 -50 6 -11 0 -19 5 -19 12 0 6 3 9 6 6 3 -4 17 0 31 7
30 16 63 4 63 -22z m-4395 17 c-8 -12 35 -13 54 -1 9 6 19 4 28 -5 9 -8 37
-14 71 -15 150 -3 137 1 138 -43 1 -21 7 -42 14 -46 9 -6 10 -9 0 -15 -7 -4
-16 -1 -21 6 -6 11 -13 11 -26 3 -10 -5 -33 -9 -50 -8 -18 0 -33 -2 -33 -6 0
-4 -12 -11 -27 -15 -16 -4 -22 -10 -15 -12 6 -3 9 -10 6 -15 -4 -6 -3 -8 2 -5
6 3 16 2 24 -4 12 -7 10 -9 -8 -9 l-23 0 21 -22 c11 -12 18 -28 16 -35 -3 -7
-1 -15 4 -18 6 -4 10 -25 9 -48 -1 -34 -2 -37 -8 -17 -6 22 -8 23 -14 7 -4
-10 1 -33 13 -55 11 -20 20 -50 19 -67 0 -25 -2 -27 -8 -10 -5 11 -7 23 -5 26
6 10 -17 16 -55 13 -32 -2 -33 -1 -27 28 5 26 3 30 -14 25 -14 -4 -22 2 -29
22 -8 23 -10 21 -10 -21 l-1 -48 -52 1 c-29 1 -43 4 -30 6 12 2 22 9 22 14 0
14 -40 11 -46 -5 -3 -8 -19 -12 -45 -11 -22 1 -41 4 -43 6 -2 2 -6 34 -10 71
-6 58 -4 67 9 62 8 -4 15 -1 15 4 0 6 10 12 23 14 15 2 23 11 24 28 1 14 0 20
-3 14 -5 -12 -51 -7 -60 7 -3 5 0 9 5 9 16 0 13 14 -7 36 -26 29 -72 90 -72
97 0 3 21 5 47 3 34 -2 48 -7 53 -20 5 -15 8 -13 20 11 20 40 41 63 57 63 8 0
13 -8 11 -17 -2 -11 5 -19 17 -21 11 -2 16 0 10 5 -17 14 -17 43 0 43 9 0 13
-4 10 -10z m751 -2 c7 -5 115 -9 241 -9 228 1 230 0 252 -23 21 -22 42 -108
33 -134 -4 -13 -32 -17 -32 -4 0 7 -69 10 -370 17 -281 6 -322 12 -313 46 3
11 0 31 -7 45 -10 18 -11 30 -2 48 10 24 15 25 99 24 48 0 93 -5 99 -10z
m-3119 -5 c-20 -2 -52 -2 -70 0 -17 2 0 4 38 4 39 0 53 -2 32 -4z m2842 -48
c-1 -29 -1 -29 -9 -5 -4 14 -8 34 -9 45 -1 16 1 17 9 5 5 -8 9 -28 9 -45z
m911 45 c-9 -6 -7 -10 9 -15 11 -3 25 -4 30 -1 6 4 11 -30 13 -80 2 -69 0 -92
-14 -113 l-18 -26 -1 73 c-2 110 -2 110 -30 139 l-26 28 25 2 c16 1 20 -2 12
-7z m672 -242 c-1 -21 3 -38 9 -38 6 0 7 5 3 12 -4 7 -3 8 5 4 15 -10 3 -29
-15 -22 -17 7 -36 -27 -27 -49 5 -15 4 -15 -15 1 -16 13 -22 29 -22 59 l1 40
12 -29 c10 -23 15 -26 23 -15 8 10 7 46 -2 129 -18 163 -15 183 8 55 12 -60
20 -127 20 -147z m2036 245 c-10 -2 -26 -2 -35 0 -10 3 -2 5 17 5 19 0 27 -2
18 -5z m-6338 -19 c0 -2 -15 -4 -32 -3 -27 0 -29 2 -13 8 18 8 45 4 45 -5z
m5200 -4 c0 -18 7 -20 55 -20 50 0 56 -2 65 -26 12 -29 13 -84 2 -69 -14 20
-42 17 -42 -5 0 -15 -6 -20 -25 -20 -15 0 -25 6 -25 14 0 7 -9 16 -20 19 -14
3 -20 14 -21 34 -1 15 -2 43 -4 61 -1 17 1 32 6 32 5 0 9 -9 9 -20z m-3607 3
c-13 -2 -33 -2 -45 0 -13 2 -3 4 22 4 25 0 35 -2 23 -4z m120 0 c-18 -2 -48
-2 -65 0 -18 2 -4 4 32 4 36 0 50 -2 33 -4z m865 -73 c3 -39 1 -60 -6 -60 -6
0 -11 12 -11 28 1 15 -2 47 -6 72 -6 37 -5 43 6 33 7 -7 15 -40 17 -73z m1192
78 c0 -2 -7 -21 -15 -43 -12 -35 -14 -36 -15 -13 0 32 9 58 21 58 5 0 9 -1 9
-2z m2552 -16 c23 -6 -812 -10 -849 -4 -7 1 -13 5 -13 10 0 9 825 4 862 -6z
m-6192 0 c0 -4 -21 -6 -47 -4 -76 5 -83 10 -15 11 34 0 62 -2 62 -7z m1713 1
c-13 -2 -33 -2 -45 0 -13 2 -3 4 22 4 25 0 35 -2 23 -4z m780 -85 c4 -29 2
-38 -9 -38 -11 0 -14 15 -13 68 1 53 2 61 9 37 4 -16 10 -47 13 -67z m1097 47
c0 -25 7 -62 15 -81 16 -40 17 -86 0 -76 -5 3 -21 6 -35 6 -22 -1 -22 -1 -2 3
23 4 29 17 13 28 -5 3 -9 41 -9 85 0 44 4 80 9 80 5 0 9 -20 9 -45z m-2520 24
c0 -5 -6 -7 -12 -3 -9 6 -9 3 0 -9 8 -9 11 -21 7 -27 -4 -6 -7 -35 -7 -63 0
-40 -2 -46 -8 -27 -5 14 -8 19 -9 13 -1 -7 -7 -13 -15 -13 -9 0 -16 22 -23 70
l-9 70 38 0 c21 0 38 -5 38 -11z m6000 1 c0 -5 -4 -10 -10 -10 -5 0 -10 -7
-10 -16 0 -10 6 -14 15 -10 10 4 15 -1 15 -14 0 -22 -18 -24 -85 -11 l-40 9
35 2 c30 1 32 3 15 11 -17 8 -16 9 7 6 15 -2 25 0 22 4 -5 9 16 38 29 39 4 0
7 -4 7 -10z m-6724 -32 c22 -25 23 -27 4 -11 -14 12 -36 26 -50 32 -22 9 -23
10 -4 10 11 1 33 -14 50 -31z m10172 6 c38 -18 65 -42 82 -74 13 -24 44 -229
36 -237 -2 -2 -19 3 -38 13 -18 10 -42 18 -53 19 -11 2 -45 7 -75 13 -30 6
-217 14 -415 18 -198 3 -439 9 -535 13 l-175 6 0 98 c0 95 -7 119 -21 75 -4
-13 -12 -26 -18 -30 -8 -5 -8 -12 0 -25 7 -12 8 -31 2 -57 -5 -22 -7 -50 -4
-62 4 -13 0 -27 -9 -34 -18 -15 -17 -21 -17 122 1 65 6 126 11 137 7 12 24 21
44 23 17 2 284 2 592 0 481 -2 565 -5 593 -18z m-9260 9 c-15 -2 -42 -2 -60 0
-18 2 -6 4 27 4 33 0 48 -2 33 -4z m480 1 c12 -4 22 -11 22 -16 0 -5 -6 -6
-12 -1 -7 4 -56 11 -108 14 l-95 5 85 2 c47 1 95 -1 108 -4z m4885 -14 l97 -2
2 -56 c0 -32 1 -64 0 -72 -5 -48 -10 -71 -17 -78 -5 -4 -5 -2 -1 5 9 16 -34
29 -44 13 -4 -7 -13 -10 -19 -6 -6 4 -20 2 -31 -4 -16 -9 -25 -8 -36 1 -10 9
-14 9 -14 0 0 -8 -20 -11 -62 -9 l-63 3 -7 60 c-4 33 -15 77 -25 98 -21 48
-13 54 64 51 32 -2 102 -3 156 -4z m-2513 -30 c0 -16 -5 -30 -11 -30 -5 0 -7
5 -4 10 4 6 4 18 1 27 -5 12 -9 13 -21 3 -13 -11 -14 -10 -9 4 3 9 15 16 25
16 14 0 19 -7 19 -30z m891 -7 c1 -21 3 -49 4 -63 1 -14 -2 -34 -7 -45 -8 -18
-8 -18 -4 3 2 12 1 22 -2 22 -4 0 -8 27 -9 60 -1 34 2 60 7 60 6 0 11 -17 11
-37z m351 -1 c-7 -2 -13 -18 -13 -35 -2 -28 -2 -28 -6 -7 -10 53 -24 45 -17
-9 4 -33 3 -52 -2 -48 -6 3 -10 29 -9 58 0 48 2 54 25 59 24 6 44 -10 22 -18z
m123 18 c-3 -5 2 -10 12 -11 10 0 32 -2 48 -4 65 -6 336 -8 342 -2 3 4 11 3
18 -3 7 -6 24 -5 48 2 26 8 43 8 60 1 16 -8 29 -8 42 -1 41 24 195 4 195 -24
0 -5 4 -7 9 -4 13 8 34 -21 27 -39 -3 -9 0 -15 8 -15 9 0 15 -14 18 -38 3 -33
0 -38 -17 -37 -11 1 -38 10 -60 20 -35 16 -71 19 -290 21 -283 3 -386 11 -364
26 10 7 9 8 -6 2 -54 -20 -153 -15 -139 7 4 7 -1 9 -15 4 -16 -5 -21 -2 -21
12 0 39 13 61 43 76 38 19 50 21 42 7z m-5496 -14 c-9 -9 -69 -14 -63 -5 3 5
19 9 36 9 17 0 29 -2 27 -4z m8936 -33 c-17 -17 -20 -27 -5 -18 6 3 14 -4 19
-16 8 -23 8 -23 14 3 4 15 4 35 1 45 -6 15 -4 15 9 -2 24 -32 27 -91 4 -82 -9
3 -12 -5 -9 -29 5 -40 -4 -68 -18 -59 -8 5 -7 11 1 21 8 10 8 18 1 27 -6 6
-10 16 -10 22 0 5 -6 11 -13 14 -8 2 -10 -5 -5 -25 5 -20 4 -26 -3 -19 -16 16
-19 116 -5 122 7 3 10 12 6 21 -5 15 -3 15 11 4 14 -12 15 -16 2 -29z m-7773
-5 c-3 -13 -1 -19 5 -15 6 4 13 -2 16 -13 6 -24 -4 -33 -18 -16 -14 15 -20 80
-7 72 6 -3 8 -16 4 -28z m540 22 c2 -6 37 -13 78 -18 68 -6 75 -9 78 -30 2
-12 7 -20 12 -17 10 6 16 -12 25 -79 6 -42 4 -48 -9 -43 -28 11 -106 16 -305
22 -106 3 -197 8 -202 11 -5 3 -9 12 -9 20 0 8 -4 14 -10 14 -5 0 -10 -7 -10
-15 0 -8 -6 -15 -12 -16 -7 0 -23 -2 -35 -5 -12 -2 -28 3 -37 11 -14 15 -11
55 5 55 5 0 9 9 9 21 0 13 -5 19 -13 16 -10 -4 -12 3 -9 23 4 28 5 28 61 23
31 -3 60 -9 65 -14 5 -5 15 -4 21 1 6 5 74 10 151 11 83 1 131 5 119 9 -19 8
-19 9 2 9 12 1 23 -4 25 -9z m5297 -2 c11 -10 13 -10 7 0 -8 14 17 15 48 3 36
-14 -20 -21 -108 -13 -71 6 -76 7 -41 13 65 10 80 10 94 -3z m1238 -27 c15 -9
13 -10 -12 -7 -30 3 -105 31 -105 39 0 6 97 -20 117 -32z m970 -28 c-2 -16 -4
-5 -4 22 0 28 2 40 4 28 2 -13 2 -35 0 -50z m-4794 41 c-3 -8 -10 -11 -16 -7
-6 4 -26 6 -44 5 -18 -2 -33 1 -33 6 0 4 22 8 49 9 38 0 48 -3 44 -13z m555
-54 c-3 -38 -1 -70 4 -70 4 0 8 -9 8 -20 0 -27 -16 -25 -24 3 -8 29 -8 121 0
141 12 31 16 15 12 -54z m2570 39 c2 -5 22 -6 44 -2 31 4 39 3 34 -6 -7 -11
-147 -9 -361 4 -27 2 -63 4 -78 4 -16 1 -26 4 -24 9 7 10 381 3 385 -9z m1599
8 c6 -4 14 -1 17 5 3 7 5 -12 5 -42 -1 -30 2 -80 6 -111 l7 -55 -56 -1 c-60
-1 -75 9 -80 49 -1 13 -5 28 -9 34 -5 9 -11 91 -8 122 1 10 16 12 54 9 30 -2
59 -7 64 -10z m-6710 -12 c0 -8 -4 -12 -8 -10 -3 3 -9 -4 -12 -15 -5 -21 -27
-28 -27 -9 0 5 4 8 9 5 5 -3 11 3 14 14 6 22 -8 28 -16 8 -3 -8 -6 -6 -6 5 -1
11 6 17 22 17 14 0 24 -6 24 -15z m1705 -16 c-1 -13 -3 -32 -3 -42 0 -27 -19
-9 -19 18 0 13 -4 27 -10 30 -5 3 -10 -2 -10 -12 0 -15 -2 -16 -10 -3 -7 11
-5 18 6 27 25 18 49 9 46 -18z m973 11 c2 -4 -7 -5 -20 -2 -14 2 -27 8 -30 12
-2 4 7 5 20 2 14 -2 27 -8 30 -12z m6365 -5 c0 -23 -2 -24 -27 -12 -26 11 -26
12 -5 15 12 2 22 8 22 13 0 5 2 9 5 9 3 0 5 -11 5 -25z m-3690 5 c0 -13 -120
-13 -140 0 -10 7 9 10 63 10 45 0 77 -4 77 -10z m382 -1 c35 -7 59 -18 67 -31
11 -18 10 -18 -11 -7 -13 7 -45 14 -73 15 -27 1 -106 5 -175 8 -69 3 -135 6
-148 6 -13 0 -20 4 -17 10 8 14 287 13 357 -1z m-7762 -10 c88 -1 107 -3 80
-10 -86 -21 -313 -69 -316 -66 -2 1 -6 22 -10 46 l-7 43 69 -5 c38 -4 121 -7
184 -8z m3940 3 c0 -4 17 -7 38 -5 32 3 34 2 14 -7 -13 -5 -28 -8 -32 -5 -5 3
-11 1 -15 -5 -4 -6 -11 -8 -16 -5 -12 8 -12 35 1 35 6 0 10 -4 10 -8z m-1395
-29 c112 -7 116 -8 55 -13 -76 -6 -352 12 -330 23 8 3 47 4 85 2 39 -2 124 -8
190 -12z m2215 -6 c9 -3 6 -6 -10 -7 -14 0 -36 -7 -50 -15 -36 -21 -50 -18
-50 8 0 21 5 23 40 23 22 -1 40 4 40 9 0 6 3 5 8 -1 4 -6 14 -14 22 -17z
m-4052 -25 c0 -15 1 -32 2 -37 2 -6 1 -19 0 -30 -2 -11 -6 3 -10 30 -6 44 -5
65 4 65 2 0 3 -13 4 -28z m2160 21 c-15 -2 -42 -2 -60 0 -18 2 -6 4 27 4 33 0
48 -2 33 -4z m1660 -36 c1 -23 0 -38 -4 -34 -4 4 -14 1 -22 -6 -13 -10 -14 -9
-7 3 6 12 5 13 -5 3 -8 -7 -25 -9 -43 -6 -17 4 -28 2 -25 -3 4 -5 -4 -10 -17
-10 -18 -1 -24 6 -32 42 -6 24 -9 45 -7 46 1 2 38 4 81 4 l78 1 3 -40z m-3745
-3 c3 -17 0 -27 -10 -31 -8 -3 -12 -12 -9 -19 3 -7 1 -16 -3 -19 -6 -3 -8 82
-2 103 3 11 19 -12 24 -34z m5964 21 c0 -8 -4 -15 -9 -15 -5 0 -8 -15 -7 -32
4 -59 -1 -151 -8 -145 -11 12 -11 180 1 194 15 17 23 16 23 -2z m-6170 -1 c-3
-4 1 -13 9 -22 10 -10 14 -29 12 -56 l-4 -41 -66 -1 c-55 -1 -65 1 -64 14 2 9
11 19 22 23 18 6 18 7 2 14 -10 4 -26 4 -35 1 -17 -6 -17 -5 0 8 20 16 22 32
5 40 -7 3 0 2 16 -1 19 -4 27 -2 22 5 -6 11 16 18 63 21 13 0 22 -2 18 -5z
m5963 -45 c0 -18 -4 -28 -10 -24 -5 3 -10 20 -10 36 0 18 4 28 10 24 6 -3 10
-20 10 -36z m-5893 -16 c-3 -10 -5 -2 -5 17 0 19 2 27 5 18 2 -10 2 -26 0 -35z
m7954 7 c2 -19 6 -40 10 -45 5 -6 0 -11 -11 -11 -15 0 -16 4 -9 18 5 10 6 18
1 18 -5 0 -7 14 -4 30 5 38 9 35 13 -10z m-4452 21 c8 -5 0 -8 -25 -8 -22 1
-52 -2 -69 -7 -20 -5 -27 -4 -20 3 9 8 38 15 85 19 8 1 21 -2 29 -7z m1578
-17 c18 -3 35 -9 38 -14 3 -5 -9 -4 -27 1 -18 5 -53 9 -78 8 -195 -5 -640 3
-640 11 0 10 637 5 707 -6z m-2247 -11 c0 -7 -4 -13 -9 -13 -5 0 -17 -3 -27
-7 -13 -5 -15 -3 -9 7 6 10 4 12 -9 7 -10 -4 -15 -3 -11 4 4 5 16 7 27 3 12
-3 18 -2 15 3 -4 5 0 10 8 10 8 0 15 -6 15 -14z m3140 -32 c0 -35 -14 -16 -16
21 -1 21 1 26 7 17 5 -8 9 -25 9 -38z m-2345 28 c-4 -5 -27 -8 -53 -8 -45 2
-45 2 -12 8 56 10 71 10 65 0z m71 -21 c3 -4 -1 -8 -10 -8 -8 0 -16 -4 -18 -9
-1 -4 -11 0 -22 10 -18 17 -17 18 13 17 18 -1 34 -5 37 -10z m1163 -4 c10 -9
-65 -3 -78 5 -10 6 1 8 30 4 24 -3 46 -7 48 -9z m1881 0 c12 -13 7 -15 -45
-12 -36 2 -60 8 -63 16 -6 19 92 16 108 -4z m-5320 -69 c0 -43 -4 -75 -10 -75
-5 0 -10 17 -10 38 0 41 10 112 16 112 2 0 4 -34 4 -75z m152 23 c4 -33 2 -48
-6 -48 -8 0 -11 14 -9 38 2 32 1 33 -6 12 l-9 -25 -1 26 c-1 14 4 30 11 37 15
15 14 16 20 -40z m4328 33 c0 -11 -4 -22 -8 -25 -4 -2 -8 6 -8 20 0 13 4 24 8
24 4 0 8 -9 8 -19z m-5572 3 c-10 -9 -138 -12 -132 -3 3 5 35 9 71 9 37 0 64
-3 61 -6z m1051 -32 c0 -15 -3 -21 -6 -14 -2 6 -9 10 -14 6 -10 -6 -12 7 -3
30 9 23 24 9 23 -22z m1466 -8 c3 -21 2 -55 -2 -74 -6 -34 -7 -33 -19 28 -10
50 -10 67 -1 77 15 17 16 16 22 -31z m-2237 29 c-16 -2 -40 -2 -55 0 -16 2 -3
4 27 4 30 0 43 -2 28 -4z m152 -2 c0 -8 -100 -4 -109 5 -2 2 21 4 52 4 32 0
57 -4 57 -9z m3626 -35 c0 -25 -4 -42 -8 -40 -5 3 -6 10 -3 15 4 5 2 9 -3 9
-5 0 -7 13 -4 30 6 45 18 36 18 -14z m-1949 -18 c-2 -13 -4 -5 -4 17 -1 22 1
32 4 23 2 -10 2 -28 0 -40z m460 -10 c-2 -13 -4 -3 -4 22 0 25 2 35 4 23 2
-13 2 -33 0 -45z m1688 41 c6 -4 17 -4 25 1 31 20 40 11 40 -36 0 -46 0 -46
-27 -39 -16 4 -53 6 -83 6 -82 -3 -100 4 -100 37 0 43 16 53 79 46 31 -4 61
-10 66 -15z m-2381 -5 c9 -24 7 -28 -9 -14 -17 14 -20 30 -6 30 5 0 12 -7 15
-16z m2636 3 c0 -4 8 -7 18 -6 43 4 50 -1 54 -41 3 -37 2 -40 -22 -40 -37 0
-71 11 -64 21 3 5 0 9 -5 9 -6 0 -11 -4 -11 -10 0 -5 -12 -9 -27 -9 -24 2 -25
2 -5 6 12 2 20 9 17 14 -4 5 -2 9 3 9 5 0 7 13 4 28 -3 23 0 28 17 28 12 0 21
-4 21 -9z m340 -32 c22 -21 40 -42 40 -45 0 -3 -45 -7 -100 -8 -114 -3 -152
11 -143 51 9 35 25 42 96 42 63 0 68 -2 107 -40z m1570 29 c0 -8 -5 -14 -11
-14 -6 0 -9 -7 -5 -15 4 -13 -7 -15 -69 -15 -40 0 -77 5 -80 10 -4 6 20 10 64
10 41 0 71 4 71 10 0 6 -20 10 -45 10 -25 0 -45 4 -45 9 0 4 27 9 60 9 46 1
60 -2 60 -14z m2391 5 c135 0 265 -5 290 -11 24 -5 52 -11 62 -12 10 0 21 -6
25 -12 4 -6 15 -13 25 -17 9 -3 17 -12 17 -18 0 -7 -8 -6 -23 4 -32 21 -118
28 -377 32 -354 5 -520 10 -520 15 0 3 -55 4 -122 3 -133 -2 -178 3 -178 19 0
8 83 9 278 4 152 -3 388 -6 523 -7z m-6420 -56 c13 -34 5 -53 -21 -53 -15 0
-20 7 -21 28 0 15 -2 37 -3 49 -2 19 0 20 16 12 11 -6 23 -22 29 -36z m475 14
c1 -15 -1 -29 -6 -32 -4 -3 -10 11 -12 30 -2 20 0 34 5 32 6 -2 11 -15 13 -30z
m-4621 13 c7 -12 -12 -12 -40 0 -18 8 -17 9 7 9 15 1 30 -3 33 -9z m3397 -25
c3 -14 1 -25 -3 -25 -5 0 -9 11 -9 25 0 14 2 25 4 25 2 0 6 -11 8 -25z m349 3
c-16 -16 -25 -19 -28 -10 -3 6 -12 13 -21 13 -9 1 -3 5 13 9 54 14 61 12 36
-12z m249 -18 c0 -33 -3 -35 -31 -20 -34 19 -23 42 24 49 4 0 7 -12 7 -29z
m-306 -1 c4 -4 -3 -6 -17 -6 -20 0 -23 2 -14 12 7 7 14 10 17 7 3 -4 9 -10 14
-13z m-3854 -19 c0 -5 -9 -6 -20 -3 -11 3 -20 9 -20 13 0 5 9 6 20 3 11 -3 20
-9 20 -13z m9219 -30 l-1 -25 -8 25 c-4 14 -8 32 -9 40 -1 13 0 13 9 0 5 -8 9
-26 9 -40z m734 39 c-8 -8 -16 -8 -30 0 -16 9 -14 10 12 11 21 0 26 -3 18 -11z
m-9376 -6 c-16 -3 -25 -9 -21 -15 4 -7 2 -8 -5 -4 -18 12 -2 26 27 25 l27 -2
-28 -4z m158 -16 c7 -6 -3 -8 -30 -3 -22 3 -52 6 -67 6 -16 0 -28 4 -28 9 0
12 112 2 125 -12z m7553 6 c-15 -2 -42 -2 -60 0 -18 2 -6 4 27 4 33 0 48 -2
33 -4z m-7328 -6 c-11 -10 -140 -18 -140 -9 0 5 33 10 72 11 40 1 70 0 68 -2z
m-27 -34 c-13 -2 -33 -2 -45 0 -13 2 -3 4 22 4 25 0 35 -2 23 -4z M9464 1283
c4 -16 7 -36 7 -46 0 -9 4 -15 9 -12 4 3 11 -1 13 -7 3 -7 6 11 6 40 1 47 -1
52 -20 52 -18 0 -20 -4 -15 -27z M9430 1265 c0 -8 5 -15 10 -15 6 0 10 7 10
15 0 8 -4 15 -10 15 -5 0 -10 -7 -10 -15z M9430 1223 c0 -7 4 -13 9 -13 5 0
11 6 14 13 3 8 -1 14 -9 14 -8 0 -14 -6 -14 -14z M8423 1021 l-22 -6 24 -12
c14 -6 25 -7 25 -2 0 6 23 8 55 5 33 -3 55 -2 55 4 0 6 -19 10 -42 11 -24 0
-50 2 -58 3 -8 2 -25 0 -37 -3z M8589 1021 c11 -7 11 -9 0 -14 -11 -4 -11 -6
-1 -6 7 -1 20 6 28 14 14 13 12 15 -13 15 -20 0 -24 -3 -14 -9z M7610 1001 c0
-4 -12 -7 -27 -4 -27 3 -27 3 -5 -7 18 -7 29 -6 45 5 18 13 19 15 4 15 -9 0
-17 -4 -17 -9z M7715 1000 c-3 -6 4 -9 19 -8 13 1 22 6 20 10 -7 11 -32 10
-39 -2z M9013 890 c0 -30 2 -43 4 -27 2 15 2 39 0 55 -2 15 -4 2 -4 -28z
M5936 825 c-3 -9 0 -15 9 -15 8 0 15 4 15 9 0 5 8 12 18 14 11 3 8 5 -9 6 -16
1 -29 -5 -33 -14z M6005 828 c-26 -12 -58 -83 -49 -111 5 -17 12 -8 41 48 18
37 32 69 31 70 -2 1 -12 -2 -23 -7z M5923 705 c0 -22 2 -30 4 -17 2 12 2 30 0
40 -3 9 -5 -1 -4 -23z M3435 690 c-18 -8 -18 -9 5 -9 14 0 32 4 40 9 12 8 12
10 -5 9 -11 0 -29 -4 -40 -9z M7310 539 c-10 -6 0 -9 34 -9 54 0 57 4 11 13
-17 3 -37 2 -45 -4z M4486 551 c-11 -4 -15 -10 -9 -14 5 -3 19 0 29 8 20 15
11 18 -20 6z M4650 310 c0 -11 4 -20 9 -20 11 0 22 26 14 34 -12 12 -23 5 -23
-14z M2763 463 c-14 -5 -17 -55 -7 -115 6 -35 36 -58 50 -37 5 8 -9 13 -28 10
-4 0 -5 33 -3 74 2 41 3 75 2 74 -1 0 -8 -3 -14 -6z M2791 415 c1 -16 5 -43 9
-60 7 -27 8 -26 9 15 0 25 -4 52 -9 60 -7 11 -9 8 -9 -15z M2834 190 c2 -24 9
-46 16 -48 10 -4 11 5 7 33 -9 58 -28 70 -23 15z M4006 462 c-14 -13 -4 -18
29 -14 19 2 37 7 39 11 6 8 -60 11 -68 3z M4000 420 c0 -5 7 -10 15 -10 8 0
15 5 15 10 0 6 -7 10 -15 10 -8 0 -15 -4 -15 -10z M4040 420 c0 -5 6 -10 14
-10 8 0 18 5 21 10 3 6 -3 10 -14 10 -12 0 -21 -4 -21 -10z M4008 378 c9 -9
15 -9 24 0 9 9 7 12 -12 12 -19 0 -21 -3 -12 -12z M10472 435 c-10 -16 -1
-179 10 -192 8 -10 55 -13 174 -13 143 0 164 2 164 16 0 9 9 18 20 21 18 5 20
14 20 77 0 39 -4 76 -8 83 -9 15 -371 23 -380 8z m308 -95 c6 -11 16 -17 25
-14 8 4 15 2 15 -4 0 -16 -23 -9 -54 16 -20 15 -24 22 -13 22 9 0 21 -9 27
-20z m-31 -61 c-6 -3 -11 -10 -12 -15 -3 -13 -29 -14 -43 -3 -8 7 -13 6 -16
-3 -4 -11 -8 -11 -20 0 -8 7 -34 13 -57 15 -22 1 -41 5 -41 9 0 4 45 7 99 6
55 -2 95 -5 90 -9z m51 1 c0 -5 -7 -10 -15 -10 -8 0 -15 -5 -15 -12 0 -6 -3
-8 -7 -4 -5 4 1 14 11 22 23 17 26 17 26 4z M7193 293 c9 -9 19 -14 23 -11 10
10 -6 28 -24 28 -15 0 -15 -1 1 -17z M6587 122 c-9 -2 -15 -8 -12 -13 8 -12
45 -12 45 0 0 13 -12 18 -33 13z M2675 3220 l-70 -18 218 -1 c211 -1 217 0
217 19 0 19 -6 20 -147 19 -107 -1 -167 -6 -218 -19z M3060 3220 c0 -19 7 -20
245 -20 238 0 245 1 245 20 0 19 -7 20 -245 20 -238 0 -245 -1 -245 -20z
M3577 3233 c-4 -3 -7 -12 -7 -20 0 -10 24 -13 105 -13 98 0 105 1 105 20 0 19
-7 20 -98 20 -54 0 -102 -3 -105 -7z M3790 3220 c0 -19 7 -20 95 -20 88 0 95
1 95 20 0 19 -7 20 -95 20 -88 0 -95 -1 -95 -20z M3990 3220 c0 -19 7 -20 165
-20 158 0 165 1 165 20 0 19 -7 20 -165 20 -158 0 -165 -1 -165 -20z M5710
3220 c0 -16 7 -20 30 -20 23 0 30 4 30 20 0 16 -7 20 -30 20 -23 0 -30 -4 -30
-20z M5923 3220 c1 -11 8 -20 18 -20 9 0 19 9 22 20 4 16 0 20 -18 20 -18 0
-23 -5 -22 -20z M5976 3224 c-8 -22 -8 -24 5 -24 7 0 18 8 25 18 13 16 14 16
7 -2 -4 -13 -3 -17 5 -12 7 4 12 14 12 22 0 19 -46 18 -54 -2z M6040 3220 c0
-15 7 -20 25 -20 18 0 25 5 25 20 0 15 -7 20 -25 20 -18 0 -25 -5 -25 -20z
M6193 3224 c-9 -25 4 -28 84 -17 43 5 80 6 81 1 6 -14 320 -10 325 5 4 9 6 9
6 -1 1 -17 437 -17 445 1 3 9 5 9 5 0 1 -10 59 -13 255 -13 245 0 254 1 259
20 5 20 -2 20 -724 20 -646 0 -730 -2 -736 -16z M7680 3220 c0 -11 5 -20 10
-20 6 0 10 9 10 20 0 11 -4 20 -10 20 -5 0 -10 -9 -10 -20z M7710 3220 c0 -11
5 -20 10 -20 6 0 10 9 10 20 0 11 -4 20 -10 20 -5 0 -10 -9 -10 -20z M7742
3222 c4 -18 46 -21 141 -8 26 3 47 3 47 -1 0 -13 687 -16 695 -3 3 5 -3 11
-14 11 -34 2 -39 4 -47 12 -4 4 -192 7 -416 7 -381 -1 -409 -2 -406 -18z
M8850 3220 c19 -15 41 -20 93 -20 60 0 67 2 67 20 0 19 -7 20 -92 20 l-93 0
25 -20z M9059 3227 c6 -8 8 -17 4 -20 -3 -4 19 -7 50 -7 50 0 57 2 57 20 0 11
-7 20 -15 20 -8 0 -15 -4 -15 -10 0 -5 -5 -10 -11 -10 -5 0 -7 5 -4 10 4 6
-10 10 -36 10 -33 0 -39 -3 -30 -13z M9180 3220 c0 -22 35 -28 43 -7 4 10 6
10 6 0 1 -9 18 -13 51 -13 43 0 50 3 50 20 0 18 -7 20 -75 20 -68 0 -75 -2
-75 -20z M9380 3218 c0 -13 7 -18 30 -18 23 0 30 5 30 19 0 15 -7 19 -30 19
-22 -1 -30 -6 -30 -20z M9480 3220 c0 -16 7 -20 30 -20 23 0 30 4 30 20 0 16
-7 20 -30 20 -23 0 -30 -4 -30 -20z M9607 3220 c-4 -16 0 -20 19 -20 17 0 24
6 24 20 0 13 -7 20 -19 20 -10 0 -21 -9 -24 -20z M9710 3220 c0 -19 7 -20 115
-20 108 0 115 1 115 20 0 19 -7 20 -115 20 -108 0 -115 -1 -115 -20z M9950
3220 c0 -19 6 -20 98 -20 83 0 100 3 114 19 16 18 13 19 -98 20 -109 2 -114 1
-114 -19z M10207 3220 c5 -19 13 -20 270 -20 232 0 264 2 259 15 -3 8 -1 15 5
15 5 0 12 -7 15 -15 5 -13 65 -15 450 -15 348 0 444 3 444 13 0 8 4 7 10 -3 9
-13 11 -13 20 0 5 8 10 18 10 23 0 4 -97 7 -215 7 -137 0 -215 -4 -215 -10 0
-6 -30 -10 -70 -10 -40 0 -70 4 -70 10 0 6 -5 10 -11 10 -5 0 -7 -4 -4 -10 7
-11 -13 -12 -140 -10 -44 1 -81 5 -83 11 -5 12 -172 12 -172 -1 0 -5 -5 -10
-11 -10 -5 0 -8 3 -5 8 2 4 -107 8 -244 10 -244 2 -248 2 -243 -18z M11720
3230 c-12 -7 -12 -12 -3 -21 15 -15 26 -7 21 15 -2 11 -7 13 -18 6z M11760
3220 c0 -20 7 -20 448 -22 246 0 455 -1 465 0 9 1 17 -3 17 -8 0 -6 7 -10 16
-10 8 0 13 4 10 8 -2 4 4 8 14 9 20 2 32 -42 29 -102 -2 -48 11 -386 17 -425
12 -85 15 -192 5 -185 -6 3 -11 -1 -11 -9 0 -8 5 -18 10 -21 6 -4 8 -11 5 -16
-10 -16 -7 -158 4 -176 7 -13 10 135 11 480 l0 497 -120 0 c-84 0 -119 -3
-117 -11 1 -6 -4 -14 -12 -17 -10 -3 -12 0 -8 12 6 15 -27 16 -388 16 -388 0
-395 0 -395 -20z M8741 3218 c-1 -13 7 -18 29 -18 17 0 30 5 30 11 0 7 -9 9
-24 5 -15 -4 -26 -1 -29 7 -3 7 -6 5 -6 -5z M12647 3174 c-4 -4 -4 -10 -1 -15
6 -10 34 0 34 12 0 10 -24 12 -33 3z M3760 3121 c0 -12 5 -21 10 -21 6 0 10 6
10 14 0 8 -4 18 -10 21 -5 3 -10 -3 -10 -14z M2286 3083 c-3 -3 0 -13 7 -21 9
-12 9 -16 -1 -19 -8 -3 -6 -10 8 -21 14 -13 20 -32 22 -74 2 -31 6 -54 10 -52
4 3 4 44 1 92 -6 77 -4 86 9 75 16 -14 28 -8 28 12 0 13 -72 19 -84 8z M5011
2990 c0 -36 4 -74 8 -85 5 -11 6 12 4 55 -6 98 -11 112 -12 30z M2362 2990 c0
-19 2 -27 5 -17 2 9 2 25 0 35 -3 9 -5 1 -5 -18z M7797 2944 c-8 -14 8 -37 22
-33 8 3 8 10 -2 23 -8 11 -17 15 -20 10z M7800 2885 c0 -8 7 -15 16 -15 14 0
14 3 4 15 -7 8 -14 15 -16 15 -2 0 -4 -7 -4 -15z M7227 2883 c-13 -12 -7 -22
12 -20 11 0 17 6 14 14 -6 14 -16 17 -26 6z M5020 2835 c0 -19 4 -35 8 -35 4
0 6 16 4 35 -2 19 -6 35 -8 35 -2 0 -4 -16 -4 -35z M5030 2768 c0 -18 18 -34
28 -24 3 4 -2 14 -11 23 -16 16 -17 16 -17 1z M4798 2738 c5 -21 4 -22 -11 -9
-11 9 -17 10 -17 2 0 -6 -7 -11 -16 -11 -9 0 -14 -6 -11 -12 5 -16 48 -12 59
5 11 17 10 47 -1 47 -5 0 -7 -10 -3 -22z M4842 2720 c0 -19 2 -27 5 -17 2 9 2
25 0 35 -3 9 -5 1 -5 -18z M7274 2731 c4 -6 3 -11 -1 -11 -5 0 -14 -10 -22
-22 l-13 -21 27 21 c15 12 32 19 37 15 6 -3 9 0 6 8 -3 8 -13 16 -23 17 -10 3
-15 0 -11 -7z M5093 2665 c0 -27 2 -38 4 -22 2 15 2 37 0 50 -2 12 -4 0 -4
-28z M2350 2616 c0 -26 4 -45 9 -42 8 5 4 76 -5 85 -2 2 -4 -17 -4 -43z M4752
2634 c3 -17 21 -21 26 -6 1 5 -4 12 -13 16 -11 4 -15 1 -13 -10z M4823 2403
c15 -2 37 -2 50 0 12 2 0 4 -28 4 -27 0 -38 -2 -22 -4z M7777 2313 c-13 -12
-7 -33 8 -33 8 0 15 9 15 20 0 20 -11 26 -23 13z M5763 2210 c3 -11 1 -22 -4
-25 -13 -9 1 -33 23 -38 11 -3 17 -10 13 -16 -3 -6 -1 -11 4 -11 6 0 11 -9 11
-21 0 -18 4 -20 29 -14 24 5 32 1 49 -22 17 -23 22 -25 36 -14 9 7 16 10 17 5
0 -5 2 -24 5 -41 2 -18 0 -33 -4 -33 -12 0 -32 -46 -25 -54 11 -11 34 -6 31 7
-4 18 33 57 54 57 10 0 18 -6 18 -14 0 -8 9 -17 19 -21 18 -5 44 -51 40 -71
-4 -22 2 -23 23 -2 14 14 18 23 10 26 -7 2 -12 12 -12 23 0 10 -4 19 -8 19 -4
0 -8 9 -9 21 -1 11 -16 37 -33 57 -17 20 -34 42 -39 47 -4 6 -27 26 -49 46
l-41 37 42 6 c23 3 67 5 97 5 79 -1 80 0 74 15 -7 17 -58 26 -144 25 -76 -1
-73 -2 -125 6 -112 15 -107 16 -102 -5z M11727 2174 c-13 -13 -7 -24 14 -24
11 0 19 5 17 12 -5 14 -22 21 -31 12z M11796 2132 c-3 -6 -1 -14 5 -17 15 -10
25 3 12 16 -7 7 -13 7 -17 1z M3386 2044 c-8 -21 -8 -49 1 -41 7 7 14 57 8 57
-1 0 -6 -7 -9 -16z M7770 2040 c0 -5 6 -10 14 -10 8 0 18 5 21 10 3 6 -3 10
-14 10 -12 0 -21 -4 -21 -10z M2380 1980 c14 -10 26 -27 27 -37 9 -106 17
-144 27 -132 9 11 -20 171 -34 179 -29 19 -46 10 -20 -10z M7456 1985 c-10 -7
-16 -18 -15 -23 2 -6 12 1 22 14 21 27 19 29 -7 9z M2447 1958 c8 -44 13 -48
13 -10 0 17 -4 34 -10 37 -6 4 -7 -6 -3 -27z M3380 1975 c0 -8 5 -15 10 -15 6
0 10 7 10 15 0 8 -4 15 -10 15 -5 0 -10 -7 -10 -15z M11675 1979 c-10 -15 3
-25 16 -12 7 7 7 13 1 17 -6 3 -14 1 -17 -5z M8205 1970 c-3 -5 1 -10 9 -10 8
0 18 5 21 10 3 6 -1 10 -9 10 -8 0 -18 -4 -21 -10z M10851 1896 c-19 -11 -21
-14 -7 -19 9 -4 16 -2 16 3 0 5 7 7 15 4 8 -4 15 -1 15 4 0 18 -14 21 -39 8z
M8820 1885 c0 -20 -24 -45 -43 -45 -17 0 -40 -24 -31 -33 4 -3 17 1 30 10 13
8 31 13 39 9 9 -3 14 -2 11 3 -3 5 1 12 10 15 9 3 14 15 12 28 -4 25 -28 37
-28 13z M10492 1879 c-10 -4 -1 -7 21 -7 20 0 39 3 41 7 5 8 -39 8 -62 0z
M6240 1860 c0 -11 4 -20 8 -20 4 0 8 9 9 20 1 11 -2 20 -8 20 -5 0 -9 -9 -9
-20z M7923 1847 c-18 -12 -32 -28 -33 -34 0 -17 15 -16 34 2 8 8 21 15 30 15
8 0 20 9 26 20 9 17 8 20 -7 19 -10 0 -32 -11 -50 -22z M5965 1850 c-8 -13 -1
-24 14 -19 6 3 7 10 2 18 -6 10 -10 10 -16 1z M8373 1848 c2 -7 10 -12 16 -10
6 1 11 -2 11 -8 0 -5 5 -10 10 -10 16 0 11 27 -6 34 -25 9 -36 7 -31 -6z
M8447 1854 c-7 -8 4 -44 14 -44 12 0 12 37 0 44 -4 3 -11 3 -14 0z M5967 1804
c-8 -8 1 -24 14 -24 5 0 9 7 9 15 0 15 -12 20 -23 9z M2433 1760 c0 -25 2 -35
4 -22 2 12 2 32 0 45 -2 12 -4 2 -4 -23z M7600 1790 c-12 -8 -11 -10 8 -10 12
0 22 5 22 10 0 13 -11 13 -30 0z M7670 1785 c-11 -13 -7 -15 25 -15 32 0 36 2
25 15 -7 8 -18 15 -25 15 -7 0 -18 -7 -25 -15z M6255 1770 c-3 -5 3 -10 14
-10 12 0 21 5 21 10 0 6 -6 10 -14 10 -8 0 -18 -4 -21 -10z M6372 1768 c5 -15
28 -23 28 -10 0 5 -7 13 -16 16 -10 4 -14 1 -12 -6z M5982 1757 c-9 -11 -10
-17 -2 -22 15 -9 23 -1 18 21 -3 15 -4 16 -16 1z M12394 1755 c-19 -7 -24 -14
-16 -19 7 -4 16 -5 21 -2 5 3 11 -3 14 -14 3 -11 1 -20 -4 -20 -5 0 -9 5 -9
11 0 11 -473 7 -900 -6 -174 -6 -482 -13 -855 -20 -555 -11 -798 -16 -955 -20
-198 -5 -763 -19 -805 -19 -16 -1 -33 -5 -37 -11 -5 -6 -12 -5 -20 3 -6 6 -17
12 -23 12 -5 0 -3 -4 5 -10 9 -5 -36 -9 -125 -9 -97 -1 -135 2 -125 9 11 8 3
10 -30 8 -33 -2 -44 -7 -42 -17 3 -12 0 -12 -12 -2 -12 10 -101 10 -433 2
-230 -6 -519 -13 -643 -16 -124 -3 -313 -7 -420 -10 -107 -3 -312 -7 -455 -10
-718 -14 -981 -22 -1027 -31 -16 -3 -28 -12 -28 -21 0 -13 27 -15 209 -12 115
2 207 1 204 -4 -2 -4 3 -7 11 -7 9 0 16 5 16 10 0 7 45 9 128 6 78 -3 110 -2
82 3 -39 7 -33 8 45 9 58 1 95 -2 103 -10 9 -9 18 -9 37 0 14 6 38 9 55 6 18
-4 36 -1 45 6 12 10 70 12 248 8 127 -2 214 -1 192 2 -23 4 33 8 134 11 95 2
178 1 184 -3 6 -4 17 -2 24 4 9 7 13 7 13 -1 0 -7 28 -10 88 -9 l87 2 -85 6
c-66 5 -45 7 100 8 122 1 180 -2 170 -8 -12 -8 -11 -10 8 -10 12 0 22 3 22 8
0 11 79 14 470 15 269 0 323 2 205 7 l-160 6 175 4 c96 2 203 4 237 6 35 1 60
-2 57 -7 -3 -5 0 -9 5 -9 6 0 11 5 11 10 0 6 15 10 34 8 43 -3 37 -28 -7 -28
-39 0 -32 -7 13 -13 22 -3 34 -9 32 -17 -3 -11 0 -11 12 0 11 8 35 11 71 8 30
-3 55 -1 55 3 0 3 11 9 25 11 13 3 22 1 19 -3 -3 -5 -13 -9 -22 -10 -11 0 -12
-3 -4 -6 6 -2 12 -11 12 -19 0 -9 -4 -13 -9 -9 -5 3 -12 1 -16 -5 -4 -6 5 -10
19 -10 15 0 30 8 36 20 6 11 16 18 22 14 7 -4 6 -9 -3 -15 -8 -5 -12 -9 -9 -9
74 -10 111 -9 107 2 -2 7 -15 13 -28 14 -40 2 -42 3 -29 19 7 9 19 14 26 11 7
-3 15 0 18 7 3 9 7 8 14 -2 8 -11 10 -11 14 0 5 12 9 12 28 1 18 -11 21 -11
15 0 -6 10 -5 11 6 1 18 -17 68 -16 99 2 14 8 33 18 43 21 9 3 17 10 17 15 0
5 64 9 143 8 82 0 134 -4 122 -8 -13 -6 4 -8 47 -7 36 0 64 4 62 7 -6 10 33
18 43 8 4 -4 58 -8 118 -9 167 -2 177 3 20 10 l-140 6 152 2 c113 1 153 -1
156 -10 4 -10 6 -10 6 0 1 7 14 12 32 12 17 0 28 -4 24 -10 -3 -6 -1 -10 4
-10 6 0 11 4 11 9 0 15 160 1 217 -19 51 -17 51 -17 58 4 6 18 8 19 12 4 2
-10 11 -18 20 -18 8 0 13 -6 10 -12 -3 -9 11 -14 49 -16 43 -2 54 0 54 13 0 8
-4 15 -9 15 -5 0 -12 7 -15 16 -3 8 -2 12 4 9 6 -4 20 -3 33 2 13 5 -55 10
-173 13 l-195 6 198 2 c109 1 197 -2 197 -7 0 -15 61 -19 67 -5 5 15 53 15 53
1 0 -5 -9 -5 -20 -2 -25 8 -26 -12 -3 -40 13 -17 15 -17 10 -2 -5 14 0 19 23
24 17 3 33 10 36 14 3 5 26 9 52 9 36 0 44 -3 32 -11 -12 -9 -11 -10 5 -4 11
4 73 8 138 10 74 2 123 7 132 15 12 10 15 9 15 -4 0 -11 4 -14 13 -9 6 4 118
9 247 10 218 2 273 4 435 13 58 3 59 3 20 10 -29 5 -11 8 65 8 68 1 100 -2 90
-8 -8 -5 -34 -6 -58 -3 -45 6 -62 -4 -61 -37 0 -8 5 -4 10 9 7 18 14 22 32 16
12 -4 30 -7 40 -6 9 0 17 -5 17 -10 0 -6 9 -5 21 2 12 6 37 9 55 7 19 -2 34
-1 34 2 0 11 67 11 95 0 22 -8 33 -7 51 5 27 17 124 21 124 4 0 -14 103 -6
108 9 2 7 -22 12 -75 15 -43 1 27 4 155 5 149 1 232 -2 232 -8 0 -14 28 -12
33 3 3 9 10 9 31 -2 20 -11 29 -12 38 -3 7 7 20 12 30 12 12 0 18 8 18 23 l0
22 -170 -3 c-167 -4 -235 3 -181 17 14 4 26 11 28 17 5 14 -48 14 -83 -1z
m-226 -82 c-10 -2 -26 -2 -35 0 -10 3 -2 5 17 5 19 0 27 -2 18 -5z m-759 -18
c-7 -7 -239 -8 -246 -1 -4 3 51 6 122 6 71 0 126 -2 124 -5z m-561 -12 c-32
-2 -86 -2 -120 0 -35 2 -9 3 57 3 66 0 94 -1 63 -3z m-489 -39 c10 -9 -35 -3
-49 6 -11 8 -7 9 15 4 17 -4 32 -8 34 -10z m-1409 -4 c-33 -11 -80 -12 -80 -2
0 4 24 8 53 8 38 1 45 -1 27 -6z m-50 -41 c0 -6 -7 -9 -15 -6 -8 4 -17 2 -20
-3 -4 -6 -12 -10 -18 -10 -16 1 23 30 40 30 7 0 13 -5 13 -11z M12694 1757
c-8 -21 -3 -29 13 -19 8 5 9 13 3 22 -7 12 -10 12 -16 -3z M5934 1745 c-9 -22
1 -29 15 -11 8 10 9 16 1 21 -5 3 -13 -1 -16 -10z M2436 1655 c2 -33 6 -77 8
-98 4 -33 1 -38 -22 -43 -47 -10 -48 -14 -4 -10 23 2 42 2 42 0 0 -2 -9 -11
-20 -22 -19 -18 -19 -18 0 -19 14 -1 20 5 20 18 0 12 7 19 20 19 23 0 25 27
10 115 -8 45 -9 43 -5 -21 4 -55 2 -73 -9 -77 -11 -4 -15 13 -21 82 -4 48 -11
94 -15 102 -6 8 -7 -11 -4 -46z M12360 1662 c0 -4 9 -13 21 -20 12 -8 18 -9
14 -3 -4 7 4 12 19 13 14 0 32 1 39 2 6 1 11 -5 10 -11 -2 -7 2 -13 7 -13 6 0
10 6 10 14 0 8 6 17 13 19 6 3 -21 6 -60 6 -40 1 -73 -2 -73 -7z M6380 1650
l-25 -8 28 -1 c15 -1 27 4 27 9 0 6 -1 10 -2 9 -2 -1 -14 -5 -28 -9z M10635
1610 c-3 -5 1 -10 9 -10 8 0 18 5 21 10 3 6 -1 10 -9 10 -8 0 -18 -4 -21 -10z
M3397 1603 c-11 -10 -8 -43 3 -43 6 0 10 11 10 25 0 26 -2 29 -13 18z M9247
1603 c18 -2 50 -2 70 0 21 2 7 4 -32 4 -38 0 -55 -2 -38 -4z M8516 1593 c-8
-8 -13 -9 -43 -12 -15 -1 -16 -3 -3 -11 8 -5 16 -6 18 -1 1 4 17 5 34 3 20 -3
29 -1 24 6 -3 6 0 13 6 15 7 3 4 6 -8 6 -11 1 -24 -2 -28 -6z M10935 1581
c-10 -17 12 -21 25 -6 10 12 10 15 -3 15 -9 0 -18 -4 -22 -9z M7748 1573 c17
-2 47 -2 65 0 17 2 3 4 -33 4 -36 0 -50 -2 -32 -4z M6913 1553 c9 -2 25 -2 35
0 9 3 1 5 -18 5 -19 0 -27 -2 -17 -5z M8716 1542 c-7 -11 51 -38 61 -28 3 3
-1 6 -10 6 -9 0 -16 5 -14 12 3 14 -29 23 -37 10z M9090 1531 c0 -5 12 -8 26
-8 18 0 22 2 13 8 -18 11 -39 11 -39 0z M4024 1435 c-3 -8 -1 -27 4 -42 10
-27 10 -26 11 15 1 43 -5 54 -15 27z M4181 1373 c1 -21 5 -49 9 -63 6 -19 8
-12 9 32 1 31 -3 60 -9 63 -6 4 -10 -9 -9 -32z M4222 1369 c3 -43 18 -47 18
-5 0 20 -5 36 -10 36 -6 0 -9 -14 -8 -31z M3210 1350 c-8 -14 -5 -16 15 -12
14 2 25 10 25 16 0 19 -30 15 -40 -4z M3170 1340 c0 -24 15 -27 24 -4 9 22 8
24 -9 24 -8 0 -15 -9 -15 -20z M3260 1350 c0 -5 7 -10 15 -10 8 0 15 5 15 10
0 6 -7 10 -15 10 -8 0 -15 -4 -15 -10z M1330 1330 l-35 -6 40 -6 c46 -6 46 -6
37 8 -4 5 -23 7 -42 4z M1390 1333 c0 -5 14 -9 30 -10 18 -1 28 2 25 7 -7 12
-55 14 -55 3z M720 1285 c0 -29 4 -35 23 -36 16 0 18 -2 7 -7 -21 -10 -23 -32
-2 -33 14 0 14 -2 -3 -9 -40 -16 10 -22 91 -10 44 6 102 13 129 16 28 3 74 9
104 13 30 3 56 12 59 19 2 6 -4 12 -15 12 -15 0 -16 -2 -3 -10 11 -8 5 -10
-25 -10 -61 1 -172 -6 -247 -15 -60 -7 -68 -6 -68 9 0 9 3 16 8 17 4 0 16 3
27 6 11 2 34 6 50 8 74 9 116 18 121 27 4 6 -5 8 -22 4 -16 -3 -49 -7 -74 -10
-25 -3 -66 -8 -91 -11 -40 -5 -46 -3 -46 12 0 33 -3 43 -13 43 -5 0 -10 -16
-10 -35z M1243 1313 c9 -2 25 -2 35 0 9 3 1 5 -18 5 -19 0 -27 -2 -17 -5z
M1050 1291 c0 -5 18 -8 39 -7 22 0 37 4 35 8 -7 11 -74 10 -74 -1z M1065 1200
l-40 -7 37 -2 c20 0 40 4 43 9 3 6 5 9 3 9 -2 -1 -21 -5 -43 -9z M910 1183
c-19 -3 -39 -9 -45 -14 -7 -7 3 -8 30 -3 34 6 88 26 60 22 -5 -1 -26 -3 -45
-5z M3061 1158 c-1 -36 11 -50 24 -28 3 6 2 10 -4 10 -5 0 -12 12 -14 28 -3
22 -4 20 -6 -10z M3317 1179 c-27 -4 -52 -11 -55 -14 -8 -8 99 3 107 10 9 10
-5 11 -52 4z M3193 1153 c9 -2 25 -2 35 0 9 3 1 5 -18 5 -19 0 -27 -2 -17 -5z
M3110 1135 c-9 -10 -9 -15 -1 -15 6 0 11 4 11 9 0 5 10 12 23 14 21 4 21 4 1
6 -12 0 -27 -6 -34 -14z M10935 1040 c-10 -11 -14 -20 -9 -20 12 1 44 25 44
34 0 12 -17 6 -35 -14z M9418 1029 c-18 -12 17 -14 122 -8 67 3 87 6 55 8 -94
6 -167 6 -177 0z M9552 997 c-9 -10 -4 -13 19 -15 20 -2 29 2 29 13 0 18 -33
20 -48 2z M10163 946 c0 -8 8 -11 19 -8 10 2 18 8 18 13 0 5 -8 9 -18 9 -10 0
-19 -6 -19 -14z M12506 853 c-12 -12 -6 -33 9 -33 8 0 15 6 15 14 0 17 -14 28
-24 19z M1283 843 c9 -2 25 -2 35 0 9 3 1 5 -18 5 -19 0 -27 -2 -17 -5z M785
760 c-13 -6 2 -8 44 -5 35 2 66 7 69 10 9 8 -91 4 -113 -5z M11715 701 c44 -6
46 -8 20 -12 -23 -5 -18 -6 20 -7 36 -1 46 1 35 8 -13 8 -12 10 3 10 9 0 17
-4 17 -10 0 -5 14 -10 31 -10 20 0 29 4 27 13 -3 8 -34 12 -104 13 -72 1 -85
-1 -49 -5z M10465 600 c-51 -5 -21 -7 113 -8 100 -1 182 1 182 6 0 9 -202 11
-295 2z M10933 593 c15 -2 37 -2 50 0 12 2 0 4 -28 4 -27 0 -38 -2 -22 -4z
M7830 563 c-19 -9 -53 -24 -75 -34 -35 -17 -36 -19 -10 -13 73 15 125 32 105
34 -8 1 -4 5 10 9 14 4 20 9 15 13 -6 3 -26 -1 -45 -9z M8000 530 c0 -8 60
-23 67 -17 1 2 -13 8 -32 14 -19 6 -35 8 -35 3z M11380 505 c0 -3 7 -16 15
-29 12 -18 13 -30 5 -50 -5 -15 -6 -25 -1 -21 9 5 35 -63 45 -120 3 -16 8 -79
11 -140 3 -60 8 -118 11 -127 8 -25 32 -22 36 4 2 17 12 24 38 28 42 7 60 17
60 33 0 7 9 18 20 25 19 12 20 10 20 -48 0 -57 1 -60 24 -60 22 0 25 5 28 40
2 32 6 38 18 30 13 -9 13 -11 1 -19 -8 -5 -11 -16 -8 -25 10 -24 24 -19 26 9
2 39 2 47 -4 95 -4 25 -7 50 -7 55 -1 6 2 29 6 53 7 35 5 42 -8 42 -10 0 -17
-9 -17 -22 -3 -52 -2 -85 3 -94 6 -12 3 -62 -4 -70 -3 -3 -12 26 -19 65 -10
61 -14 68 -25 53 -20 -28 -29 -5 -30 79 -1 45 -6 85 -13 92 -13 13 -12 18 -15
-99 -2 -44 -5 -85 -8 -90 -2 -5 -3 -19 -2 -32 1 -13 -5 -26 -12 -29 -8 -3 -14
-11 -14 -18 0 -20 -41 -30 -51 -14 -5 8 -9 48 -9 89 -1 41 -8 107 -16 145 -8
39 -17 81 -20 95 -5 21 -84 91 -84 75z M7890 479 c-23 -6 -23 -7 -3 -8 12 -1
23 -7 26 -13 2 -7 7 -11 9 -8 3 3 3 12 -1 21 -4 11 -13 13 -31 8z M9670 480
c-23 -15 -9 -17 65 -12 52 4 63 7 45 13 -36 10 -93 10 -110 -1z M12593 455 c0
-22 2 -30 4 -17 2 12 2 30 0 40 -3 9 -5 -1 -4 -23z M11830 465 c-16 -19 0 -19
26 0 16 12 16 14 3 15 -9 0 -22 -7 -29 -15z M11784 426 c-21 -16 -16 -30 9
-20 16 6 32 34 19 34 -5 0 -17 -6 -28 -14z M12535 398 c-4 -10 -4 -26 0 -35 8
-17 8 -17 12 0 3 9 3 25 0 35 -4 16 -4 16 -12 0z M80 375 c-7 -8 -8 -15 -2
-15 5 0 15 7 22 15 7 8 8 15 2 15 -5 0 -15 -7 -22 -15z M11714 373 c-3 -10
-10 -26 -15 -35 -12 -24 -12 -25 11 -31 16 -4 20 0 20 18 0 13 5 27 10 30 6 3
10 13 10 21 0 20 -30 18 -36 -3z M12602 350 c0 -19 2 -27 5 -17 2 9 2 25 0 35
-3 9 -5 1 -5 -18z M12354 346 c-3 -8 -6 -40 -7 -72 l-2 -59 35 2 c19 1 58 0
86 -3 l51 -5 2 -90 c2 -105 6 -119 32 -119 17 0 19 5 15 48 -3 26 -8 82 -12
125 -4 59 -10 80 -22 84 -9 4 -17 2 -19 -4 -3 -8 -13 -9 -31 -3 -15 5 -34 9
-42 8 -8 -1 -28 0 -45 0 -29 2 -30 3 -29 52 2 50 -2 62 -12 36z M9497 343 c-3
-5 -8 -23 -12 -40 -3 -18 -10 -33 -14 -33 -4 0 -8 -6 -8 -14 0 -8 6 -12 14 -9
7 3 13 0 13 -6 0 -6 -4 -11 -9 -11 -5 0 -11 -10 -14 -21 -5 -20 -4 -20 21 4
23 22 27 34 26 74 -1 27 3 51 10 55 7 5 5 8 -6 8 -9 0 -19 -3 -21 -7z M9530
272 c0 -12 5 -22 11 -22 5 0 7 -6 3 -12 -5 -10 -4 -10 6 -1 10 9 9 16 -4 34
l-16 23 0 -22z M12299 213 c0 -27 -1 -64 -1 -83 -2 -96 2 -130 17 -130 17 0
17 2 15 115 -1 44 -6 85 -12 92 -5 7 -7 21 -3 33 4 11 2 20 -4 20 -6 0 -11
-21 -12 -47z M12630 231 c0 -11 4 -22 9 -25 5 -3 7 -14 4 -24 -3 -12 2 -18 16
-19 22 -2 28 11 11 22 -23 14 5 25 66 25 57 0 65 2 62 18 -3 14 -17 18 -86 20
-76 3 -82 2 -82 -17z M1010 230 c-20 -6 -21 -8 -5 -8 11 0 29 3 40 8 25 11 -1
11 -35 0z M9437 185 c-6 -14 11 -35 29 -35 7 0 16 -5 20 -12 5 -8 1 -9 -12 -4
-15 6 -17 5 -6 -5 7 -8 12 -38 12 -71 l0 -58 50 0 50 0 1 38 c0 20 2 48 4 62
2 14 -1 42 -7 64 -9 35 -10 37 -23 20 -9 -11 -14 -14 -15 -6 0 14 -30 17 -30
3 0 -19 -31 -20 -49 -2 -15 15 -21 16 -24 6z M785 180 c-3 -5 -1 -10 5 -10 6
0 9 -4 6 -9 -4 -5 4 -6 16 -3 22 6 22 6 3 10 l-20 5 20 8 c19 7 19 8 -2 8 -12
1 -25 -3 -28 -9z M587 135 c-37 -19 -60 -43 -52 -54 3 -5 17 1 32 15 14 13 30
24 35 24 5 0 16 7 24 15 20 20 -1 20 -39 0z M3213 113 c-12 -26 -14 -38 -6
-40 9 -3 9 -11 1 -29 -10 -20 -9 -27 2 -34 8 -5 16 -7 19 -5 5 6 10 145 5 145
-1 0 -11 -17 -21 -37z M12575 130 c-9 -15 5 -130 16 -130 12 0 12 127 0 135
-5 3 -13 1 -16 -5z M12646 110 c1 -16 2 -48 3 -70 1 -32 5 -40 20 -40 16 0 20
9 23 57 2 32 0 60 -4 61 -5 2 -6 8 -2 13 3 5 -5 9 -18 9 -19 0 -23 -5 -22 -30z
M12354 64 c3 -9 6 -27 6 -40 0 -14 6 -24 14 -24 19 0 25 29 12 58 -11 25 -42
31 -32 6z M495 60 c-3 -5 1 -10 9 -10 12 0 14 -5 6 -25 -5 -14 -6 -25 -1 -25
9 0 21 33 21 58 0 14 -26 16 -35 2z M10212 51 c-6 -4 -9 -17 -5 -29 5 -22 6
-22 254 -22 147 0 249 4 249 9 0 11 -53 17 -260 30 -85 5 -171 11 -191 14 -20
2 -41 2 -47 -2z M6471 26 c10 -9 79 -14 79 -5 0 5 -19 9 -42 9 -23 0 -39 -2
-37 -4z"/>
</g>
</svg>
