<!--?xml version="1.0" encoding="utf-8"?-->
<!-- Generator: Adobe Illustrator 15.1.0, SVG Export Plug-In . SVG Version: 6.00 Build 0)  -->

<svg version="1.1" id="_x32_" xmlns="http://www.w3.org/2000/svg" xmlns:xlink="http://www.w3.org/1999/xlink" x="0px" y="0px" width="512px" height="512px" viewBox="0 0 512 512" style="width: 16px; height: 16px; opacity: 1;" xml:space="preserve">
<style type="text/css">

	.st0{fill:#4B4B4B;}

</style>
<g>
	<path class="st0" d="M415.48,344.803c17.156-7.422,29.171-24.453,29.171-44.328c0-20.422-12.703-37.797-30.609-44.875
		c10.469-8.859,17.265-21.922,17.265-36.719c0-26.703-21.625-48.328-48.312-48.328H272.871
		c10.578-20.813,19.766-48.344,16.625-81.25c-2.922-30.984-29.063-85.75-69.313-88.984c-31.047-2.484-37.047,9.156-37.047,40.281
		c0,0,0.344,30.156,0.344,49.484c0,34.609-4.469,66.297-52.234,81.422c-76.359,24.203-63,121-63,121v92.188
		c0,28.875,46.563,127.313,152.547,127.313h122.406c26.703,0,62.813-12.906,62.813-48.328c0-13.25-5.344-25.25-13.984-33.984
		c23.359-3.375,41.359-23.297,41.359-47.625C433.386,366.975,426.339,353.662,415.48,344.803z" style="fill: rgb(142, 142, 142);"></path>
</g>
</svg>
